M48
; DRILL file {KiCad 9.0.6} date 2026-02-11T14:43:18-0800
; FORMAT={-:-/ absolute / metric / decimal}
; #@! TF.CreationDate,2026-02-11T14:43:18-08:00
; #@! TF.GenerationSoftware,Kicad,Pcbnew,9.0.6
; #@! TF.FileFunction,Plated,1,2,PTH
FMAT,2
METRIC
; #@! TA.AperFunction,Plated,PTH,ComponentDrill
T1C0.813
; #@! TA.AperFunction,Plated,PTH,ComponentDrill
T2C0.889
; #@! TA.AperFunction,Plated,PTH,ComponentDrill
T3C1.016
; #@! TA.AperFunction,Plated,PTH,ComponentDrill
T4C2.010
%
G90
G05
T1
X68.58Y-38.1
X68.58Y-45.72
X68.58Y-55.88
X68.58Y-63.5
X78.74Y-38.1
X78.74Y-45.72
X78.74Y-55.88
X78.74Y-63.5
X83.86Y-45.76
X83.86Y-55.88
X86.36Y-45.76
X86.36Y-55.88
X88.9Y-38.1
X88.9Y-63.5
X91.44Y-38.1
X91.44Y-45.72
X91.44Y-55.88
X91.44Y-63.5
X96.52Y-45.72
X96.52Y-55.88
X99.06Y-45.72
X99.06Y-55.88
X101.6Y-45.72
X101.6Y-55.88
T2
X111.45Y-48.26
X111.45Y-50.8
T4
X116.53Y-45.72
X116.53Y-55.88
T3
G00X52.12Y-49.784
M15
G01X52.12Y-51.816
M16
G05
G00X56.536Y-55.6
M15
G01X54.504Y-55.6
M16
G05
G00X58.42Y-49.784
M15
G01X58.42Y-51.816
M16
G05
M30
