%TF.GenerationSoftware,KiCad,Pcbnew,9.0.6*%
%TF.CreationDate,2026-02-11T14:43:18-08:00*%
%TF.ProjectId,7L_LED_Flasher,374c5f4c-4544-45f4-966c-61736865722e,rev?*%
%TF.SameCoordinates,Original*%
%TF.FileFunction,Drillmap*%
%TF.FilePolarity,Positive*%
%FSLAX45Y45*%
G04 Gerber Fmt 4.5, Leading zero omitted, Abs format (unit mm)*
G04 Created by KiCad (PCBNEW 9.0.6) date 2026-02-11 14:43:18*
%MOMM*%
%LPD*%
G01*
G04 APERTURE LIST*
%ADD10C,0.050000*%
%ADD11C,0.200000*%
G04 APERTURE END LIST*
D10*
X4953000Y-6858000D02*
X4953000Y-3302000D01*
X5715000Y-7620000D02*
G75*
G02*
X4953000Y-6858000I0J762000D01*
G01*
X5715000Y-2540000D02*
X11684000Y-2540000D01*
X11684000Y-7620000D02*
X5715000Y-7620000D01*
X12446000Y-6858000D02*
G75*
G02*
X11684000Y-7620000I-762000J0D01*
G01*
X12446000Y-3302000D02*
X12446000Y-6858000D01*
X11684000Y-2540000D02*
G75*
G02*
X12446000Y-3302000I0J-762000D01*
G01*
X4953000Y-3302000D02*
G75*
G02*
X5715000Y-2540000I762000J0D01*
G01*
D11*
X5211277Y-7933984D02*
X5211277Y-7733984D01*
X5211277Y-7733984D02*
X5258896Y-7733984D01*
X5258896Y-7733984D02*
X5287467Y-7743508D01*
X5287467Y-7743508D02*
X5306515Y-7762555D01*
X5306515Y-7762555D02*
X5316039Y-7781603D01*
X5316039Y-7781603D02*
X5325563Y-7819698D01*
X5325563Y-7819698D02*
X5325563Y-7848269D01*
X5325563Y-7848269D02*
X5316039Y-7886365D01*
X5316039Y-7886365D02*
X5306515Y-7905412D01*
X5306515Y-7905412D02*
X5287467Y-7924460D01*
X5287467Y-7924460D02*
X5258896Y-7933984D01*
X5258896Y-7933984D02*
X5211277Y-7933984D01*
X5411277Y-7933984D02*
X5411277Y-7800650D01*
X5411277Y-7838746D02*
X5420801Y-7819698D01*
X5420801Y-7819698D02*
X5430324Y-7810174D01*
X5430324Y-7810174D02*
X5449372Y-7800650D01*
X5449372Y-7800650D02*
X5468420Y-7800650D01*
X5535086Y-7933984D02*
X5535086Y-7800650D01*
X5535086Y-7733984D02*
X5525563Y-7743508D01*
X5525563Y-7743508D02*
X5535086Y-7753031D01*
X5535086Y-7753031D02*
X5544610Y-7743508D01*
X5544610Y-7743508D02*
X5535086Y-7733984D01*
X5535086Y-7733984D02*
X5535086Y-7753031D01*
X5658896Y-7933984D02*
X5639848Y-7924460D01*
X5639848Y-7924460D02*
X5630324Y-7905412D01*
X5630324Y-7905412D02*
X5630324Y-7733984D01*
X5763658Y-7933984D02*
X5744610Y-7924460D01*
X5744610Y-7924460D02*
X5735086Y-7905412D01*
X5735086Y-7905412D02*
X5735086Y-7733984D01*
X5992229Y-7933984D02*
X5992229Y-7733984D01*
X5992229Y-7733984D02*
X6058896Y-7876841D01*
X6058896Y-7876841D02*
X6125562Y-7733984D01*
X6125562Y-7733984D02*
X6125562Y-7933984D01*
X6306515Y-7933984D02*
X6306515Y-7829222D01*
X6306515Y-7829222D02*
X6296991Y-7810174D01*
X6296991Y-7810174D02*
X6277943Y-7800650D01*
X6277943Y-7800650D02*
X6239848Y-7800650D01*
X6239848Y-7800650D02*
X6220801Y-7810174D01*
X6306515Y-7924460D02*
X6287467Y-7933984D01*
X6287467Y-7933984D02*
X6239848Y-7933984D01*
X6239848Y-7933984D02*
X6220801Y-7924460D01*
X6220801Y-7924460D02*
X6211277Y-7905412D01*
X6211277Y-7905412D02*
X6211277Y-7886365D01*
X6211277Y-7886365D02*
X6220801Y-7867317D01*
X6220801Y-7867317D02*
X6239848Y-7857793D01*
X6239848Y-7857793D02*
X6287467Y-7857793D01*
X6287467Y-7857793D02*
X6306515Y-7848269D01*
X6401753Y-7800650D02*
X6401753Y-8000650D01*
X6401753Y-7810174D02*
X6420801Y-7800650D01*
X6420801Y-7800650D02*
X6458896Y-7800650D01*
X6458896Y-7800650D02*
X6477943Y-7810174D01*
X6477943Y-7810174D02*
X6487467Y-7819698D01*
X6487467Y-7819698D02*
X6496991Y-7838746D01*
X6496991Y-7838746D02*
X6496991Y-7895888D01*
X6496991Y-7895888D02*
X6487467Y-7914936D01*
X6487467Y-7914936D02*
X6477943Y-7924460D01*
X6477943Y-7924460D02*
X6458896Y-7933984D01*
X6458896Y-7933984D02*
X6420801Y-7933984D01*
X6420801Y-7933984D02*
X6401753Y-7924460D01*
X6582705Y-7914936D02*
X6592229Y-7924460D01*
X6592229Y-7924460D02*
X6582705Y-7933984D01*
X6582705Y-7933984D02*
X6573182Y-7924460D01*
X6573182Y-7924460D02*
X6582705Y-7914936D01*
X6582705Y-7914936D02*
X6582705Y-7933984D01*
X6582705Y-7810174D02*
X6592229Y-7819698D01*
X6592229Y-7819698D02*
X6582705Y-7829222D01*
X6582705Y-7829222D02*
X6573182Y-7819698D01*
X6573182Y-7819698D02*
X6582705Y-7810174D01*
X6582705Y-7810174D02*
X6582705Y-7829222D01*
M02*
