%TF.GenerationSoftware,KiCad,Pcbnew,9.0.6*%
%TF.CreationDate,2026-02-11T14:43:18-08:00*%
%TF.ProjectId,7L_LED_Flasher,374c5f4c-4544-45f4-966c-61736865722e,rev?*%
%TF.SameCoordinates,Original*%
%TF.FileFunction,Drillmap*%
%TF.FilePolarity,Positive*%
%FSLAX45Y45*%
G04 Gerber Fmt 4.5, Leading zero omitted, Abs format (unit mm)*
G04 Created by KiCad (PCBNEW 9.0.6) date 2026-02-11 14:43:18*
%MOMM*%
%LPD*%
G01*
G04 APERTURE LIST*
%ADD10C,0.050000*%
%ADD11C,0.200000*%
%ADD12C,0.100000*%
%ADD13C,0.101600*%
%ADD14C,0.201000*%
G04 APERTURE END LIST*
D10*
X4953000Y-6858000D02*
X4953000Y-3302000D01*
X5715000Y-7620000D02*
G75*
G02*
X4953000Y-6858000I0J762000D01*
G01*
X5715000Y-2540000D02*
X11684000Y-2540000D01*
X11684000Y-7620000D02*
X5715000Y-7620000D01*
X12446000Y-6858000D02*
G75*
G02*
X11684000Y-7620000I-762000J0D01*
G01*
X12446000Y-3302000D02*
X12446000Y-6858000D01*
X11684000Y-2540000D02*
G75*
G02*
X12446000Y-3302000I0J-762000D01*
G01*
X4953000Y-3302000D02*
G75*
G02*
X5715000Y-2540000I762000J0D01*
G01*
D11*
D12*
X6817360Y-3769360D02*
X6898640Y-3850640D01*
X6898640Y-3769360D02*
X6817360Y-3850640D01*
X6817360Y-4531360D02*
X6898640Y-4612640D01*
X6898640Y-4531360D02*
X6817360Y-4612640D01*
X6817360Y-5547360D02*
X6898640Y-5628640D01*
X6898640Y-5547360D02*
X6817360Y-5628640D01*
X6817360Y-6309360D02*
X6898640Y-6390640D01*
X6898640Y-6309360D02*
X6817360Y-6390640D01*
X7833360Y-3769360D02*
X7914640Y-3850640D01*
X7914640Y-3769360D02*
X7833360Y-3850640D01*
X7833360Y-4531360D02*
X7914640Y-4612640D01*
X7914640Y-4531360D02*
X7833360Y-4612640D01*
X7833360Y-5547360D02*
X7914640Y-5628640D01*
X7914640Y-5547360D02*
X7833360Y-5628640D01*
X7833360Y-6309360D02*
X7914640Y-6390640D01*
X7914640Y-6309360D02*
X7833360Y-6390640D01*
X8345360Y-4535360D02*
X8426640Y-4616640D01*
X8426640Y-4535360D02*
X8345360Y-4616640D01*
X8345360Y-5547360D02*
X8426640Y-5628640D01*
X8426640Y-5547360D02*
X8345360Y-5628640D01*
X8595360Y-4535360D02*
X8676640Y-4616640D01*
X8676640Y-4535360D02*
X8595360Y-4616640D01*
X8595360Y-5547360D02*
X8676640Y-5628640D01*
X8676640Y-5547360D02*
X8595360Y-5628640D01*
X8849360Y-3769360D02*
X8930640Y-3850640D01*
X8930640Y-3769360D02*
X8849360Y-3850640D01*
X8849360Y-6309360D02*
X8930640Y-6390640D01*
X8930640Y-6309360D02*
X8849360Y-6390640D01*
X9103360Y-3769360D02*
X9184640Y-3850640D01*
X9184640Y-3769360D02*
X9103360Y-3850640D01*
X9103360Y-4531360D02*
X9184640Y-4612640D01*
X9184640Y-4531360D02*
X9103360Y-4612640D01*
X9103360Y-5547360D02*
X9184640Y-5628640D01*
X9184640Y-5547360D02*
X9103360Y-5628640D01*
X9103360Y-6309360D02*
X9184640Y-6390640D01*
X9184640Y-6309360D02*
X9103360Y-6390640D01*
X9611360Y-4531360D02*
X9692640Y-4612640D01*
X9692640Y-4531360D02*
X9611360Y-4612640D01*
X9611360Y-5547360D02*
X9692640Y-5628640D01*
X9692640Y-5547360D02*
X9611360Y-5628640D01*
X9865360Y-4531360D02*
X9946640Y-4612640D01*
X9946640Y-4531360D02*
X9865360Y-4612640D01*
X9865360Y-5547360D02*
X9946640Y-5628640D01*
X9946640Y-5547360D02*
X9865360Y-5628640D01*
X10119360Y-4531360D02*
X10200640Y-4612640D01*
X10200640Y-4531360D02*
X10119360Y-4612640D01*
X10119360Y-5547360D02*
X10200640Y-5628640D01*
X10200640Y-5547360D02*
X10119360Y-5628640D01*
X11189450Y-4826000D02*
G75*
G02*
X11100550Y-4826000I-44450J0D01*
G01*
X11100550Y-4826000D02*
G75*
G02*
X11189450Y-4826000I44450J0D01*
G01*
X11189450Y-5080000D02*
G75*
G02*
X11100550Y-5080000I-44450J0D01*
G01*
X11100550Y-5080000D02*
G75*
G02*
X11189450Y-5080000I44450J0D01*
G01*
D13*
X5212000Y-5029200D02*
X5212000Y-5130800D01*
X5161200Y-5080000D02*
X5262800Y-5080000D01*
D12*
X5161200Y-4978400D02*
X5161200Y-5181600D01*
X5262800Y-5181600D02*
G75*
G02*
X5161200Y-5181600I-50800J0D01*
G01*
X5262800Y-5181600D02*
X5262800Y-4978400D01*
X5262800Y-4978400D02*
G75*
G03*
X5161200Y-4978400I-50800J0D01*
G01*
D13*
X5552000Y-5509200D02*
X5552000Y-5610800D01*
X5501200Y-5560000D02*
X5602800Y-5560000D01*
D12*
X5653600Y-5509200D02*
X5450400Y-5509200D01*
X5450400Y-5610800D02*
G75*
G02*
X5450400Y-5509200I0J50800D01*
G01*
X5450400Y-5610800D02*
X5653600Y-5610800D01*
X5653600Y-5610800D02*
G75*
G03*
X5653600Y-5509200I0J50800D01*
G01*
D13*
X5842000Y-5029200D02*
X5842000Y-5130800D01*
X5791200Y-5080000D02*
X5892800Y-5080000D01*
D12*
X5791200Y-4978400D02*
X5791200Y-5181600D01*
X5892800Y-5181600D02*
G75*
G02*
X5791200Y-5181600I-50800J0D01*
G01*
X5892800Y-5181600D02*
X5892800Y-4978400D01*
X5892800Y-4978400D02*
G75*
G03*
X5791200Y-4978400I-50800J0D01*
G01*
D14*
X11724065Y-4643065D02*
X11724065Y-4500935D01*
X11581935Y-4500935D01*
X11581935Y-4643065D01*
X11724065Y-4643065D01*
X11724065Y-5659065D02*
X11724065Y-5516935D01*
X11581935Y-5516935D01*
X11581935Y-5659065D01*
X11724065Y-5659065D01*
D11*
X5211277Y-7933984D02*
X5211277Y-7733984D01*
X5211277Y-7733984D02*
X5258896Y-7733984D01*
X5258896Y-7733984D02*
X5287467Y-7743508D01*
X5287467Y-7743508D02*
X5306515Y-7762555D01*
X5306515Y-7762555D02*
X5316039Y-7781603D01*
X5316039Y-7781603D02*
X5325563Y-7819698D01*
X5325563Y-7819698D02*
X5325563Y-7848269D01*
X5325563Y-7848269D02*
X5316039Y-7886365D01*
X5316039Y-7886365D02*
X5306515Y-7905412D01*
X5306515Y-7905412D02*
X5287467Y-7924460D01*
X5287467Y-7924460D02*
X5258896Y-7933984D01*
X5258896Y-7933984D02*
X5211277Y-7933984D01*
X5411277Y-7933984D02*
X5411277Y-7800650D01*
X5411277Y-7838746D02*
X5420801Y-7819698D01*
X5420801Y-7819698D02*
X5430324Y-7810174D01*
X5430324Y-7810174D02*
X5449372Y-7800650D01*
X5449372Y-7800650D02*
X5468420Y-7800650D01*
X5535086Y-7933984D02*
X5535086Y-7800650D01*
X5535086Y-7733984D02*
X5525563Y-7743508D01*
X5525563Y-7743508D02*
X5535086Y-7753031D01*
X5535086Y-7753031D02*
X5544610Y-7743508D01*
X5544610Y-7743508D02*
X5535086Y-7733984D01*
X5535086Y-7733984D02*
X5535086Y-7753031D01*
X5658896Y-7933984D02*
X5639848Y-7924460D01*
X5639848Y-7924460D02*
X5630324Y-7905412D01*
X5630324Y-7905412D02*
X5630324Y-7733984D01*
X5763658Y-7933984D02*
X5744610Y-7924460D01*
X5744610Y-7924460D02*
X5735086Y-7905412D01*
X5735086Y-7905412D02*
X5735086Y-7733984D01*
X5992229Y-7933984D02*
X5992229Y-7733984D01*
X5992229Y-7733984D02*
X6058896Y-7876841D01*
X6058896Y-7876841D02*
X6125562Y-7733984D01*
X6125562Y-7733984D02*
X6125562Y-7933984D01*
X6306515Y-7933984D02*
X6306515Y-7829222D01*
X6306515Y-7829222D02*
X6296991Y-7810174D01*
X6296991Y-7810174D02*
X6277943Y-7800650D01*
X6277943Y-7800650D02*
X6239848Y-7800650D01*
X6239848Y-7800650D02*
X6220801Y-7810174D01*
X6306515Y-7924460D02*
X6287467Y-7933984D01*
X6287467Y-7933984D02*
X6239848Y-7933984D01*
X6239848Y-7933984D02*
X6220801Y-7924460D01*
X6220801Y-7924460D02*
X6211277Y-7905412D01*
X6211277Y-7905412D02*
X6211277Y-7886365D01*
X6211277Y-7886365D02*
X6220801Y-7867317D01*
X6220801Y-7867317D02*
X6239848Y-7857793D01*
X6239848Y-7857793D02*
X6287467Y-7857793D01*
X6287467Y-7857793D02*
X6306515Y-7848269D01*
X6401753Y-7800650D02*
X6401753Y-8000650D01*
X6401753Y-7810174D02*
X6420801Y-7800650D01*
X6420801Y-7800650D02*
X6458896Y-7800650D01*
X6458896Y-7800650D02*
X6477943Y-7810174D01*
X6477943Y-7810174D02*
X6487467Y-7819698D01*
X6487467Y-7819698D02*
X6496991Y-7838746D01*
X6496991Y-7838746D02*
X6496991Y-7895888D01*
X6496991Y-7895888D02*
X6487467Y-7914936D01*
X6487467Y-7914936D02*
X6477943Y-7924460D01*
X6477943Y-7924460D02*
X6458896Y-7933984D01*
X6458896Y-7933984D02*
X6420801Y-7933984D01*
X6420801Y-7933984D02*
X6401753Y-7924460D01*
X6582705Y-7914936D02*
X6592229Y-7924460D01*
X6592229Y-7924460D02*
X6582705Y-7933984D01*
X6582705Y-7933984D02*
X6573182Y-7924460D01*
X6573182Y-7924460D02*
X6582705Y-7914936D01*
X6582705Y-7914936D02*
X6582705Y-7933984D01*
X6582705Y-7810174D02*
X6592229Y-7819698D01*
X6592229Y-7819698D02*
X6582705Y-7829222D01*
X6582705Y-7829222D02*
X6573182Y-7819698D01*
X6573182Y-7819698D02*
X6582705Y-7810174D01*
X6582705Y-7810174D02*
X6582705Y-7829222D01*
D12*
X4869220Y-8221860D02*
X4950500Y-8303140D01*
X4950500Y-8221860D02*
X4869220Y-8303140D01*
D11*
X5249372Y-8153984D02*
X5268420Y-8153984D01*
X5268420Y-8153984D02*
X5287467Y-8163508D01*
X5287467Y-8163508D02*
X5296991Y-8173031D01*
X5296991Y-8173031D02*
X5306515Y-8192079D01*
X5306515Y-8192079D02*
X5316039Y-8230174D01*
X5316039Y-8230174D02*
X5316039Y-8277793D01*
X5316039Y-8277793D02*
X5306515Y-8315888D01*
X5306515Y-8315888D02*
X5296991Y-8334936D01*
X5296991Y-8334936D02*
X5287467Y-8344460D01*
X5287467Y-8344460D02*
X5268420Y-8353984D01*
X5268420Y-8353984D02*
X5249372Y-8353984D01*
X5249372Y-8353984D02*
X5230324Y-8344460D01*
X5230324Y-8344460D02*
X5220801Y-8334936D01*
X5220801Y-8334936D02*
X5211277Y-8315888D01*
X5211277Y-8315888D02*
X5201753Y-8277793D01*
X5201753Y-8277793D02*
X5201753Y-8230174D01*
X5201753Y-8230174D02*
X5211277Y-8192079D01*
X5211277Y-8192079D02*
X5220801Y-8173031D01*
X5220801Y-8173031D02*
X5230324Y-8163508D01*
X5230324Y-8163508D02*
X5249372Y-8153984D01*
X5401753Y-8334936D02*
X5411277Y-8344460D01*
X5411277Y-8344460D02*
X5401753Y-8353984D01*
X5401753Y-8353984D02*
X5392229Y-8344460D01*
X5392229Y-8344460D02*
X5401753Y-8334936D01*
X5401753Y-8334936D02*
X5401753Y-8353984D01*
X5525563Y-8239698D02*
X5506515Y-8230174D01*
X5506515Y-8230174D02*
X5496991Y-8220650D01*
X5496991Y-8220650D02*
X5487467Y-8201603D01*
X5487467Y-8201603D02*
X5487467Y-8192079D01*
X5487467Y-8192079D02*
X5496991Y-8173031D01*
X5496991Y-8173031D02*
X5506515Y-8163508D01*
X5506515Y-8163508D02*
X5525563Y-8153984D01*
X5525563Y-8153984D02*
X5563658Y-8153984D01*
X5563658Y-8153984D02*
X5582705Y-8163508D01*
X5582705Y-8163508D02*
X5592229Y-8173031D01*
X5592229Y-8173031D02*
X5601753Y-8192079D01*
X5601753Y-8192079D02*
X5601753Y-8201603D01*
X5601753Y-8201603D02*
X5592229Y-8220650D01*
X5592229Y-8220650D02*
X5582705Y-8230174D01*
X5582705Y-8230174D02*
X5563658Y-8239698D01*
X5563658Y-8239698D02*
X5525563Y-8239698D01*
X5525563Y-8239698D02*
X5506515Y-8249222D01*
X5506515Y-8249222D02*
X5496991Y-8258746D01*
X5496991Y-8258746D02*
X5487467Y-8277793D01*
X5487467Y-8277793D02*
X5487467Y-8315888D01*
X5487467Y-8315888D02*
X5496991Y-8334936D01*
X5496991Y-8334936D02*
X5506515Y-8344460D01*
X5506515Y-8344460D02*
X5525563Y-8353984D01*
X5525563Y-8353984D02*
X5563658Y-8353984D01*
X5563658Y-8353984D02*
X5582705Y-8344460D01*
X5582705Y-8344460D02*
X5592229Y-8334936D01*
X5592229Y-8334936D02*
X5601753Y-8315888D01*
X5601753Y-8315888D02*
X5601753Y-8277793D01*
X5601753Y-8277793D02*
X5592229Y-8258746D01*
X5592229Y-8258746D02*
X5582705Y-8249222D01*
X5582705Y-8249222D02*
X5563658Y-8239698D01*
X5792229Y-8353984D02*
X5677943Y-8353984D01*
X5735086Y-8353984D02*
X5735086Y-8153984D01*
X5735086Y-8153984D02*
X5716039Y-8182555D01*
X5716039Y-8182555D02*
X5696991Y-8201603D01*
X5696991Y-8201603D02*
X5677943Y-8211127D01*
X5858896Y-8153984D02*
X5982705Y-8153984D01*
X5982705Y-8153984D02*
X5916039Y-8230174D01*
X5916039Y-8230174D02*
X5944610Y-8230174D01*
X5944610Y-8230174D02*
X5963658Y-8239698D01*
X5963658Y-8239698D02*
X5973182Y-8249222D01*
X5973182Y-8249222D02*
X5982705Y-8268269D01*
X5982705Y-8268269D02*
X5982705Y-8315888D01*
X5982705Y-8315888D02*
X5973182Y-8334936D01*
X5973182Y-8334936D02*
X5963658Y-8344460D01*
X5963658Y-8344460D02*
X5944610Y-8353984D01*
X5944610Y-8353984D02*
X5887467Y-8353984D01*
X5887467Y-8353984D02*
X5868420Y-8344460D01*
X5868420Y-8344460D02*
X5858896Y-8334936D01*
X6068420Y-8353984D02*
X6068420Y-8220650D01*
X6068420Y-8239698D02*
X6077943Y-8230174D01*
X6077943Y-8230174D02*
X6096991Y-8220650D01*
X6096991Y-8220650D02*
X6125563Y-8220650D01*
X6125563Y-8220650D02*
X6144610Y-8230174D01*
X6144610Y-8230174D02*
X6154134Y-8249222D01*
X6154134Y-8249222D02*
X6154134Y-8353984D01*
X6154134Y-8249222D02*
X6163658Y-8230174D01*
X6163658Y-8230174D02*
X6182705Y-8220650D01*
X6182705Y-8220650D02*
X6211277Y-8220650D01*
X6211277Y-8220650D02*
X6230324Y-8230174D01*
X6230324Y-8230174D02*
X6239848Y-8249222D01*
X6239848Y-8249222D02*
X6239848Y-8353984D01*
X6335086Y-8353984D02*
X6335086Y-8220650D01*
X6335086Y-8239698D02*
X6344610Y-8230174D01*
X6344610Y-8230174D02*
X6363658Y-8220650D01*
X6363658Y-8220650D02*
X6392229Y-8220650D01*
X6392229Y-8220650D02*
X6411277Y-8230174D01*
X6411277Y-8230174D02*
X6420801Y-8249222D01*
X6420801Y-8249222D02*
X6420801Y-8353984D01*
X6420801Y-8249222D02*
X6430324Y-8230174D01*
X6430324Y-8230174D02*
X6449372Y-8220650D01*
X6449372Y-8220650D02*
X6477943Y-8220650D01*
X6477943Y-8220650D02*
X6496991Y-8230174D01*
X6496991Y-8230174D02*
X6506515Y-8249222D01*
X6506515Y-8249222D02*
X6506515Y-8353984D01*
X6896991Y-8144460D02*
X6725563Y-8401603D01*
X7154134Y-8153984D02*
X7173182Y-8153984D01*
X7173182Y-8153984D02*
X7192229Y-8163508D01*
X7192229Y-8163508D02*
X7201753Y-8173031D01*
X7201753Y-8173031D02*
X7211277Y-8192079D01*
X7211277Y-8192079D02*
X7220801Y-8230174D01*
X7220801Y-8230174D02*
X7220801Y-8277793D01*
X7220801Y-8277793D02*
X7211277Y-8315888D01*
X7211277Y-8315888D02*
X7201753Y-8334936D01*
X7201753Y-8334936D02*
X7192229Y-8344460D01*
X7192229Y-8344460D02*
X7173182Y-8353984D01*
X7173182Y-8353984D02*
X7154134Y-8353984D01*
X7154134Y-8353984D02*
X7135086Y-8344460D01*
X7135086Y-8344460D02*
X7125563Y-8334936D01*
X7125563Y-8334936D02*
X7116039Y-8315888D01*
X7116039Y-8315888D02*
X7106515Y-8277793D01*
X7106515Y-8277793D02*
X7106515Y-8230174D01*
X7106515Y-8230174D02*
X7116039Y-8192079D01*
X7116039Y-8192079D02*
X7125563Y-8173031D01*
X7125563Y-8173031D02*
X7135086Y-8163508D01*
X7135086Y-8163508D02*
X7154134Y-8153984D01*
X7306515Y-8334936D02*
X7316039Y-8344460D01*
X7316039Y-8344460D02*
X7306515Y-8353984D01*
X7306515Y-8353984D02*
X7296991Y-8344460D01*
X7296991Y-8344460D02*
X7306515Y-8334936D01*
X7306515Y-8334936D02*
X7306515Y-8353984D01*
X7439848Y-8153984D02*
X7458896Y-8153984D01*
X7458896Y-8153984D02*
X7477944Y-8163508D01*
X7477944Y-8163508D02*
X7487467Y-8173031D01*
X7487467Y-8173031D02*
X7496991Y-8192079D01*
X7496991Y-8192079D02*
X7506515Y-8230174D01*
X7506515Y-8230174D02*
X7506515Y-8277793D01*
X7506515Y-8277793D02*
X7496991Y-8315888D01*
X7496991Y-8315888D02*
X7487467Y-8334936D01*
X7487467Y-8334936D02*
X7477944Y-8344460D01*
X7477944Y-8344460D02*
X7458896Y-8353984D01*
X7458896Y-8353984D02*
X7439848Y-8353984D01*
X7439848Y-8353984D02*
X7420801Y-8344460D01*
X7420801Y-8344460D02*
X7411277Y-8334936D01*
X7411277Y-8334936D02*
X7401753Y-8315888D01*
X7401753Y-8315888D02*
X7392229Y-8277793D01*
X7392229Y-8277793D02*
X7392229Y-8230174D01*
X7392229Y-8230174D02*
X7401753Y-8192079D01*
X7401753Y-8192079D02*
X7411277Y-8173031D01*
X7411277Y-8173031D02*
X7420801Y-8163508D01*
X7420801Y-8163508D02*
X7439848Y-8153984D01*
X7573182Y-8153984D02*
X7696991Y-8153984D01*
X7696991Y-8153984D02*
X7630325Y-8230174D01*
X7630325Y-8230174D02*
X7658896Y-8230174D01*
X7658896Y-8230174D02*
X7677944Y-8239698D01*
X7677944Y-8239698D02*
X7687467Y-8249222D01*
X7687467Y-8249222D02*
X7696991Y-8268269D01*
X7696991Y-8268269D02*
X7696991Y-8315888D01*
X7696991Y-8315888D02*
X7687467Y-8334936D01*
X7687467Y-8334936D02*
X7677944Y-8344460D01*
X7677944Y-8344460D02*
X7658896Y-8353984D01*
X7658896Y-8353984D02*
X7601753Y-8353984D01*
X7601753Y-8353984D02*
X7582706Y-8344460D01*
X7582706Y-8344460D02*
X7573182Y-8334936D01*
X7773182Y-8173031D02*
X7782706Y-8163508D01*
X7782706Y-8163508D02*
X7801753Y-8153984D01*
X7801753Y-8153984D02*
X7849372Y-8153984D01*
X7849372Y-8153984D02*
X7868420Y-8163508D01*
X7868420Y-8163508D02*
X7877944Y-8173031D01*
X7877944Y-8173031D02*
X7887467Y-8192079D01*
X7887467Y-8192079D02*
X7887467Y-8211127D01*
X7887467Y-8211127D02*
X7877944Y-8239698D01*
X7877944Y-8239698D02*
X7763658Y-8353984D01*
X7763658Y-8353984D02*
X7887467Y-8353984D01*
X8011277Y-8153984D02*
X8030325Y-8153984D01*
X8030325Y-8153984D02*
X8049372Y-8163508D01*
X8049372Y-8163508D02*
X8058896Y-8173031D01*
X8058896Y-8173031D02*
X8068420Y-8192079D01*
X8068420Y-8192079D02*
X8077944Y-8230174D01*
X8077944Y-8230174D02*
X8077944Y-8277793D01*
X8077944Y-8277793D02*
X8068420Y-8315888D01*
X8068420Y-8315888D02*
X8058896Y-8334936D01*
X8058896Y-8334936D02*
X8049372Y-8344460D01*
X8049372Y-8344460D02*
X8030325Y-8353984D01*
X8030325Y-8353984D02*
X8011277Y-8353984D01*
X8011277Y-8353984D02*
X7992229Y-8344460D01*
X7992229Y-8344460D02*
X7982706Y-8334936D01*
X7982706Y-8334936D02*
X7973182Y-8315888D01*
X7973182Y-8315888D02*
X7963658Y-8277793D01*
X7963658Y-8277793D02*
X7963658Y-8230174D01*
X7963658Y-8230174D02*
X7973182Y-8192079D01*
X7973182Y-8192079D02*
X7982706Y-8173031D01*
X7982706Y-8173031D02*
X7992229Y-8163508D01*
X7992229Y-8163508D02*
X8011277Y-8153984D01*
X8154134Y-8153984D02*
X8154134Y-8192079D01*
X8230325Y-8153984D02*
X8230325Y-8192079D01*
X8525563Y-8430174D02*
X8516039Y-8420650D01*
X8516039Y-8420650D02*
X8496991Y-8392079D01*
X8496991Y-8392079D02*
X8487468Y-8373031D01*
X8487468Y-8373031D02*
X8477944Y-8344460D01*
X8477944Y-8344460D02*
X8468420Y-8296841D01*
X8468420Y-8296841D02*
X8468420Y-8258746D01*
X8468420Y-8258746D02*
X8477944Y-8211127D01*
X8477944Y-8211127D02*
X8487468Y-8182555D01*
X8487468Y-8182555D02*
X8496991Y-8163508D01*
X8496991Y-8163508D02*
X8516039Y-8134936D01*
X8516039Y-8134936D02*
X8525563Y-8125412D01*
X8592230Y-8173031D02*
X8601753Y-8163508D01*
X8601753Y-8163508D02*
X8620801Y-8153984D01*
X8620801Y-8153984D02*
X8668420Y-8153984D01*
X8668420Y-8153984D02*
X8687468Y-8163508D01*
X8687468Y-8163508D02*
X8696991Y-8173031D01*
X8696991Y-8173031D02*
X8706515Y-8192079D01*
X8706515Y-8192079D02*
X8706515Y-8211127D01*
X8706515Y-8211127D02*
X8696991Y-8239698D01*
X8696991Y-8239698D02*
X8582706Y-8353984D01*
X8582706Y-8353984D02*
X8706515Y-8353984D01*
X8877944Y-8220650D02*
X8877944Y-8353984D01*
X8830325Y-8144460D02*
X8782706Y-8287317D01*
X8782706Y-8287317D02*
X8906515Y-8287317D01*
X9135087Y-8353984D02*
X9135087Y-8153984D01*
X9220801Y-8353984D02*
X9220801Y-8249222D01*
X9220801Y-8249222D02*
X9211277Y-8230174D01*
X9211277Y-8230174D02*
X9192230Y-8220650D01*
X9192230Y-8220650D02*
X9163658Y-8220650D01*
X9163658Y-8220650D02*
X9144611Y-8230174D01*
X9144611Y-8230174D02*
X9135087Y-8239698D01*
X9344611Y-8353984D02*
X9325563Y-8344460D01*
X9325563Y-8344460D02*
X9316039Y-8334936D01*
X9316039Y-8334936D02*
X9306515Y-8315888D01*
X9306515Y-8315888D02*
X9306515Y-8258746D01*
X9306515Y-8258746D02*
X9316039Y-8239698D01*
X9316039Y-8239698D02*
X9325563Y-8230174D01*
X9325563Y-8230174D02*
X9344611Y-8220650D01*
X9344611Y-8220650D02*
X9373182Y-8220650D01*
X9373182Y-8220650D02*
X9392230Y-8230174D01*
X9392230Y-8230174D02*
X9401753Y-8239698D01*
X9401753Y-8239698D02*
X9411277Y-8258746D01*
X9411277Y-8258746D02*
X9411277Y-8315888D01*
X9411277Y-8315888D02*
X9401753Y-8334936D01*
X9401753Y-8334936D02*
X9392230Y-8344460D01*
X9392230Y-8344460D02*
X9373182Y-8353984D01*
X9373182Y-8353984D02*
X9344611Y-8353984D01*
X9525563Y-8353984D02*
X9506515Y-8344460D01*
X9506515Y-8344460D02*
X9496992Y-8325412D01*
X9496992Y-8325412D02*
X9496992Y-8153984D01*
X9677944Y-8344460D02*
X9658896Y-8353984D01*
X9658896Y-8353984D02*
X9620801Y-8353984D01*
X9620801Y-8353984D02*
X9601753Y-8344460D01*
X9601753Y-8344460D02*
X9592230Y-8325412D01*
X9592230Y-8325412D02*
X9592230Y-8249222D01*
X9592230Y-8249222D02*
X9601753Y-8230174D01*
X9601753Y-8230174D02*
X9620801Y-8220650D01*
X9620801Y-8220650D02*
X9658896Y-8220650D01*
X9658896Y-8220650D02*
X9677944Y-8230174D01*
X9677944Y-8230174D02*
X9687468Y-8249222D01*
X9687468Y-8249222D02*
X9687468Y-8268269D01*
X9687468Y-8268269D02*
X9592230Y-8287317D01*
X9763658Y-8344460D02*
X9782706Y-8353984D01*
X9782706Y-8353984D02*
X9820801Y-8353984D01*
X9820801Y-8353984D02*
X9839849Y-8344460D01*
X9839849Y-8344460D02*
X9849373Y-8325412D01*
X9849373Y-8325412D02*
X9849373Y-8315888D01*
X9849373Y-8315888D02*
X9839849Y-8296841D01*
X9839849Y-8296841D02*
X9820801Y-8287317D01*
X9820801Y-8287317D02*
X9792230Y-8287317D01*
X9792230Y-8287317D02*
X9773182Y-8277793D01*
X9773182Y-8277793D02*
X9763658Y-8258746D01*
X9763658Y-8258746D02*
X9763658Y-8249222D01*
X9763658Y-8249222D02*
X9773182Y-8230174D01*
X9773182Y-8230174D02*
X9792230Y-8220650D01*
X9792230Y-8220650D02*
X9820801Y-8220650D01*
X9820801Y-8220650D02*
X9839849Y-8230174D01*
X9916039Y-8430174D02*
X9925563Y-8420650D01*
X9925563Y-8420650D02*
X9944611Y-8392079D01*
X9944611Y-8392079D02*
X9954134Y-8373031D01*
X9954134Y-8373031D02*
X9963658Y-8344460D01*
X9963658Y-8344460D02*
X9973182Y-8296841D01*
X9973182Y-8296841D02*
X9973182Y-8258746D01*
X9973182Y-8258746D02*
X9963658Y-8211127D01*
X9963658Y-8211127D02*
X9954134Y-8182555D01*
X9954134Y-8182555D02*
X9944611Y-8163508D01*
X9944611Y-8163508D02*
X9925563Y-8134936D01*
X9925563Y-8134936D02*
X9916039Y-8125412D01*
D12*
X4950500Y-8526500D02*
G75*
G02*
X4861600Y-8526500I-44450J0D01*
G01*
X4861600Y-8526500D02*
G75*
G02*
X4950500Y-8526500I44450J0D01*
G01*
D11*
X5249372Y-8417984D02*
X5268420Y-8417984D01*
X5268420Y-8417984D02*
X5287467Y-8427508D01*
X5287467Y-8427508D02*
X5296991Y-8437031D01*
X5296991Y-8437031D02*
X5306515Y-8456079D01*
X5306515Y-8456079D02*
X5316039Y-8494174D01*
X5316039Y-8494174D02*
X5316039Y-8541793D01*
X5316039Y-8541793D02*
X5306515Y-8579889D01*
X5306515Y-8579889D02*
X5296991Y-8598936D01*
X5296991Y-8598936D02*
X5287467Y-8608460D01*
X5287467Y-8608460D02*
X5268420Y-8617984D01*
X5268420Y-8617984D02*
X5249372Y-8617984D01*
X5249372Y-8617984D02*
X5230324Y-8608460D01*
X5230324Y-8608460D02*
X5220801Y-8598936D01*
X5220801Y-8598936D02*
X5211277Y-8579889D01*
X5211277Y-8579889D02*
X5201753Y-8541793D01*
X5201753Y-8541793D02*
X5201753Y-8494174D01*
X5201753Y-8494174D02*
X5211277Y-8456079D01*
X5211277Y-8456079D02*
X5220801Y-8437031D01*
X5220801Y-8437031D02*
X5230324Y-8427508D01*
X5230324Y-8427508D02*
X5249372Y-8417984D01*
X5401753Y-8598936D02*
X5411277Y-8608460D01*
X5411277Y-8608460D02*
X5401753Y-8617984D01*
X5401753Y-8617984D02*
X5392229Y-8608460D01*
X5392229Y-8608460D02*
X5401753Y-8598936D01*
X5401753Y-8598936D02*
X5401753Y-8617984D01*
X5525563Y-8503698D02*
X5506515Y-8494174D01*
X5506515Y-8494174D02*
X5496991Y-8484650D01*
X5496991Y-8484650D02*
X5487467Y-8465603D01*
X5487467Y-8465603D02*
X5487467Y-8456079D01*
X5487467Y-8456079D02*
X5496991Y-8437031D01*
X5496991Y-8437031D02*
X5506515Y-8427508D01*
X5506515Y-8427508D02*
X5525563Y-8417984D01*
X5525563Y-8417984D02*
X5563658Y-8417984D01*
X5563658Y-8417984D02*
X5582705Y-8427508D01*
X5582705Y-8427508D02*
X5592229Y-8437031D01*
X5592229Y-8437031D02*
X5601753Y-8456079D01*
X5601753Y-8456079D02*
X5601753Y-8465603D01*
X5601753Y-8465603D02*
X5592229Y-8484650D01*
X5592229Y-8484650D02*
X5582705Y-8494174D01*
X5582705Y-8494174D02*
X5563658Y-8503698D01*
X5563658Y-8503698D02*
X5525563Y-8503698D01*
X5525563Y-8503698D02*
X5506515Y-8513222D01*
X5506515Y-8513222D02*
X5496991Y-8522746D01*
X5496991Y-8522746D02*
X5487467Y-8541793D01*
X5487467Y-8541793D02*
X5487467Y-8579889D01*
X5487467Y-8579889D02*
X5496991Y-8598936D01*
X5496991Y-8598936D02*
X5506515Y-8608460D01*
X5506515Y-8608460D02*
X5525563Y-8617984D01*
X5525563Y-8617984D02*
X5563658Y-8617984D01*
X5563658Y-8617984D02*
X5582705Y-8608460D01*
X5582705Y-8608460D02*
X5592229Y-8598936D01*
X5592229Y-8598936D02*
X5601753Y-8579889D01*
X5601753Y-8579889D02*
X5601753Y-8541793D01*
X5601753Y-8541793D02*
X5592229Y-8522746D01*
X5592229Y-8522746D02*
X5582705Y-8513222D01*
X5582705Y-8513222D02*
X5563658Y-8503698D01*
X5716039Y-8503698D02*
X5696991Y-8494174D01*
X5696991Y-8494174D02*
X5687467Y-8484650D01*
X5687467Y-8484650D02*
X5677943Y-8465603D01*
X5677943Y-8465603D02*
X5677943Y-8456079D01*
X5677943Y-8456079D02*
X5687467Y-8437031D01*
X5687467Y-8437031D02*
X5696991Y-8427508D01*
X5696991Y-8427508D02*
X5716039Y-8417984D01*
X5716039Y-8417984D02*
X5754134Y-8417984D01*
X5754134Y-8417984D02*
X5773182Y-8427508D01*
X5773182Y-8427508D02*
X5782705Y-8437031D01*
X5782705Y-8437031D02*
X5792229Y-8456079D01*
X5792229Y-8456079D02*
X5792229Y-8465603D01*
X5792229Y-8465603D02*
X5782705Y-8484650D01*
X5782705Y-8484650D02*
X5773182Y-8494174D01*
X5773182Y-8494174D02*
X5754134Y-8503698D01*
X5754134Y-8503698D02*
X5716039Y-8503698D01*
X5716039Y-8503698D02*
X5696991Y-8513222D01*
X5696991Y-8513222D02*
X5687467Y-8522746D01*
X5687467Y-8522746D02*
X5677943Y-8541793D01*
X5677943Y-8541793D02*
X5677943Y-8579889D01*
X5677943Y-8579889D02*
X5687467Y-8598936D01*
X5687467Y-8598936D02*
X5696991Y-8608460D01*
X5696991Y-8608460D02*
X5716039Y-8617984D01*
X5716039Y-8617984D02*
X5754134Y-8617984D01*
X5754134Y-8617984D02*
X5773182Y-8608460D01*
X5773182Y-8608460D02*
X5782705Y-8598936D01*
X5782705Y-8598936D02*
X5792229Y-8579889D01*
X5792229Y-8579889D02*
X5792229Y-8541793D01*
X5792229Y-8541793D02*
X5782705Y-8522746D01*
X5782705Y-8522746D02*
X5773182Y-8513222D01*
X5773182Y-8513222D02*
X5754134Y-8503698D01*
X5887467Y-8617984D02*
X5925562Y-8617984D01*
X5925562Y-8617984D02*
X5944610Y-8608460D01*
X5944610Y-8608460D02*
X5954134Y-8598936D01*
X5954134Y-8598936D02*
X5973182Y-8570365D01*
X5973182Y-8570365D02*
X5982705Y-8532270D01*
X5982705Y-8532270D02*
X5982705Y-8456079D01*
X5982705Y-8456079D02*
X5973182Y-8437031D01*
X5973182Y-8437031D02*
X5963658Y-8427508D01*
X5963658Y-8427508D02*
X5944610Y-8417984D01*
X5944610Y-8417984D02*
X5906515Y-8417984D01*
X5906515Y-8417984D02*
X5887467Y-8427508D01*
X5887467Y-8427508D02*
X5877943Y-8437031D01*
X5877943Y-8437031D02*
X5868420Y-8456079D01*
X5868420Y-8456079D02*
X5868420Y-8503698D01*
X5868420Y-8503698D02*
X5877943Y-8522746D01*
X5877943Y-8522746D02*
X5887467Y-8532270D01*
X5887467Y-8532270D02*
X5906515Y-8541793D01*
X5906515Y-8541793D02*
X5944610Y-8541793D01*
X5944610Y-8541793D02*
X5963658Y-8532270D01*
X5963658Y-8532270D02*
X5973182Y-8522746D01*
X5973182Y-8522746D02*
X5982705Y-8503698D01*
X6068420Y-8617984D02*
X6068420Y-8484650D01*
X6068420Y-8503698D02*
X6077943Y-8494174D01*
X6077943Y-8494174D02*
X6096991Y-8484650D01*
X6096991Y-8484650D02*
X6125563Y-8484650D01*
X6125563Y-8484650D02*
X6144610Y-8494174D01*
X6144610Y-8494174D02*
X6154134Y-8513222D01*
X6154134Y-8513222D02*
X6154134Y-8617984D01*
X6154134Y-8513222D02*
X6163658Y-8494174D01*
X6163658Y-8494174D02*
X6182705Y-8484650D01*
X6182705Y-8484650D02*
X6211277Y-8484650D01*
X6211277Y-8484650D02*
X6230324Y-8494174D01*
X6230324Y-8494174D02*
X6239848Y-8513222D01*
X6239848Y-8513222D02*
X6239848Y-8617984D01*
X6335086Y-8617984D02*
X6335086Y-8484650D01*
X6335086Y-8503698D02*
X6344610Y-8494174D01*
X6344610Y-8494174D02*
X6363658Y-8484650D01*
X6363658Y-8484650D02*
X6392229Y-8484650D01*
X6392229Y-8484650D02*
X6411277Y-8494174D01*
X6411277Y-8494174D02*
X6420801Y-8513222D01*
X6420801Y-8513222D02*
X6420801Y-8617984D01*
X6420801Y-8513222D02*
X6430324Y-8494174D01*
X6430324Y-8494174D02*
X6449372Y-8484650D01*
X6449372Y-8484650D02*
X6477943Y-8484650D01*
X6477943Y-8484650D02*
X6496991Y-8494174D01*
X6496991Y-8494174D02*
X6506515Y-8513222D01*
X6506515Y-8513222D02*
X6506515Y-8617984D01*
X6896991Y-8408460D02*
X6725563Y-8665603D01*
X7154134Y-8417984D02*
X7173182Y-8417984D01*
X7173182Y-8417984D02*
X7192229Y-8427508D01*
X7192229Y-8427508D02*
X7201753Y-8437031D01*
X7201753Y-8437031D02*
X7211277Y-8456079D01*
X7211277Y-8456079D02*
X7220801Y-8494174D01*
X7220801Y-8494174D02*
X7220801Y-8541793D01*
X7220801Y-8541793D02*
X7211277Y-8579889D01*
X7211277Y-8579889D02*
X7201753Y-8598936D01*
X7201753Y-8598936D02*
X7192229Y-8608460D01*
X7192229Y-8608460D02*
X7173182Y-8617984D01*
X7173182Y-8617984D02*
X7154134Y-8617984D01*
X7154134Y-8617984D02*
X7135086Y-8608460D01*
X7135086Y-8608460D02*
X7125563Y-8598936D01*
X7125563Y-8598936D02*
X7116039Y-8579889D01*
X7116039Y-8579889D02*
X7106515Y-8541793D01*
X7106515Y-8541793D02*
X7106515Y-8494174D01*
X7106515Y-8494174D02*
X7116039Y-8456079D01*
X7116039Y-8456079D02*
X7125563Y-8437031D01*
X7125563Y-8437031D02*
X7135086Y-8427508D01*
X7135086Y-8427508D02*
X7154134Y-8417984D01*
X7306515Y-8598936D02*
X7316039Y-8608460D01*
X7316039Y-8608460D02*
X7306515Y-8617984D01*
X7306515Y-8617984D02*
X7296991Y-8608460D01*
X7296991Y-8608460D02*
X7306515Y-8598936D01*
X7306515Y-8598936D02*
X7306515Y-8617984D01*
X7439848Y-8417984D02*
X7458896Y-8417984D01*
X7458896Y-8417984D02*
X7477944Y-8427508D01*
X7477944Y-8427508D02*
X7487467Y-8437031D01*
X7487467Y-8437031D02*
X7496991Y-8456079D01*
X7496991Y-8456079D02*
X7506515Y-8494174D01*
X7506515Y-8494174D02*
X7506515Y-8541793D01*
X7506515Y-8541793D02*
X7496991Y-8579889D01*
X7496991Y-8579889D02*
X7487467Y-8598936D01*
X7487467Y-8598936D02*
X7477944Y-8608460D01*
X7477944Y-8608460D02*
X7458896Y-8617984D01*
X7458896Y-8617984D02*
X7439848Y-8617984D01*
X7439848Y-8617984D02*
X7420801Y-8608460D01*
X7420801Y-8608460D02*
X7411277Y-8598936D01*
X7411277Y-8598936D02*
X7401753Y-8579889D01*
X7401753Y-8579889D02*
X7392229Y-8541793D01*
X7392229Y-8541793D02*
X7392229Y-8494174D01*
X7392229Y-8494174D02*
X7401753Y-8456079D01*
X7401753Y-8456079D02*
X7411277Y-8437031D01*
X7411277Y-8437031D02*
X7420801Y-8427508D01*
X7420801Y-8427508D02*
X7439848Y-8417984D01*
X7573182Y-8417984D02*
X7696991Y-8417984D01*
X7696991Y-8417984D02*
X7630325Y-8494174D01*
X7630325Y-8494174D02*
X7658896Y-8494174D01*
X7658896Y-8494174D02*
X7677944Y-8503698D01*
X7677944Y-8503698D02*
X7687467Y-8513222D01*
X7687467Y-8513222D02*
X7696991Y-8532270D01*
X7696991Y-8532270D02*
X7696991Y-8579889D01*
X7696991Y-8579889D02*
X7687467Y-8598936D01*
X7687467Y-8598936D02*
X7677944Y-8608460D01*
X7677944Y-8608460D02*
X7658896Y-8617984D01*
X7658896Y-8617984D02*
X7601753Y-8617984D01*
X7601753Y-8617984D02*
X7582706Y-8608460D01*
X7582706Y-8608460D02*
X7573182Y-8598936D01*
X7877944Y-8417984D02*
X7782706Y-8417984D01*
X7782706Y-8417984D02*
X7773182Y-8513222D01*
X7773182Y-8513222D02*
X7782706Y-8503698D01*
X7782706Y-8503698D02*
X7801753Y-8494174D01*
X7801753Y-8494174D02*
X7849372Y-8494174D01*
X7849372Y-8494174D02*
X7868420Y-8503698D01*
X7868420Y-8503698D02*
X7877944Y-8513222D01*
X7877944Y-8513222D02*
X7887467Y-8532270D01*
X7887467Y-8532270D02*
X7887467Y-8579889D01*
X7887467Y-8579889D02*
X7877944Y-8598936D01*
X7877944Y-8598936D02*
X7868420Y-8608460D01*
X7868420Y-8608460D02*
X7849372Y-8617984D01*
X7849372Y-8617984D02*
X7801753Y-8617984D01*
X7801753Y-8617984D02*
X7782706Y-8608460D01*
X7782706Y-8608460D02*
X7773182Y-8598936D01*
X8011277Y-8417984D02*
X8030325Y-8417984D01*
X8030325Y-8417984D02*
X8049372Y-8427508D01*
X8049372Y-8427508D02*
X8058896Y-8437031D01*
X8058896Y-8437031D02*
X8068420Y-8456079D01*
X8068420Y-8456079D02*
X8077944Y-8494174D01*
X8077944Y-8494174D02*
X8077944Y-8541793D01*
X8077944Y-8541793D02*
X8068420Y-8579889D01*
X8068420Y-8579889D02*
X8058896Y-8598936D01*
X8058896Y-8598936D02*
X8049372Y-8608460D01*
X8049372Y-8608460D02*
X8030325Y-8617984D01*
X8030325Y-8617984D02*
X8011277Y-8617984D01*
X8011277Y-8617984D02*
X7992229Y-8608460D01*
X7992229Y-8608460D02*
X7982706Y-8598936D01*
X7982706Y-8598936D02*
X7973182Y-8579889D01*
X7973182Y-8579889D02*
X7963658Y-8541793D01*
X7963658Y-8541793D02*
X7963658Y-8494174D01*
X7963658Y-8494174D02*
X7973182Y-8456079D01*
X7973182Y-8456079D02*
X7982706Y-8437031D01*
X7982706Y-8437031D02*
X7992229Y-8427508D01*
X7992229Y-8427508D02*
X8011277Y-8417984D01*
X8154134Y-8417984D02*
X8154134Y-8456079D01*
X8230325Y-8417984D02*
X8230325Y-8456079D01*
X8525563Y-8694174D02*
X8516039Y-8684650D01*
X8516039Y-8684650D02*
X8496991Y-8656079D01*
X8496991Y-8656079D02*
X8487468Y-8637031D01*
X8487468Y-8637031D02*
X8477944Y-8608460D01*
X8477944Y-8608460D02*
X8468420Y-8560841D01*
X8468420Y-8560841D02*
X8468420Y-8522746D01*
X8468420Y-8522746D02*
X8477944Y-8475127D01*
X8477944Y-8475127D02*
X8487468Y-8446555D01*
X8487468Y-8446555D02*
X8496991Y-8427508D01*
X8496991Y-8427508D02*
X8516039Y-8398936D01*
X8516039Y-8398936D02*
X8525563Y-8389412D01*
X8592230Y-8437031D02*
X8601753Y-8427508D01*
X8601753Y-8427508D02*
X8620801Y-8417984D01*
X8620801Y-8417984D02*
X8668420Y-8417984D01*
X8668420Y-8417984D02*
X8687468Y-8427508D01*
X8687468Y-8427508D02*
X8696991Y-8437031D01*
X8696991Y-8437031D02*
X8706515Y-8456079D01*
X8706515Y-8456079D02*
X8706515Y-8475127D01*
X8706515Y-8475127D02*
X8696991Y-8503698D01*
X8696991Y-8503698D02*
X8582706Y-8617984D01*
X8582706Y-8617984D02*
X8706515Y-8617984D01*
X8944611Y-8617984D02*
X8944611Y-8417984D01*
X9030325Y-8617984D02*
X9030325Y-8513222D01*
X9030325Y-8513222D02*
X9020801Y-8494174D01*
X9020801Y-8494174D02*
X9001753Y-8484650D01*
X9001753Y-8484650D02*
X8973182Y-8484650D01*
X8973182Y-8484650D02*
X8954134Y-8494174D01*
X8954134Y-8494174D02*
X8944611Y-8503698D01*
X9154134Y-8617984D02*
X9135087Y-8608460D01*
X9135087Y-8608460D02*
X9125563Y-8598936D01*
X9125563Y-8598936D02*
X9116039Y-8579889D01*
X9116039Y-8579889D02*
X9116039Y-8522746D01*
X9116039Y-8522746D02*
X9125563Y-8503698D01*
X9125563Y-8503698D02*
X9135087Y-8494174D01*
X9135087Y-8494174D02*
X9154134Y-8484650D01*
X9154134Y-8484650D02*
X9182706Y-8484650D01*
X9182706Y-8484650D02*
X9201753Y-8494174D01*
X9201753Y-8494174D02*
X9211277Y-8503698D01*
X9211277Y-8503698D02*
X9220801Y-8522746D01*
X9220801Y-8522746D02*
X9220801Y-8579889D01*
X9220801Y-8579889D02*
X9211277Y-8598936D01*
X9211277Y-8598936D02*
X9201753Y-8608460D01*
X9201753Y-8608460D02*
X9182706Y-8617984D01*
X9182706Y-8617984D02*
X9154134Y-8617984D01*
X9335087Y-8617984D02*
X9316039Y-8608460D01*
X9316039Y-8608460D02*
X9306515Y-8589412D01*
X9306515Y-8589412D02*
X9306515Y-8417984D01*
X9487468Y-8608460D02*
X9468420Y-8617984D01*
X9468420Y-8617984D02*
X9430325Y-8617984D01*
X9430325Y-8617984D02*
X9411277Y-8608460D01*
X9411277Y-8608460D02*
X9401753Y-8589412D01*
X9401753Y-8589412D02*
X9401753Y-8513222D01*
X9401753Y-8513222D02*
X9411277Y-8494174D01*
X9411277Y-8494174D02*
X9430325Y-8484650D01*
X9430325Y-8484650D02*
X9468420Y-8484650D01*
X9468420Y-8484650D02*
X9487468Y-8494174D01*
X9487468Y-8494174D02*
X9496992Y-8513222D01*
X9496992Y-8513222D02*
X9496992Y-8532270D01*
X9496992Y-8532270D02*
X9401753Y-8551317D01*
X9573182Y-8608460D02*
X9592230Y-8617984D01*
X9592230Y-8617984D02*
X9630325Y-8617984D01*
X9630325Y-8617984D02*
X9649373Y-8608460D01*
X9649373Y-8608460D02*
X9658896Y-8589412D01*
X9658896Y-8589412D02*
X9658896Y-8579889D01*
X9658896Y-8579889D02*
X9649373Y-8560841D01*
X9649373Y-8560841D02*
X9630325Y-8551317D01*
X9630325Y-8551317D02*
X9601753Y-8551317D01*
X9601753Y-8551317D02*
X9582706Y-8541793D01*
X9582706Y-8541793D02*
X9573182Y-8522746D01*
X9573182Y-8522746D02*
X9573182Y-8513222D01*
X9573182Y-8513222D02*
X9582706Y-8494174D01*
X9582706Y-8494174D02*
X9601753Y-8484650D01*
X9601753Y-8484650D02*
X9630325Y-8484650D01*
X9630325Y-8484650D02*
X9649373Y-8494174D01*
X9725563Y-8694174D02*
X9735087Y-8684650D01*
X9735087Y-8684650D02*
X9754134Y-8656079D01*
X9754134Y-8656079D02*
X9763658Y-8637031D01*
X9763658Y-8637031D02*
X9773182Y-8608460D01*
X9773182Y-8608460D02*
X9782706Y-8560841D01*
X9782706Y-8560841D02*
X9782706Y-8522746D01*
X9782706Y-8522746D02*
X9773182Y-8475127D01*
X9773182Y-8475127D02*
X9763658Y-8446555D01*
X9763658Y-8446555D02*
X9754134Y-8427508D01*
X9754134Y-8427508D02*
X9735087Y-8398936D01*
X9735087Y-8398936D02*
X9725563Y-8389412D01*
D13*
X4899700Y-8739700D02*
X4899700Y-8841300D01*
X4848900Y-8790500D02*
X4950500Y-8790500D01*
D11*
X5316039Y-8881984D02*
X5201753Y-8881984D01*
X5258896Y-8881984D02*
X5258896Y-8681984D01*
X5258896Y-8681984D02*
X5239848Y-8710555D01*
X5239848Y-8710555D02*
X5220801Y-8729603D01*
X5220801Y-8729603D02*
X5201753Y-8739127D01*
X5401753Y-8862936D02*
X5411277Y-8872460D01*
X5411277Y-8872460D02*
X5401753Y-8881984D01*
X5401753Y-8881984D02*
X5392229Y-8872460D01*
X5392229Y-8872460D02*
X5401753Y-8862936D01*
X5401753Y-8862936D02*
X5401753Y-8881984D01*
X5535086Y-8681984D02*
X5554134Y-8681984D01*
X5554134Y-8681984D02*
X5573182Y-8691508D01*
X5573182Y-8691508D02*
X5582705Y-8701031D01*
X5582705Y-8701031D02*
X5592229Y-8720079D01*
X5592229Y-8720079D02*
X5601753Y-8758174D01*
X5601753Y-8758174D02*
X5601753Y-8805793D01*
X5601753Y-8805793D02*
X5592229Y-8843889D01*
X5592229Y-8843889D02*
X5582705Y-8862936D01*
X5582705Y-8862936D02*
X5573182Y-8872460D01*
X5573182Y-8872460D02*
X5554134Y-8881984D01*
X5554134Y-8881984D02*
X5535086Y-8881984D01*
X5535086Y-8881984D02*
X5516039Y-8872460D01*
X5516039Y-8872460D02*
X5506515Y-8862936D01*
X5506515Y-8862936D02*
X5496991Y-8843889D01*
X5496991Y-8843889D02*
X5487467Y-8805793D01*
X5487467Y-8805793D02*
X5487467Y-8758174D01*
X5487467Y-8758174D02*
X5496991Y-8720079D01*
X5496991Y-8720079D02*
X5506515Y-8701031D01*
X5506515Y-8701031D02*
X5516039Y-8691508D01*
X5516039Y-8691508D02*
X5535086Y-8681984D01*
X5792229Y-8881984D02*
X5677943Y-8881984D01*
X5735086Y-8881984D02*
X5735086Y-8681984D01*
X5735086Y-8681984D02*
X5716039Y-8710555D01*
X5716039Y-8710555D02*
X5696991Y-8729603D01*
X5696991Y-8729603D02*
X5677943Y-8739127D01*
X5963658Y-8681984D02*
X5925562Y-8681984D01*
X5925562Y-8681984D02*
X5906515Y-8691508D01*
X5906515Y-8691508D02*
X5896991Y-8701031D01*
X5896991Y-8701031D02*
X5877943Y-8729603D01*
X5877943Y-8729603D02*
X5868420Y-8767698D01*
X5868420Y-8767698D02*
X5868420Y-8843889D01*
X5868420Y-8843889D02*
X5877943Y-8862936D01*
X5877943Y-8862936D02*
X5887467Y-8872460D01*
X5887467Y-8872460D02*
X5906515Y-8881984D01*
X5906515Y-8881984D02*
X5944610Y-8881984D01*
X5944610Y-8881984D02*
X5963658Y-8872460D01*
X5963658Y-8872460D02*
X5973182Y-8862936D01*
X5973182Y-8862936D02*
X5982705Y-8843889D01*
X5982705Y-8843889D02*
X5982705Y-8796270D01*
X5982705Y-8796270D02*
X5973182Y-8777222D01*
X5973182Y-8777222D02*
X5963658Y-8767698D01*
X5963658Y-8767698D02*
X5944610Y-8758174D01*
X5944610Y-8758174D02*
X5906515Y-8758174D01*
X5906515Y-8758174D02*
X5887467Y-8767698D01*
X5887467Y-8767698D02*
X5877943Y-8777222D01*
X5877943Y-8777222D02*
X5868420Y-8796270D01*
X6068420Y-8881984D02*
X6068420Y-8748650D01*
X6068420Y-8767698D02*
X6077943Y-8758174D01*
X6077943Y-8758174D02*
X6096991Y-8748650D01*
X6096991Y-8748650D02*
X6125563Y-8748650D01*
X6125563Y-8748650D02*
X6144610Y-8758174D01*
X6144610Y-8758174D02*
X6154134Y-8777222D01*
X6154134Y-8777222D02*
X6154134Y-8881984D01*
X6154134Y-8777222D02*
X6163658Y-8758174D01*
X6163658Y-8758174D02*
X6182705Y-8748650D01*
X6182705Y-8748650D02*
X6211277Y-8748650D01*
X6211277Y-8748650D02*
X6230324Y-8758174D01*
X6230324Y-8758174D02*
X6239848Y-8777222D01*
X6239848Y-8777222D02*
X6239848Y-8881984D01*
X6335086Y-8881984D02*
X6335086Y-8748650D01*
X6335086Y-8767698D02*
X6344610Y-8758174D01*
X6344610Y-8758174D02*
X6363658Y-8748650D01*
X6363658Y-8748650D02*
X6392229Y-8748650D01*
X6392229Y-8748650D02*
X6411277Y-8758174D01*
X6411277Y-8758174D02*
X6420801Y-8777222D01*
X6420801Y-8777222D02*
X6420801Y-8881984D01*
X6420801Y-8777222D02*
X6430324Y-8758174D01*
X6430324Y-8758174D02*
X6449372Y-8748650D01*
X6449372Y-8748650D02*
X6477943Y-8748650D01*
X6477943Y-8748650D02*
X6496991Y-8758174D01*
X6496991Y-8758174D02*
X6506515Y-8777222D01*
X6506515Y-8777222D02*
X6506515Y-8881984D01*
X6896991Y-8672460D02*
X6725563Y-8929603D01*
X7154134Y-8681984D02*
X7173182Y-8681984D01*
X7173182Y-8681984D02*
X7192229Y-8691508D01*
X7192229Y-8691508D02*
X7201753Y-8701031D01*
X7201753Y-8701031D02*
X7211277Y-8720079D01*
X7211277Y-8720079D02*
X7220801Y-8758174D01*
X7220801Y-8758174D02*
X7220801Y-8805793D01*
X7220801Y-8805793D02*
X7211277Y-8843889D01*
X7211277Y-8843889D02*
X7201753Y-8862936D01*
X7201753Y-8862936D02*
X7192229Y-8872460D01*
X7192229Y-8872460D02*
X7173182Y-8881984D01*
X7173182Y-8881984D02*
X7154134Y-8881984D01*
X7154134Y-8881984D02*
X7135086Y-8872460D01*
X7135086Y-8872460D02*
X7125563Y-8862936D01*
X7125563Y-8862936D02*
X7116039Y-8843889D01*
X7116039Y-8843889D02*
X7106515Y-8805793D01*
X7106515Y-8805793D02*
X7106515Y-8758174D01*
X7106515Y-8758174D02*
X7116039Y-8720079D01*
X7116039Y-8720079D02*
X7125563Y-8701031D01*
X7125563Y-8701031D02*
X7135086Y-8691508D01*
X7135086Y-8691508D02*
X7154134Y-8681984D01*
X7306515Y-8862936D02*
X7316039Y-8872460D01*
X7316039Y-8872460D02*
X7306515Y-8881984D01*
X7306515Y-8881984D02*
X7296991Y-8872460D01*
X7296991Y-8872460D02*
X7306515Y-8862936D01*
X7306515Y-8862936D02*
X7306515Y-8881984D01*
X7439848Y-8681984D02*
X7458896Y-8681984D01*
X7458896Y-8681984D02*
X7477944Y-8691508D01*
X7477944Y-8691508D02*
X7487467Y-8701031D01*
X7487467Y-8701031D02*
X7496991Y-8720079D01*
X7496991Y-8720079D02*
X7506515Y-8758174D01*
X7506515Y-8758174D02*
X7506515Y-8805793D01*
X7506515Y-8805793D02*
X7496991Y-8843889D01*
X7496991Y-8843889D02*
X7487467Y-8862936D01*
X7487467Y-8862936D02*
X7477944Y-8872460D01*
X7477944Y-8872460D02*
X7458896Y-8881984D01*
X7458896Y-8881984D02*
X7439848Y-8881984D01*
X7439848Y-8881984D02*
X7420801Y-8872460D01*
X7420801Y-8872460D02*
X7411277Y-8862936D01*
X7411277Y-8862936D02*
X7401753Y-8843889D01*
X7401753Y-8843889D02*
X7392229Y-8805793D01*
X7392229Y-8805793D02*
X7392229Y-8758174D01*
X7392229Y-8758174D02*
X7401753Y-8720079D01*
X7401753Y-8720079D02*
X7411277Y-8701031D01*
X7411277Y-8701031D02*
X7420801Y-8691508D01*
X7420801Y-8691508D02*
X7439848Y-8681984D01*
X7677944Y-8748650D02*
X7677944Y-8881984D01*
X7630325Y-8672460D02*
X7582706Y-8815317D01*
X7582706Y-8815317D02*
X7706515Y-8815317D01*
X7820801Y-8681984D02*
X7839848Y-8681984D01*
X7839848Y-8681984D02*
X7858896Y-8691508D01*
X7858896Y-8691508D02*
X7868420Y-8701031D01*
X7868420Y-8701031D02*
X7877944Y-8720079D01*
X7877944Y-8720079D02*
X7887467Y-8758174D01*
X7887467Y-8758174D02*
X7887467Y-8805793D01*
X7887467Y-8805793D02*
X7877944Y-8843889D01*
X7877944Y-8843889D02*
X7868420Y-8862936D01*
X7868420Y-8862936D02*
X7858896Y-8872460D01*
X7858896Y-8872460D02*
X7839848Y-8881984D01*
X7839848Y-8881984D02*
X7820801Y-8881984D01*
X7820801Y-8881984D02*
X7801753Y-8872460D01*
X7801753Y-8872460D02*
X7792229Y-8862936D01*
X7792229Y-8862936D02*
X7782706Y-8843889D01*
X7782706Y-8843889D02*
X7773182Y-8805793D01*
X7773182Y-8805793D02*
X7773182Y-8758174D01*
X7773182Y-8758174D02*
X7782706Y-8720079D01*
X7782706Y-8720079D02*
X7792229Y-8701031D01*
X7792229Y-8701031D02*
X7801753Y-8691508D01*
X7801753Y-8691508D02*
X7820801Y-8681984D01*
X8011277Y-8681984D02*
X8030325Y-8681984D01*
X8030325Y-8681984D02*
X8049372Y-8691508D01*
X8049372Y-8691508D02*
X8058896Y-8701031D01*
X8058896Y-8701031D02*
X8068420Y-8720079D01*
X8068420Y-8720079D02*
X8077944Y-8758174D01*
X8077944Y-8758174D02*
X8077944Y-8805793D01*
X8077944Y-8805793D02*
X8068420Y-8843889D01*
X8068420Y-8843889D02*
X8058896Y-8862936D01*
X8058896Y-8862936D02*
X8049372Y-8872460D01*
X8049372Y-8872460D02*
X8030325Y-8881984D01*
X8030325Y-8881984D02*
X8011277Y-8881984D01*
X8011277Y-8881984D02*
X7992229Y-8872460D01*
X7992229Y-8872460D02*
X7982706Y-8862936D01*
X7982706Y-8862936D02*
X7973182Y-8843889D01*
X7973182Y-8843889D02*
X7963658Y-8805793D01*
X7963658Y-8805793D02*
X7963658Y-8758174D01*
X7963658Y-8758174D02*
X7973182Y-8720079D01*
X7973182Y-8720079D02*
X7982706Y-8701031D01*
X7982706Y-8701031D02*
X7992229Y-8691508D01*
X7992229Y-8691508D02*
X8011277Y-8681984D01*
X8154134Y-8681984D02*
X8154134Y-8720079D01*
X8230325Y-8681984D02*
X8230325Y-8720079D01*
X8525563Y-8958174D02*
X8516039Y-8948650D01*
X8516039Y-8948650D02*
X8496991Y-8920079D01*
X8496991Y-8920079D02*
X8487468Y-8901031D01*
X8487468Y-8901031D02*
X8477944Y-8872460D01*
X8477944Y-8872460D02*
X8468420Y-8824841D01*
X8468420Y-8824841D02*
X8468420Y-8786746D01*
X8468420Y-8786746D02*
X8477944Y-8739127D01*
X8477944Y-8739127D02*
X8487468Y-8710555D01*
X8487468Y-8710555D02*
X8496991Y-8691508D01*
X8496991Y-8691508D02*
X8516039Y-8662936D01*
X8516039Y-8662936D02*
X8525563Y-8653412D01*
X8639849Y-8681984D02*
X8658896Y-8681984D01*
X8658896Y-8681984D02*
X8677944Y-8691508D01*
X8677944Y-8691508D02*
X8687468Y-8701031D01*
X8687468Y-8701031D02*
X8696991Y-8720079D01*
X8696991Y-8720079D02*
X8706515Y-8758174D01*
X8706515Y-8758174D02*
X8706515Y-8805793D01*
X8706515Y-8805793D02*
X8696991Y-8843889D01*
X8696991Y-8843889D02*
X8687468Y-8862936D01*
X8687468Y-8862936D02*
X8677944Y-8872460D01*
X8677944Y-8872460D02*
X8658896Y-8881984D01*
X8658896Y-8881984D02*
X8639849Y-8881984D01*
X8639849Y-8881984D02*
X8620801Y-8872460D01*
X8620801Y-8872460D02*
X8611277Y-8862936D01*
X8611277Y-8862936D02*
X8601753Y-8843889D01*
X8601753Y-8843889D02*
X8592230Y-8805793D01*
X8592230Y-8805793D02*
X8592230Y-8758174D01*
X8592230Y-8758174D02*
X8601753Y-8720079D01*
X8601753Y-8720079D02*
X8611277Y-8701031D01*
X8611277Y-8701031D02*
X8620801Y-8691508D01*
X8620801Y-8691508D02*
X8639849Y-8681984D01*
X8944611Y-8881984D02*
X8944611Y-8681984D01*
X9030325Y-8881984D02*
X9030325Y-8777222D01*
X9030325Y-8777222D02*
X9020801Y-8758174D01*
X9020801Y-8758174D02*
X9001753Y-8748650D01*
X9001753Y-8748650D02*
X8973182Y-8748650D01*
X8973182Y-8748650D02*
X8954134Y-8758174D01*
X8954134Y-8758174D02*
X8944611Y-8767698D01*
X9154134Y-8881984D02*
X9135087Y-8872460D01*
X9135087Y-8872460D02*
X9125563Y-8862936D01*
X9125563Y-8862936D02*
X9116039Y-8843889D01*
X9116039Y-8843889D02*
X9116039Y-8786746D01*
X9116039Y-8786746D02*
X9125563Y-8767698D01*
X9125563Y-8767698D02*
X9135087Y-8758174D01*
X9135087Y-8758174D02*
X9154134Y-8748650D01*
X9154134Y-8748650D02*
X9182706Y-8748650D01*
X9182706Y-8748650D02*
X9201753Y-8758174D01*
X9201753Y-8758174D02*
X9211277Y-8767698D01*
X9211277Y-8767698D02*
X9220801Y-8786746D01*
X9220801Y-8786746D02*
X9220801Y-8843889D01*
X9220801Y-8843889D02*
X9211277Y-8862936D01*
X9211277Y-8862936D02*
X9201753Y-8872460D01*
X9201753Y-8872460D02*
X9182706Y-8881984D01*
X9182706Y-8881984D02*
X9154134Y-8881984D01*
X9335087Y-8881984D02*
X9316039Y-8872460D01*
X9316039Y-8872460D02*
X9306515Y-8853412D01*
X9306515Y-8853412D02*
X9306515Y-8681984D01*
X9487468Y-8872460D02*
X9468420Y-8881984D01*
X9468420Y-8881984D02*
X9430325Y-8881984D01*
X9430325Y-8881984D02*
X9411277Y-8872460D01*
X9411277Y-8872460D02*
X9401753Y-8853412D01*
X9401753Y-8853412D02*
X9401753Y-8777222D01*
X9401753Y-8777222D02*
X9411277Y-8758174D01*
X9411277Y-8758174D02*
X9430325Y-8748650D01*
X9430325Y-8748650D02*
X9468420Y-8748650D01*
X9468420Y-8748650D02*
X9487468Y-8758174D01*
X9487468Y-8758174D02*
X9496992Y-8777222D01*
X9496992Y-8777222D02*
X9496992Y-8796270D01*
X9496992Y-8796270D02*
X9401753Y-8815317D01*
X9573182Y-8872460D02*
X9592230Y-8881984D01*
X9592230Y-8881984D02*
X9630325Y-8881984D01*
X9630325Y-8881984D02*
X9649373Y-8872460D01*
X9649373Y-8872460D02*
X9658896Y-8853412D01*
X9658896Y-8853412D02*
X9658896Y-8843889D01*
X9658896Y-8843889D02*
X9649373Y-8824841D01*
X9649373Y-8824841D02*
X9630325Y-8815317D01*
X9630325Y-8815317D02*
X9601753Y-8815317D01*
X9601753Y-8815317D02*
X9582706Y-8805793D01*
X9582706Y-8805793D02*
X9573182Y-8786746D01*
X9573182Y-8786746D02*
X9573182Y-8777222D01*
X9573182Y-8777222D02*
X9582706Y-8758174D01*
X9582706Y-8758174D02*
X9601753Y-8748650D01*
X9601753Y-8748650D02*
X9630325Y-8748650D01*
X9630325Y-8748650D02*
X9649373Y-8758174D01*
X9896992Y-8805793D02*
X10049373Y-8805793D01*
X9973182Y-8881984D02*
X9973182Y-8729603D01*
X10277944Y-8681984D02*
X10401754Y-8681984D01*
X10401754Y-8681984D02*
X10335087Y-8758174D01*
X10335087Y-8758174D02*
X10363658Y-8758174D01*
X10363658Y-8758174D02*
X10382706Y-8767698D01*
X10382706Y-8767698D02*
X10392230Y-8777222D01*
X10392230Y-8777222D02*
X10401754Y-8796270D01*
X10401754Y-8796270D02*
X10401754Y-8843889D01*
X10401754Y-8843889D02*
X10392230Y-8862936D01*
X10392230Y-8862936D02*
X10382706Y-8872460D01*
X10382706Y-8872460D02*
X10363658Y-8881984D01*
X10363658Y-8881984D02*
X10306515Y-8881984D01*
X10306515Y-8881984D02*
X10287468Y-8872460D01*
X10287468Y-8872460D02*
X10277944Y-8862936D01*
X10630325Y-8872460D02*
X10649373Y-8881984D01*
X10649373Y-8881984D02*
X10687468Y-8881984D01*
X10687468Y-8881984D02*
X10706516Y-8872460D01*
X10706516Y-8872460D02*
X10716039Y-8853412D01*
X10716039Y-8853412D02*
X10716039Y-8843889D01*
X10716039Y-8843889D02*
X10706516Y-8824841D01*
X10706516Y-8824841D02*
X10687468Y-8815317D01*
X10687468Y-8815317D02*
X10658896Y-8815317D01*
X10658896Y-8815317D02*
X10639849Y-8805793D01*
X10639849Y-8805793D02*
X10630325Y-8786746D01*
X10630325Y-8786746D02*
X10630325Y-8777222D01*
X10630325Y-8777222D02*
X10639849Y-8758174D01*
X10639849Y-8758174D02*
X10658896Y-8748650D01*
X10658896Y-8748650D02*
X10687468Y-8748650D01*
X10687468Y-8748650D02*
X10706516Y-8758174D01*
X10830325Y-8881984D02*
X10811277Y-8872460D01*
X10811277Y-8872460D02*
X10801754Y-8853412D01*
X10801754Y-8853412D02*
X10801754Y-8681984D01*
X10935087Y-8881984D02*
X10916039Y-8872460D01*
X10916039Y-8872460D02*
X10906516Y-8862936D01*
X10906516Y-8862936D02*
X10896992Y-8843889D01*
X10896992Y-8843889D02*
X10896992Y-8786746D01*
X10896992Y-8786746D02*
X10906516Y-8767698D01*
X10906516Y-8767698D02*
X10916039Y-8758174D01*
X10916039Y-8758174D02*
X10935087Y-8748650D01*
X10935087Y-8748650D02*
X10963658Y-8748650D01*
X10963658Y-8748650D02*
X10982706Y-8758174D01*
X10982706Y-8758174D02*
X10992230Y-8767698D01*
X10992230Y-8767698D02*
X11001754Y-8786746D01*
X11001754Y-8786746D02*
X11001754Y-8843889D01*
X11001754Y-8843889D02*
X10992230Y-8862936D01*
X10992230Y-8862936D02*
X10982706Y-8872460D01*
X10982706Y-8872460D02*
X10963658Y-8881984D01*
X10963658Y-8881984D02*
X10935087Y-8881984D01*
X11058897Y-8748650D02*
X11135087Y-8748650D01*
X11087468Y-8681984D02*
X11087468Y-8853412D01*
X11087468Y-8853412D02*
X11096992Y-8872460D01*
X11096992Y-8872460D02*
X11116039Y-8881984D01*
X11116039Y-8881984D02*
X11135087Y-8881984D01*
X11192230Y-8872460D02*
X11211277Y-8881984D01*
X11211277Y-8881984D02*
X11249373Y-8881984D01*
X11249373Y-8881984D02*
X11268420Y-8872460D01*
X11268420Y-8872460D02*
X11277944Y-8853412D01*
X11277944Y-8853412D02*
X11277944Y-8843889D01*
X11277944Y-8843889D02*
X11268420Y-8824841D01*
X11268420Y-8824841D02*
X11249373Y-8815317D01*
X11249373Y-8815317D02*
X11220801Y-8815317D01*
X11220801Y-8815317D02*
X11201754Y-8805793D01*
X11201754Y-8805793D02*
X11192230Y-8786746D01*
X11192230Y-8786746D02*
X11192230Y-8777222D01*
X11192230Y-8777222D02*
X11201754Y-8758174D01*
X11201754Y-8758174D02*
X11220801Y-8748650D01*
X11220801Y-8748650D02*
X11249373Y-8748650D01*
X11249373Y-8748650D02*
X11268420Y-8758174D01*
X11344611Y-8958174D02*
X11354135Y-8948650D01*
X11354135Y-8948650D02*
X11373182Y-8920079D01*
X11373182Y-8920079D02*
X11382706Y-8901031D01*
X11382706Y-8901031D02*
X11392230Y-8872460D01*
X11392230Y-8872460D02*
X11401754Y-8824841D01*
X11401754Y-8824841D02*
X11401754Y-8786746D01*
X11401754Y-8786746D02*
X11392230Y-8739127D01*
X11392230Y-8739127D02*
X11382706Y-8710555D01*
X11382706Y-8710555D02*
X11373182Y-8691508D01*
X11373182Y-8691508D02*
X11354135Y-8662936D01*
X11354135Y-8662936D02*
X11344611Y-8653412D01*
X4921211Y-9125211D02*
X4921211Y-8983789D01*
X4779789Y-8983789D01*
X4779789Y-9125211D01*
X4921211Y-9125211D01*
X5201753Y-8965031D02*
X5211277Y-8955508D01*
X5211277Y-8955508D02*
X5230324Y-8945984D01*
X5230324Y-8945984D02*
X5277944Y-8945984D01*
X5277944Y-8945984D02*
X5296991Y-8955508D01*
X5296991Y-8955508D02*
X5306515Y-8965031D01*
X5306515Y-8965031D02*
X5316039Y-8984079D01*
X5316039Y-8984079D02*
X5316039Y-9003127D01*
X5316039Y-9003127D02*
X5306515Y-9031698D01*
X5306515Y-9031698D02*
X5192229Y-9145984D01*
X5192229Y-9145984D02*
X5316039Y-9145984D01*
X5401753Y-9126936D02*
X5411277Y-9136460D01*
X5411277Y-9136460D02*
X5401753Y-9145984D01*
X5401753Y-9145984D02*
X5392229Y-9136460D01*
X5392229Y-9136460D02*
X5401753Y-9126936D01*
X5401753Y-9126936D02*
X5401753Y-9145984D01*
X5535086Y-8945984D02*
X5554134Y-8945984D01*
X5554134Y-8945984D02*
X5573182Y-8955508D01*
X5573182Y-8955508D02*
X5582705Y-8965031D01*
X5582705Y-8965031D02*
X5592229Y-8984079D01*
X5592229Y-8984079D02*
X5601753Y-9022174D01*
X5601753Y-9022174D02*
X5601753Y-9069793D01*
X5601753Y-9069793D02*
X5592229Y-9107889D01*
X5592229Y-9107889D02*
X5582705Y-9126936D01*
X5582705Y-9126936D02*
X5573182Y-9136460D01*
X5573182Y-9136460D02*
X5554134Y-9145984D01*
X5554134Y-9145984D02*
X5535086Y-9145984D01*
X5535086Y-9145984D02*
X5516039Y-9136460D01*
X5516039Y-9136460D02*
X5506515Y-9126936D01*
X5506515Y-9126936D02*
X5496991Y-9107889D01*
X5496991Y-9107889D02*
X5487467Y-9069793D01*
X5487467Y-9069793D02*
X5487467Y-9022174D01*
X5487467Y-9022174D02*
X5496991Y-8984079D01*
X5496991Y-8984079D02*
X5506515Y-8965031D01*
X5506515Y-8965031D02*
X5516039Y-8955508D01*
X5516039Y-8955508D02*
X5535086Y-8945984D01*
X5792229Y-9145984D02*
X5677943Y-9145984D01*
X5735086Y-9145984D02*
X5735086Y-8945984D01*
X5735086Y-8945984D02*
X5716039Y-8974555D01*
X5716039Y-8974555D02*
X5696991Y-8993603D01*
X5696991Y-8993603D02*
X5677943Y-9003127D01*
X5916039Y-8945984D02*
X5935086Y-8945984D01*
X5935086Y-8945984D02*
X5954134Y-8955508D01*
X5954134Y-8955508D02*
X5963658Y-8965031D01*
X5963658Y-8965031D02*
X5973182Y-8984079D01*
X5973182Y-8984079D02*
X5982705Y-9022174D01*
X5982705Y-9022174D02*
X5982705Y-9069793D01*
X5982705Y-9069793D02*
X5973182Y-9107889D01*
X5973182Y-9107889D02*
X5963658Y-9126936D01*
X5963658Y-9126936D02*
X5954134Y-9136460D01*
X5954134Y-9136460D02*
X5935086Y-9145984D01*
X5935086Y-9145984D02*
X5916039Y-9145984D01*
X5916039Y-9145984D02*
X5896991Y-9136460D01*
X5896991Y-9136460D02*
X5887467Y-9126936D01*
X5887467Y-9126936D02*
X5877943Y-9107889D01*
X5877943Y-9107889D02*
X5868420Y-9069793D01*
X5868420Y-9069793D02*
X5868420Y-9022174D01*
X5868420Y-9022174D02*
X5877943Y-8984079D01*
X5877943Y-8984079D02*
X5887467Y-8965031D01*
X5887467Y-8965031D02*
X5896991Y-8955508D01*
X5896991Y-8955508D02*
X5916039Y-8945984D01*
X6068420Y-9145984D02*
X6068420Y-9012650D01*
X6068420Y-9031698D02*
X6077943Y-9022174D01*
X6077943Y-9022174D02*
X6096991Y-9012650D01*
X6096991Y-9012650D02*
X6125563Y-9012650D01*
X6125563Y-9012650D02*
X6144610Y-9022174D01*
X6144610Y-9022174D02*
X6154134Y-9041222D01*
X6154134Y-9041222D02*
X6154134Y-9145984D01*
X6154134Y-9041222D02*
X6163658Y-9022174D01*
X6163658Y-9022174D02*
X6182705Y-9012650D01*
X6182705Y-9012650D02*
X6211277Y-9012650D01*
X6211277Y-9012650D02*
X6230324Y-9022174D01*
X6230324Y-9022174D02*
X6239848Y-9041222D01*
X6239848Y-9041222D02*
X6239848Y-9145984D01*
X6335086Y-9145984D02*
X6335086Y-9012650D01*
X6335086Y-9031698D02*
X6344610Y-9022174D01*
X6344610Y-9022174D02*
X6363658Y-9012650D01*
X6363658Y-9012650D02*
X6392229Y-9012650D01*
X6392229Y-9012650D02*
X6411277Y-9022174D01*
X6411277Y-9022174D02*
X6420801Y-9041222D01*
X6420801Y-9041222D02*
X6420801Y-9145984D01*
X6420801Y-9041222D02*
X6430324Y-9022174D01*
X6430324Y-9022174D02*
X6449372Y-9012650D01*
X6449372Y-9012650D02*
X6477943Y-9012650D01*
X6477943Y-9012650D02*
X6496991Y-9022174D01*
X6496991Y-9022174D02*
X6506515Y-9041222D01*
X6506515Y-9041222D02*
X6506515Y-9145984D01*
X6896991Y-8936460D02*
X6725563Y-9193603D01*
X7154134Y-8945984D02*
X7173182Y-8945984D01*
X7173182Y-8945984D02*
X7192229Y-8955508D01*
X7192229Y-8955508D02*
X7201753Y-8965031D01*
X7201753Y-8965031D02*
X7211277Y-8984079D01*
X7211277Y-8984079D02*
X7220801Y-9022174D01*
X7220801Y-9022174D02*
X7220801Y-9069793D01*
X7220801Y-9069793D02*
X7211277Y-9107889D01*
X7211277Y-9107889D02*
X7201753Y-9126936D01*
X7201753Y-9126936D02*
X7192229Y-9136460D01*
X7192229Y-9136460D02*
X7173182Y-9145984D01*
X7173182Y-9145984D02*
X7154134Y-9145984D01*
X7154134Y-9145984D02*
X7135086Y-9136460D01*
X7135086Y-9136460D02*
X7125563Y-9126936D01*
X7125563Y-9126936D02*
X7116039Y-9107889D01*
X7116039Y-9107889D02*
X7106515Y-9069793D01*
X7106515Y-9069793D02*
X7106515Y-9022174D01*
X7106515Y-9022174D02*
X7116039Y-8984079D01*
X7116039Y-8984079D02*
X7125563Y-8965031D01*
X7125563Y-8965031D02*
X7135086Y-8955508D01*
X7135086Y-8955508D02*
X7154134Y-8945984D01*
X7306515Y-9126936D02*
X7316039Y-9136460D01*
X7316039Y-9136460D02*
X7306515Y-9145984D01*
X7306515Y-9145984D02*
X7296991Y-9136460D01*
X7296991Y-9136460D02*
X7306515Y-9126936D01*
X7306515Y-9126936D02*
X7306515Y-9145984D01*
X7439848Y-8945984D02*
X7458896Y-8945984D01*
X7458896Y-8945984D02*
X7477944Y-8955508D01*
X7477944Y-8955508D02*
X7487467Y-8965031D01*
X7487467Y-8965031D02*
X7496991Y-8984079D01*
X7496991Y-8984079D02*
X7506515Y-9022174D01*
X7506515Y-9022174D02*
X7506515Y-9069793D01*
X7506515Y-9069793D02*
X7496991Y-9107889D01*
X7496991Y-9107889D02*
X7487467Y-9126936D01*
X7487467Y-9126936D02*
X7477944Y-9136460D01*
X7477944Y-9136460D02*
X7458896Y-9145984D01*
X7458896Y-9145984D02*
X7439848Y-9145984D01*
X7439848Y-9145984D02*
X7420801Y-9136460D01*
X7420801Y-9136460D02*
X7411277Y-9126936D01*
X7411277Y-9126936D02*
X7401753Y-9107889D01*
X7401753Y-9107889D02*
X7392229Y-9069793D01*
X7392229Y-9069793D02*
X7392229Y-9022174D01*
X7392229Y-9022174D02*
X7401753Y-8984079D01*
X7401753Y-8984079D02*
X7411277Y-8965031D01*
X7411277Y-8965031D02*
X7420801Y-8955508D01*
X7420801Y-8955508D02*
X7439848Y-8945984D01*
X7573182Y-8945984D02*
X7706515Y-8945984D01*
X7706515Y-8945984D02*
X7620801Y-9145984D01*
X7792229Y-9145984D02*
X7830325Y-9145984D01*
X7830325Y-9145984D02*
X7849372Y-9136460D01*
X7849372Y-9136460D02*
X7858896Y-9126936D01*
X7858896Y-9126936D02*
X7877944Y-9098365D01*
X7877944Y-9098365D02*
X7887467Y-9060270D01*
X7887467Y-9060270D02*
X7887467Y-8984079D01*
X7887467Y-8984079D02*
X7877944Y-8965031D01*
X7877944Y-8965031D02*
X7868420Y-8955508D01*
X7868420Y-8955508D02*
X7849372Y-8945984D01*
X7849372Y-8945984D02*
X7811277Y-8945984D01*
X7811277Y-8945984D02*
X7792229Y-8955508D01*
X7792229Y-8955508D02*
X7782706Y-8965031D01*
X7782706Y-8965031D02*
X7773182Y-8984079D01*
X7773182Y-8984079D02*
X7773182Y-9031698D01*
X7773182Y-9031698D02*
X7782706Y-9050746D01*
X7782706Y-9050746D02*
X7792229Y-9060270D01*
X7792229Y-9060270D02*
X7811277Y-9069793D01*
X7811277Y-9069793D02*
X7849372Y-9069793D01*
X7849372Y-9069793D02*
X7868420Y-9060270D01*
X7868420Y-9060270D02*
X7877944Y-9050746D01*
X7877944Y-9050746D02*
X7887467Y-9031698D01*
X8077944Y-9145984D02*
X7963658Y-9145984D01*
X8020801Y-9145984D02*
X8020801Y-8945984D01*
X8020801Y-8945984D02*
X8001753Y-8974555D01*
X8001753Y-8974555D02*
X7982706Y-8993603D01*
X7982706Y-8993603D02*
X7963658Y-9003127D01*
X8154134Y-8945984D02*
X8154134Y-8984079D01*
X8230325Y-8945984D02*
X8230325Y-8984079D01*
X8525563Y-9222174D02*
X8516039Y-9212650D01*
X8516039Y-9212650D02*
X8496991Y-9184079D01*
X8496991Y-9184079D02*
X8487468Y-9165031D01*
X8487468Y-9165031D02*
X8477944Y-9136460D01*
X8477944Y-9136460D02*
X8468420Y-9088841D01*
X8468420Y-9088841D02*
X8468420Y-9050746D01*
X8468420Y-9050746D02*
X8477944Y-9003127D01*
X8477944Y-9003127D02*
X8487468Y-8974555D01*
X8487468Y-8974555D02*
X8496991Y-8955508D01*
X8496991Y-8955508D02*
X8516039Y-8926936D01*
X8516039Y-8926936D02*
X8525563Y-8917412D01*
X8592230Y-8965031D02*
X8601753Y-8955508D01*
X8601753Y-8955508D02*
X8620801Y-8945984D01*
X8620801Y-8945984D02*
X8668420Y-8945984D01*
X8668420Y-8945984D02*
X8687468Y-8955508D01*
X8687468Y-8955508D02*
X8696991Y-8965031D01*
X8696991Y-8965031D02*
X8706515Y-8984079D01*
X8706515Y-8984079D02*
X8706515Y-9003127D01*
X8706515Y-9003127D02*
X8696991Y-9031698D01*
X8696991Y-9031698D02*
X8582706Y-9145984D01*
X8582706Y-9145984D02*
X8706515Y-9145984D01*
X8944611Y-9145984D02*
X8944611Y-8945984D01*
X9030325Y-9145984D02*
X9030325Y-9041222D01*
X9030325Y-9041222D02*
X9020801Y-9022174D01*
X9020801Y-9022174D02*
X9001753Y-9012650D01*
X9001753Y-9012650D02*
X8973182Y-9012650D01*
X8973182Y-9012650D02*
X8954134Y-9022174D01*
X8954134Y-9022174D02*
X8944611Y-9031698D01*
X9154134Y-9145984D02*
X9135087Y-9136460D01*
X9135087Y-9136460D02*
X9125563Y-9126936D01*
X9125563Y-9126936D02*
X9116039Y-9107889D01*
X9116039Y-9107889D02*
X9116039Y-9050746D01*
X9116039Y-9050746D02*
X9125563Y-9031698D01*
X9125563Y-9031698D02*
X9135087Y-9022174D01*
X9135087Y-9022174D02*
X9154134Y-9012650D01*
X9154134Y-9012650D02*
X9182706Y-9012650D01*
X9182706Y-9012650D02*
X9201753Y-9022174D01*
X9201753Y-9022174D02*
X9211277Y-9031698D01*
X9211277Y-9031698D02*
X9220801Y-9050746D01*
X9220801Y-9050746D02*
X9220801Y-9107889D01*
X9220801Y-9107889D02*
X9211277Y-9126936D01*
X9211277Y-9126936D02*
X9201753Y-9136460D01*
X9201753Y-9136460D02*
X9182706Y-9145984D01*
X9182706Y-9145984D02*
X9154134Y-9145984D01*
X9335087Y-9145984D02*
X9316039Y-9136460D01*
X9316039Y-9136460D02*
X9306515Y-9117412D01*
X9306515Y-9117412D02*
X9306515Y-8945984D01*
X9487468Y-9136460D02*
X9468420Y-9145984D01*
X9468420Y-9145984D02*
X9430325Y-9145984D01*
X9430325Y-9145984D02*
X9411277Y-9136460D01*
X9411277Y-9136460D02*
X9401753Y-9117412D01*
X9401753Y-9117412D02*
X9401753Y-9041222D01*
X9401753Y-9041222D02*
X9411277Y-9022174D01*
X9411277Y-9022174D02*
X9430325Y-9012650D01*
X9430325Y-9012650D02*
X9468420Y-9012650D01*
X9468420Y-9012650D02*
X9487468Y-9022174D01*
X9487468Y-9022174D02*
X9496992Y-9041222D01*
X9496992Y-9041222D02*
X9496992Y-9060270D01*
X9496992Y-9060270D02*
X9401753Y-9079317D01*
X9573182Y-9136460D02*
X9592230Y-9145984D01*
X9592230Y-9145984D02*
X9630325Y-9145984D01*
X9630325Y-9145984D02*
X9649373Y-9136460D01*
X9649373Y-9136460D02*
X9658896Y-9117412D01*
X9658896Y-9117412D02*
X9658896Y-9107889D01*
X9658896Y-9107889D02*
X9649373Y-9088841D01*
X9649373Y-9088841D02*
X9630325Y-9079317D01*
X9630325Y-9079317D02*
X9601753Y-9079317D01*
X9601753Y-9079317D02*
X9582706Y-9069793D01*
X9582706Y-9069793D02*
X9573182Y-9050746D01*
X9573182Y-9050746D02*
X9573182Y-9041222D01*
X9573182Y-9041222D02*
X9582706Y-9022174D01*
X9582706Y-9022174D02*
X9601753Y-9012650D01*
X9601753Y-9012650D02*
X9630325Y-9012650D01*
X9630325Y-9012650D02*
X9649373Y-9022174D01*
X9725563Y-9222174D02*
X9735087Y-9212650D01*
X9735087Y-9212650D02*
X9754134Y-9184079D01*
X9754134Y-9184079D02*
X9763658Y-9165031D01*
X9763658Y-9165031D02*
X9773182Y-9136460D01*
X9773182Y-9136460D02*
X9782706Y-9088841D01*
X9782706Y-9088841D02*
X9782706Y-9050746D01*
X9782706Y-9050746D02*
X9773182Y-9003127D01*
X9773182Y-9003127D02*
X9763658Y-8974555D01*
X9763658Y-8974555D02*
X9754134Y-8955508D01*
X9754134Y-8955508D02*
X9735087Y-8926936D01*
X9735087Y-8926936D02*
X9725563Y-8917412D01*
M02*
