%TF.GenerationSoftware,KiCad,Pcbnew,9.0.6*%
%TF.CreationDate,2026-02-11T14:43:15-08:00*%
%TF.ProjectId,7L_LED_Flasher,374c5f4c-4544-45f4-966c-61736865722e,rev?*%
%TF.SameCoordinates,Original*%
%TF.FileFunction,Copper,L1,Top*%
%TF.FilePolarity,Positive*%
%FSLAX46Y46*%
G04 Gerber Fmt 4.6, Leading zero omitted, Abs format (unit mm)*
G04 Created by KiCad (PCBNEW 9.0.6) date 2026-02-11 14:43:15*
%MOMM*%
%LPD*%
G01*
G04 APERTURE LIST*
%TA.AperFunction,ComponentPad*%
%ADD10R,1.676400X1.676400*%
%TD*%
%TA.AperFunction,ComponentPad*%
%ADD11C,1.676400*%
%TD*%
%TA.AperFunction,ComponentPad*%
%ADD12C,2.032000*%
%TD*%
%TA.AperFunction,ComponentPad*%
%ADD13C,1.727200*%
%TD*%
%TA.AperFunction,ComponentPad*%
%ADD14R,2.032000X4.064000*%
%TD*%
%TA.AperFunction,ComponentPad*%
%ADD15O,2.032000X4.064000*%
%TD*%
%TA.AperFunction,ComponentPad*%
%ADD16O,4.064000X2.032000*%
%TD*%
%TA.AperFunction,ComponentPad*%
%ADD17O,2.540000X1.701800*%
%TD*%
%TA.AperFunction,ComponentPad*%
%ADD18O,7.000000X3.500000*%
%TD*%
%TA.AperFunction,Conductor*%
%ADD19C,0.508000*%
%TD*%
G04 APERTURE END LIST*
D10*
%TO.P,Q2,1,E*%
%TO.N,GND*%
X101600000Y-55880000D03*
D11*
%TO.P,Q2,2,B*%
%TO.N,Net-(Q2-B)*%
X99060000Y-55880000D03*
%TO.P,Q2,3,C*%
%TO.N,Net-(D2-K)*%
X96520000Y-55880000D03*
%TD*%
%TO.P,C1,1*%
%TO.N,Net-(Q2-B)*%
X83860000Y-45760000D03*
%TO.P,C1,2*%
%TO.N,Net-(D1-K)*%
X86360000Y-45760000D03*
%TD*%
D10*
%TO.P,Q1,1,E*%
%TO.N,GND*%
X101600000Y-45720000D03*
D11*
%TO.P,Q1,2,B*%
%TO.N,Net-(Q1-B)*%
X99060000Y-45720000D03*
%TO.P,Q1,3,C*%
%TO.N,Net-(D1-K)*%
X96520000Y-45720000D03*
%TD*%
D12*
%TO.P,R4,1*%
%TO.N,VCC*%
X68580000Y-63500000D03*
%TO.P,R4,2*%
%TO.N,Net-(D2-A)*%
X78740000Y-63500000D03*
%TD*%
D10*
%TO.P,D1,1,K*%
%TO.N,Net-(D1-K)*%
X91440000Y-38100000D03*
D11*
%TO.P,D1,2,A*%
%TO.N,Net-(D1-A)*%
X88900000Y-38100000D03*
%TD*%
D13*
%TO.P,REF\u002A\u002A,1*%
%TO.N,Net-(Q1-B)*%
X91440000Y-45720000D03*
%TD*%
D12*
%TO.P,R1,1*%
%TO.N,VCC*%
X68580000Y-45720000D03*
%TO.P,R1,2*%
%TO.N,Net-(Q2-B)*%
X78740000Y-45720000D03*
%TD*%
%TO.P,R3,1*%
%TO.N,VCC*%
X68580000Y-38100000D03*
%TO.P,R3,2*%
%TO.N,Net-(D1-A)*%
X78740000Y-38100000D03*
%TD*%
D11*
%TO.P,C2,1*%
%TO.N,Net-(D2-K)*%
X86360000Y-55880000D03*
%TO.P,C2,2*%
%TO.N,Net-(Q1-B)*%
X83860000Y-55880000D03*
%TD*%
D12*
%TO.P,R2,1*%
%TO.N,VCC*%
X68580000Y-55880000D03*
%TO.P,R2,2*%
%TO.N,Net-(Q1-B)*%
X78740000Y-55880000D03*
%TD*%
D14*
%TO.P,J3,1*%
%TO.N,VCC*%
X58420000Y-50800000D03*
D15*
%TO.P,J3,2*%
%TO.N,GND*%
X52120000Y-50800000D03*
D16*
%TO.P,J3,3*%
X55520000Y-55600000D03*
%TD*%
D13*
%TO.P,,1*%
%TO.N,Net-(Q1-B)*%
X91440000Y-55880000D03*
%TD*%
D10*
%TO.P,D2,1,K*%
%TO.N,Net-(D2-K)*%
X91440000Y-63500000D03*
D11*
%TO.P,D2,2,A*%
%TO.N,Net-(D2-A)*%
X88900000Y-63500000D03*
%TD*%
D17*
%TO.P,J1,1,In*%
%TO.N,Net-(D1-K)*%
X111450000Y-50800000D03*
D18*
%TO.P,J1,2,Ext*%
%TO.N,GND*%
X116530000Y-45720000D03*
D17*
X111450000Y-48260000D03*
D18*
X116530000Y-55880000D03*
%TD*%
D19*
%TO.N,Net-(Q2-B)*%
X87630000Y-50800000D02*
X95165393Y-50800000D01*
X81320000Y-45760000D02*
X83860000Y-45760000D01*
X78740000Y-45720000D02*
X81280000Y-45720000D01*
X81280000Y-45720000D02*
X81320000Y-45760000D01*
X99060000Y-54694607D02*
X99060000Y-55880000D01*
X83860000Y-47030000D02*
X87630000Y-50800000D01*
X95165393Y-50800000D02*
X99060000Y-54694607D01*
X83860000Y-45760000D02*
X83860000Y-47030000D01*
%TO.N,Net-(D1-K)*%
X98157448Y-38100000D02*
X110857448Y-50800000D01*
X91480000Y-40680000D02*
X96520000Y-45720000D01*
X110857448Y-50800000D02*
X111450000Y-50800000D01*
X91440000Y-40680000D02*
X91480000Y-40680000D01*
X91440000Y-38100000D02*
X98157448Y-38100000D01*
X91440000Y-38100000D02*
X91440000Y-40680000D01*
X91440000Y-40680000D02*
X86360000Y-45760000D01*
%TO.N,Net-(Q1-B)*%
X97705393Y-48260000D02*
X99060000Y-46905393D01*
X90170000Y-53340000D02*
X85090000Y-53340000D01*
X83860000Y-54650000D02*
X83860000Y-55880000D01*
X78740000Y-55880000D02*
X83860000Y-55880000D01*
X85090000Y-53340000D02*
X83820000Y-54610000D01*
X91440000Y-54610000D02*
X90170000Y-53340000D01*
X91440000Y-45720000D02*
X91440000Y-46990000D01*
X91440000Y-46990000D02*
X92710000Y-48260000D01*
X91440000Y-55880000D02*
X91440000Y-54610000D01*
X83820000Y-54610000D02*
X83860000Y-54650000D01*
X92710000Y-48260000D02*
X97705393Y-48260000D01*
X99060000Y-46905393D02*
X99060000Y-45720000D01*
%TO.N,Net-(D2-K)*%
X86360000Y-55880000D02*
X91440000Y-60960000D01*
X96520000Y-55880000D02*
X91440000Y-60960000D01*
X91440000Y-60960000D02*
X91440000Y-63500000D01*
%TO.N,Net-(D1-A)*%
X78740000Y-38100000D02*
X88900000Y-38100000D01*
%TO.N,Net-(D2-A)*%
X78740000Y-63500000D02*
X88900000Y-63500000D01*
%TO.N,VCC*%
X68580000Y-63500000D02*
X68580000Y-55880000D01*
X68580000Y-55880000D02*
X63500000Y-50800000D01*
X63500000Y-50800000D02*
X68580000Y-45720000D01*
X68580000Y-38100000D02*
X68580000Y-45720000D01*
X63500000Y-50800000D02*
X58420000Y-50800000D01*
%TD*%
%TA.AperFunction,Conductor*%
%TO.N,GND*%
G36*
X116844730Y-26213477D02*
G01*
X117339207Y-26231979D01*
X117358072Y-26233392D01*
X117845081Y-26288265D01*
X117863787Y-26291084D01*
X118345335Y-26382198D01*
X118363773Y-26386407D01*
X118837169Y-26513253D01*
X118855218Y-26518820D01*
X119317856Y-26680704D01*
X119335437Y-26687605D01*
X119784655Y-26883596D01*
X119801671Y-26891791D01*
X120157457Y-27079829D01*
X120234981Y-27120802D01*
X120251366Y-27130262D01*
X120666344Y-27391009D01*
X120681952Y-27401651D01*
X121032671Y-27660493D01*
X121076289Y-27692685D01*
X121091081Y-27704481D01*
X121462560Y-28024164D01*
X121476429Y-28037033D01*
X121822966Y-28383570D01*
X121835835Y-28397439D01*
X122155518Y-28768918D01*
X122167314Y-28783710D01*
X122458340Y-29178035D01*
X122468998Y-29193668D01*
X122729737Y-29608633D01*
X122739197Y-29625018D01*
X122968201Y-30058313D01*
X122976410Y-30075359D01*
X123172388Y-30524546D01*
X123179301Y-30542158D01*
X123341174Y-31004765D01*
X123346750Y-31022845D01*
X123473591Y-31496222D01*
X123477801Y-31514667D01*
X123568914Y-31996211D01*
X123571734Y-32014920D01*
X123626606Y-32501926D01*
X123628020Y-32520793D01*
X123646523Y-33015269D01*
X123646700Y-33024729D01*
X123646700Y-68575270D01*
X123646523Y-68584730D01*
X123628020Y-69079206D01*
X123626606Y-69098073D01*
X123571734Y-69585079D01*
X123568914Y-69603788D01*
X123477801Y-70085332D01*
X123473591Y-70103777D01*
X123346750Y-70577154D01*
X123341174Y-70595234D01*
X123179301Y-71057841D01*
X123172388Y-71075453D01*
X122976410Y-71524640D01*
X122968201Y-71541686D01*
X122739197Y-71974981D01*
X122729737Y-71991366D01*
X122468998Y-72406331D01*
X122458340Y-72421964D01*
X122167314Y-72816289D01*
X122155518Y-72831081D01*
X121835835Y-73202560D01*
X121822966Y-73216429D01*
X121476429Y-73562966D01*
X121462560Y-73575835D01*
X121091081Y-73895518D01*
X121076289Y-73907314D01*
X120681964Y-74198340D01*
X120666331Y-74208998D01*
X120251366Y-74469737D01*
X120234981Y-74479197D01*
X119801686Y-74708201D01*
X119784640Y-74716410D01*
X119335453Y-74912388D01*
X119317841Y-74919301D01*
X118855234Y-75081174D01*
X118837154Y-75086750D01*
X118363777Y-75213591D01*
X118345332Y-75217801D01*
X117863788Y-75308914D01*
X117845079Y-75311734D01*
X117358073Y-75366606D01*
X117339206Y-75368020D01*
X116844730Y-75386523D01*
X116835270Y-75386700D01*
X57154730Y-75386700D01*
X57145270Y-75386523D01*
X56650793Y-75368020D01*
X56631926Y-75366606D01*
X56144920Y-75311734D01*
X56126211Y-75308914D01*
X55644667Y-75217801D01*
X55626222Y-75213591D01*
X55152845Y-75086750D01*
X55134765Y-75081174D01*
X54672158Y-74919301D01*
X54654546Y-74912388D01*
X54205355Y-74716408D01*
X54188313Y-74708201D01*
X53755018Y-74479197D01*
X53738633Y-74469737D01*
X53472549Y-74302546D01*
X53323661Y-74208993D01*
X53308041Y-74198344D01*
X52913710Y-73907314D01*
X52898918Y-73895518D01*
X52527439Y-73575835D01*
X52513570Y-73562966D01*
X52167033Y-73216429D01*
X52154164Y-73202560D01*
X51834481Y-72831081D01*
X51822685Y-72816289D01*
X51631734Y-72557560D01*
X51531651Y-72421952D01*
X51521009Y-72406344D01*
X51260262Y-71991366D01*
X51250802Y-71974981D01*
X51209829Y-71897457D01*
X51021791Y-71541671D01*
X51013596Y-71524655D01*
X50817605Y-71075437D01*
X50810704Y-71057856D01*
X50648820Y-70595218D01*
X50643253Y-70577169D01*
X50516407Y-70103773D01*
X50512198Y-70085332D01*
X50421085Y-69603788D01*
X50418265Y-69585079D01*
X50363393Y-69098073D01*
X50361979Y-69079206D01*
X50343477Y-68584730D01*
X50343300Y-68575270D01*
X50343300Y-55193599D01*
X52719580Y-55193599D01*
X52719581Y-55193600D01*
X54191978Y-55193600D01*
X54097498Y-55288080D01*
X54030619Y-55403919D01*
X53996000Y-55533120D01*
X53996000Y-55666880D01*
X54030619Y-55796081D01*
X54097498Y-55911920D01*
X54191978Y-56006400D01*
X52719580Y-56006400D01*
X52768534Y-56189100D01*
X52768539Y-56189113D01*
X52860278Y-56410590D01*
X52860283Y-56410600D01*
X52980141Y-56618199D01*
X52980154Y-56618219D01*
X53126083Y-56808397D01*
X53295602Y-56977916D01*
X53485780Y-57123845D01*
X53485800Y-57123858D01*
X53693399Y-57243716D01*
X53693414Y-57243723D01*
X53914881Y-57335459D01*
X53914900Y-57335465D01*
X54146449Y-57397508D01*
X54384133Y-57428799D01*
X54384136Y-57428800D01*
X55113600Y-57428800D01*
X55113600Y-56108000D01*
X55926400Y-56108000D01*
X55926400Y-57428800D01*
X56655864Y-57428800D01*
X56655866Y-57428799D01*
X56893548Y-57397508D01*
X56893551Y-57397508D01*
X57125099Y-57335465D01*
X57125118Y-57335459D01*
X57346585Y-57243723D01*
X57346600Y-57243716D01*
X57554199Y-57123858D01*
X57554219Y-57123845D01*
X57744397Y-56977916D01*
X57913916Y-56808397D01*
X58059845Y-56618219D01*
X58059858Y-56618199D01*
X58179716Y-56410600D01*
X58179721Y-56410590D01*
X58271460Y-56189113D01*
X58271465Y-56189100D01*
X58320419Y-56006400D01*
X56848022Y-56006400D01*
X56942502Y-55911920D01*
X57009381Y-55796081D01*
X57044000Y-55666880D01*
X57044000Y-55533120D01*
X57009381Y-55403919D01*
X56942502Y-55288080D01*
X56848022Y-55193600D01*
X58320419Y-55193600D01*
X58320419Y-55193599D01*
X58271465Y-55010899D01*
X58271460Y-55010886D01*
X58179721Y-54789409D01*
X58179716Y-54789399D01*
X58059858Y-54581800D01*
X58059845Y-54581780D01*
X57913916Y-54391602D01*
X57744397Y-54222083D01*
X57584016Y-54099018D01*
X57518928Y-54024800D01*
X57487197Y-53931323D01*
X57493654Y-53832818D01*
X57537315Y-53744283D01*
X57611533Y-53679195D01*
X57705010Y-53647464D01*
X57738033Y-53645300D01*
X59481673Y-53645300D01*
X59481673Y-53645299D01*
X59618121Y-53629926D01*
X59791110Y-53569394D01*
X59946293Y-53471887D01*
X60075887Y-53342293D01*
X60173394Y-53187110D01*
X60233926Y-53014121D01*
X60249300Y-52877672D01*
X60249300Y-52120300D01*
X60268558Y-52023481D01*
X60323402Y-51941402D01*
X60405481Y-51886558D01*
X60502300Y-51867300D01*
X62953114Y-51867300D01*
X63049933Y-51886558D01*
X63132012Y-51941402D01*
X66685745Y-55495135D01*
X66740589Y-55577214D01*
X66759847Y-55674033D01*
X66757683Y-55707054D01*
X66750700Y-55760095D01*
X66750700Y-55999912D01*
X66782000Y-56237644D01*
X66782000Y-56237648D01*
X66844060Y-56469260D01*
X66844064Y-56469271D01*
X66935829Y-56690812D01*
X66935832Y-56690820D01*
X67055723Y-56898475D01*
X67055730Y-56898486D01*
X67201707Y-57088728D01*
X67371271Y-57258292D01*
X67413716Y-57290861D01*
X67478804Y-57365079D01*
X67510535Y-57458556D01*
X67512700Y-57491580D01*
X67512700Y-61888419D01*
X67493442Y-61985238D01*
X67438598Y-62067317D01*
X67413719Y-62089136D01*
X67371269Y-62121709D01*
X67201707Y-62291271D01*
X67055730Y-62481513D01*
X67055723Y-62481524D01*
X66935832Y-62689179D01*
X66935829Y-62689187D01*
X66844064Y-62910728D01*
X66844060Y-62910739D01*
X66782000Y-63142351D01*
X66782000Y-63142355D01*
X66750700Y-63380087D01*
X66750700Y-63619912D01*
X66782000Y-63857644D01*
X66782000Y-63857648D01*
X66844060Y-64089260D01*
X66844064Y-64089271D01*
X66935829Y-64310812D01*
X66935832Y-64310820D01*
X67055723Y-64518475D01*
X67055729Y-64518485D01*
X67093186Y-64567300D01*
X67189876Y-64693310D01*
X67201708Y-64708729D01*
X67371271Y-64878292D01*
X67561515Y-65024271D01*
X67561524Y-65024276D01*
X67769179Y-65144167D01*
X67769181Y-65144167D01*
X67769185Y-65144170D01*
X67990729Y-65235936D01*
X67990735Y-65235937D01*
X67990739Y-65235939D01*
X68134420Y-65274437D01*
X68222356Y-65298000D01*
X68321675Y-65311075D01*
X68460087Y-65329299D01*
X68460099Y-65329299D01*
X68460101Y-65329300D01*
X68460102Y-65329300D01*
X68699898Y-65329300D01*
X68699899Y-65329300D01*
X68699900Y-65329299D01*
X68699912Y-65329299D01*
X68798741Y-65316287D01*
X68937644Y-65298000D01*
X69169271Y-65235936D01*
X69390815Y-65144170D01*
X69598485Y-65024271D01*
X69788729Y-64878292D01*
X69958292Y-64708729D01*
X70104271Y-64518485D01*
X70224170Y-64310815D01*
X70315936Y-64089271D01*
X70378000Y-63857644D01*
X70396287Y-63718741D01*
X70409299Y-63619912D01*
X70409300Y-63619898D01*
X70409300Y-63380101D01*
X70409299Y-63380087D01*
X70393879Y-63262970D01*
X70378000Y-63142356D01*
X70315936Y-62910729D01*
X70224170Y-62689185D01*
X70181990Y-62616128D01*
X70104276Y-62481524D01*
X70104271Y-62481515D01*
X69958292Y-62291271D01*
X69788729Y-62121708D01*
X69746281Y-62089136D01*
X69681194Y-62014916D01*
X69649464Y-61921439D01*
X69647300Y-61888419D01*
X69647300Y-57491580D01*
X69666558Y-57394761D01*
X69721402Y-57312682D01*
X69746284Y-57290861D01*
X69746473Y-57290716D01*
X69788729Y-57258292D01*
X69958292Y-57088729D01*
X70104271Y-56898485D01*
X70224170Y-56690815D01*
X70315936Y-56469271D01*
X70331657Y-56410600D01*
X70377999Y-56237648D01*
X70377999Y-56237647D01*
X70378000Y-56237644D01*
X70399626Y-56073381D01*
X70409299Y-55999912D01*
X70409300Y-55999898D01*
X70409300Y-55760101D01*
X70409299Y-55760087D01*
X70382271Y-55554799D01*
X70378000Y-55522356D01*
X70370706Y-55495135D01*
X70315939Y-55290739D01*
X70315937Y-55290735D01*
X70315936Y-55290729D01*
X70224170Y-55069185D01*
X70190518Y-55010899D01*
X70125169Y-54897712D01*
X70104271Y-54861515D01*
X69958292Y-54671271D01*
X69788729Y-54501708D01*
X69728664Y-54455619D01*
X69598486Y-54355730D01*
X69598485Y-54355729D01*
X69595392Y-54353943D01*
X69390820Y-54235832D01*
X69390815Y-54235830D01*
X69169271Y-54144064D01*
X69169260Y-54144060D01*
X68937646Y-54082000D01*
X68699912Y-54050700D01*
X68699899Y-54050700D01*
X68460101Y-54050700D01*
X68460095Y-54050700D01*
X68407054Y-54057683D01*
X68308549Y-54051226D01*
X68220014Y-54007564D01*
X68195135Y-53985745D01*
X65188287Y-50978897D01*
X65133443Y-50896818D01*
X65114185Y-50799999D01*
X65133443Y-50703180D01*
X65188283Y-50621106D01*
X68195137Y-47614251D01*
X68277213Y-47559410D01*
X68374032Y-47540152D01*
X68407057Y-47542317D01*
X68460089Y-47549299D01*
X68460099Y-47549299D01*
X68460101Y-47549300D01*
X68460102Y-47549300D01*
X68699898Y-47549300D01*
X68699899Y-47549300D01*
X68699900Y-47549299D01*
X68699912Y-47549299D01*
X68804294Y-47535556D01*
X68937644Y-47518000D01*
X69169271Y-47455936D01*
X69390815Y-47364170D01*
X69598485Y-47244271D01*
X69788729Y-47098292D01*
X69958292Y-46928729D01*
X70104271Y-46738485D01*
X70224170Y-46530815D01*
X70315936Y-46309271D01*
X70378000Y-46077644D01*
X70402707Y-45889977D01*
X70409299Y-45839912D01*
X70409300Y-45839898D01*
X70409300Y-45600101D01*
X70409299Y-45600087D01*
X70382271Y-45394799D01*
X70378000Y-45362356D01*
X70370207Y-45333273D01*
X70315939Y-45130739D01*
X70315937Y-45130735D01*
X70315936Y-45130729D01*
X70224170Y-44909185D01*
X70178094Y-44829380D01*
X70125169Y-44737712D01*
X70104271Y-44701515D01*
X69958292Y-44511271D01*
X69788729Y-44341708D01*
X69750043Y-44312023D01*
X69746281Y-44309136D01*
X69681194Y-44234916D01*
X69649464Y-44141439D01*
X69647300Y-44108419D01*
X69647300Y-39711580D01*
X69666558Y-39614761D01*
X69721402Y-39532682D01*
X69746284Y-39510861D01*
X69788729Y-39478292D01*
X69958292Y-39308729D01*
X70104271Y-39118485D01*
X70224170Y-38910815D01*
X70315936Y-38689271D01*
X70378000Y-38457644D01*
X70396287Y-38318741D01*
X70409299Y-38219912D01*
X70409300Y-38219898D01*
X70409300Y-37980101D01*
X70409299Y-37980087D01*
X76910700Y-37980087D01*
X76910700Y-38219912D01*
X76942000Y-38457644D01*
X76942000Y-38457648D01*
X77004060Y-38689260D01*
X77004064Y-38689271D01*
X77095829Y-38910812D01*
X77095832Y-38910820D01*
X77215723Y-39118475D01*
X77215730Y-39118486D01*
X77349876Y-39293310D01*
X77361708Y-39308729D01*
X77531271Y-39478292D01*
X77721515Y-39624271D01*
X77721524Y-39624276D01*
X77929179Y-39744167D01*
X77929181Y-39744167D01*
X77929185Y-39744170D01*
X78150729Y-39835936D01*
X78150735Y-39835937D01*
X78150739Y-39835939D01*
X78294420Y-39874437D01*
X78382356Y-39898000D01*
X78481675Y-39911075D01*
X78620087Y-39929299D01*
X78620099Y-39929299D01*
X78620101Y-39929300D01*
X78620102Y-39929300D01*
X78859898Y-39929300D01*
X78859899Y-39929300D01*
X78859900Y-39929299D01*
X78859912Y-39929299D01*
X78958741Y-39916287D01*
X79097644Y-39898000D01*
X79244744Y-39858585D01*
X79329260Y-39835939D01*
X79329260Y-39835938D01*
X79329271Y-39835936D01*
X79550815Y-39744170D01*
X79758485Y-39624271D01*
X79948729Y-39478292D01*
X80118292Y-39308729D01*
X80150861Y-39266283D01*
X80225079Y-39201196D01*
X80318556Y-39169465D01*
X80351580Y-39167300D01*
X87526930Y-39167300D01*
X87623749Y-39186558D01*
X87705828Y-39241402D01*
X87824120Y-39359694D01*
X88034423Y-39512489D01*
X88034425Y-39512490D01*
X88266044Y-39630505D01*
X88513273Y-39710835D01*
X88770024Y-39751500D01*
X88770026Y-39751500D01*
X89029974Y-39751500D01*
X89029976Y-39751500D01*
X89286727Y-39710835D01*
X89533956Y-39630505D01*
X89765575Y-39512490D01*
X89765581Y-39512485D01*
X89774255Y-39508066D01*
X89869265Y-39481271D01*
X89967296Y-39492874D01*
X90034019Y-39526098D01*
X90052269Y-39538849D01*
X90091507Y-39578087D01*
X90246690Y-39675594D01*
X90249283Y-39676501D01*
X90264604Y-39687206D01*
X90294576Y-39718451D01*
X90326036Y-39748193D01*
X90328598Y-39753918D01*
X90332940Y-39758445D01*
X90348674Y-39798785D01*
X90366356Y-39838299D01*
X90367277Y-39846479D01*
X90368812Y-39850413D01*
X90368641Y-39858585D01*
X90372700Y-39894599D01*
X90372700Y-40133113D01*
X90353442Y-40229932D01*
X90298598Y-40312011D01*
X86576211Y-44034398D01*
X86494132Y-44089242D01*
X86397313Y-44108500D01*
X86230022Y-44108500D01*
X85973272Y-44149165D01*
X85726040Y-44229496D01*
X85494423Y-44347510D01*
X85284120Y-44500305D01*
X85276560Y-44506763D01*
X85274933Y-44504858D01*
X85206819Y-44550372D01*
X85110000Y-44569630D01*
X85013181Y-44550372D01*
X84945066Y-44504858D01*
X84943440Y-44506763D01*
X84935879Y-44500305D01*
X84725576Y-44347510D01*
X84493959Y-44229496D01*
X84246727Y-44149165D01*
X83989977Y-44108500D01*
X83989976Y-44108500D01*
X83730024Y-44108500D01*
X83730022Y-44108500D01*
X83473272Y-44149165D01*
X83226040Y-44229496D01*
X82994423Y-44347510D01*
X82784120Y-44500305D01*
X82784118Y-44500307D01*
X82665828Y-44618598D01*
X82583749Y-44673442D01*
X82486930Y-44692700D01*
X81611132Y-44692700D01*
X81561775Y-44687839D01*
X81528148Y-44681150D01*
X81385120Y-44652700D01*
X81385117Y-44652700D01*
X80351580Y-44652700D01*
X80254761Y-44633442D01*
X80172682Y-44578598D01*
X80150861Y-44553716D01*
X80118292Y-44511271D01*
X79948728Y-44341707D01*
X79819185Y-44242306D01*
X79758485Y-44195729D01*
X79758475Y-44195723D01*
X79550820Y-44075832D01*
X79550815Y-44075830D01*
X79329271Y-43984064D01*
X79329260Y-43984060D01*
X79097646Y-43922000D01*
X78859912Y-43890700D01*
X78859899Y-43890700D01*
X78620101Y-43890700D01*
X78620087Y-43890700D01*
X78382355Y-43922000D01*
X78382351Y-43922000D01*
X78150739Y-43984060D01*
X78150728Y-43984064D01*
X77929187Y-44075829D01*
X77929179Y-44075832D01*
X77721524Y-44195723D01*
X77721513Y-44195730D01*
X77531271Y-44341707D01*
X77361707Y-44511271D01*
X77215730Y-44701513D01*
X77215723Y-44701524D01*
X77095832Y-44909179D01*
X77095829Y-44909187D01*
X77004064Y-45130728D01*
X77004060Y-45130739D01*
X76942000Y-45362351D01*
X76942000Y-45362355D01*
X76910700Y-45600087D01*
X76910700Y-45839912D01*
X76942000Y-46077644D01*
X76942000Y-46077648D01*
X77004060Y-46309260D01*
X77004064Y-46309271D01*
X77039141Y-46393956D01*
X77095829Y-46530812D01*
X77095832Y-46530820D01*
X77194830Y-46702287D01*
X77215729Y-46738485D01*
X77256916Y-46792161D01*
X77349711Y-46913095D01*
X77361708Y-46928729D01*
X77531271Y-47098292D01*
X77721515Y-47244271D01*
X77780787Y-47278492D01*
X77929179Y-47364167D01*
X77929181Y-47364167D01*
X77929185Y-47364170D01*
X78150729Y-47455936D01*
X78150735Y-47455937D01*
X78150739Y-47455939D01*
X78261444Y-47485602D01*
X78382356Y-47518000D01*
X78481675Y-47531075D01*
X78620087Y-47549299D01*
X78620099Y-47549299D01*
X78620101Y-47549300D01*
X78620102Y-47549300D01*
X78859898Y-47549300D01*
X78859899Y-47549300D01*
X78859900Y-47549299D01*
X78859912Y-47549299D01*
X78964294Y-47535556D01*
X79097644Y-47518000D01*
X79329271Y-47455936D01*
X79550815Y-47364170D01*
X79758485Y-47244271D01*
X79948729Y-47098292D01*
X80118292Y-46928729D01*
X80150861Y-46886283D01*
X80225079Y-46821196D01*
X80318556Y-46789465D01*
X80351580Y-46787300D01*
X80988868Y-46787300D01*
X81038225Y-46792161D01*
X81056922Y-46795880D01*
X81214880Y-46827300D01*
X81425120Y-46827300D01*
X82486930Y-46827300D01*
X82583749Y-46846558D01*
X82665828Y-46901402D01*
X82718598Y-46954172D01*
X82773442Y-47036251D01*
X82790662Y-47122826D01*
X82791481Y-47122746D01*
X82792299Y-47131058D01*
X82792700Y-47133070D01*
X82792700Y-47135120D01*
X82833716Y-47341320D01*
X82906899Y-47517999D01*
X82914172Y-47535558D01*
X83030972Y-47710362D01*
X86949637Y-51629027D01*
X87124445Y-51745830D01*
X87221325Y-51785959D01*
X87303404Y-51840802D01*
X87358248Y-51922881D01*
X87377506Y-52019700D01*
X87358247Y-52116519D01*
X87303404Y-52198598D01*
X87221325Y-52253442D01*
X87124506Y-52272700D01*
X85195120Y-52272700D01*
X84984880Y-52272700D01*
X84778680Y-52313716D01*
X84584441Y-52394172D01*
X84409637Y-52510972D01*
X82990972Y-53929637D01*
X82874172Y-54104441D01*
X82857760Y-54144064D01*
X82793716Y-54298680D01*
X82752700Y-54504880D01*
X82752700Y-54504883D01*
X82752700Y-54546930D01*
X82733442Y-54643749D01*
X82678598Y-54725828D01*
X82665828Y-54738598D01*
X82583749Y-54793442D01*
X82486930Y-54812700D01*
X80351580Y-54812700D01*
X80254761Y-54793442D01*
X80172682Y-54738598D01*
X80150861Y-54713716D01*
X80118292Y-54671271D01*
X79948728Y-54501707D01*
X79758486Y-54355730D01*
X79758485Y-54355729D01*
X79755392Y-54353943D01*
X79550820Y-54235832D01*
X79550815Y-54235830D01*
X79329271Y-54144064D01*
X79329260Y-54144060D01*
X79097646Y-54082000D01*
X78859912Y-54050700D01*
X78859899Y-54050700D01*
X78620101Y-54050700D01*
X78620087Y-54050700D01*
X78382355Y-54082000D01*
X78382351Y-54082000D01*
X78150739Y-54144060D01*
X78150728Y-54144064D01*
X77929187Y-54235829D01*
X77929179Y-54235832D01*
X77721524Y-54355723D01*
X77721513Y-54355730D01*
X77531271Y-54501707D01*
X77361707Y-54671271D01*
X77215730Y-54861513D01*
X77215723Y-54861524D01*
X77095832Y-55069179D01*
X77095829Y-55069187D01*
X77004064Y-55290728D01*
X77004060Y-55290739D01*
X76942000Y-55522351D01*
X76942000Y-55522355D01*
X76910700Y-55760087D01*
X76910700Y-55999912D01*
X76942000Y-56237644D01*
X76942000Y-56237648D01*
X77004060Y-56469260D01*
X77004064Y-56469271D01*
X77095829Y-56690812D01*
X77095832Y-56690820D01*
X77215723Y-56898475D01*
X77215730Y-56898486D01*
X77349711Y-57073095D01*
X77361708Y-57088729D01*
X77531271Y-57258292D01*
X77721515Y-57404271D01*
X77721524Y-57404276D01*
X77929179Y-57524167D01*
X77929181Y-57524167D01*
X77929185Y-57524170D01*
X78150729Y-57615936D01*
X78150735Y-57615937D01*
X78150739Y-57615939D01*
X78294420Y-57654437D01*
X78382356Y-57678000D01*
X78481675Y-57691075D01*
X78620087Y-57709299D01*
X78620099Y-57709299D01*
X78620101Y-57709300D01*
X78620102Y-57709300D01*
X78859898Y-57709300D01*
X78859899Y-57709300D01*
X78859900Y-57709299D01*
X78859912Y-57709299D01*
X78958741Y-57696287D01*
X79097644Y-57678000D01*
X79329271Y-57615936D01*
X79550815Y-57524170D01*
X79758485Y-57404271D01*
X79948729Y-57258292D01*
X80118292Y-57088729D01*
X80150861Y-57046283D01*
X80225079Y-56981196D01*
X80318556Y-56949465D01*
X80351580Y-56947300D01*
X82486930Y-56947300D01*
X82583749Y-56966558D01*
X82665828Y-57021402D01*
X82784120Y-57139694D01*
X82994423Y-57292489D01*
X83180279Y-57387187D01*
X83226044Y-57410505D01*
X83473273Y-57490835D01*
X83730024Y-57531500D01*
X83730026Y-57531500D01*
X83989974Y-57531500D01*
X83989976Y-57531500D01*
X84246727Y-57490835D01*
X84493956Y-57410505D01*
X84725575Y-57292490D01*
X84935880Y-57139694D01*
X84935885Y-57139688D01*
X84943440Y-57133237D01*
X84945066Y-57135141D01*
X85013181Y-57089628D01*
X85110000Y-57070370D01*
X85206819Y-57089628D01*
X85274933Y-57135141D01*
X85276560Y-57133237D01*
X85284120Y-57139694D01*
X85494423Y-57292489D01*
X85680279Y-57387187D01*
X85726044Y-57410505D01*
X85973273Y-57490835D01*
X86230024Y-57531500D01*
X86230026Y-57531500D01*
X86397314Y-57531500D01*
X86494133Y-57550758D01*
X86576212Y-57605602D01*
X90298598Y-61327988D01*
X90353442Y-61410067D01*
X90372700Y-61506886D01*
X90372700Y-61705400D01*
X90353442Y-61802219D01*
X90298598Y-61884298D01*
X90254303Y-61919622D01*
X90091508Y-62021911D01*
X90068010Y-62045409D01*
X89985930Y-62100251D01*
X89889111Y-62119508D01*
X89792293Y-62100248D01*
X89774256Y-62091933D01*
X89533959Y-61969496D01*
X89380463Y-61919622D01*
X89286727Y-61889165D01*
X89230831Y-61880312D01*
X89029977Y-61848500D01*
X89029976Y-61848500D01*
X88770024Y-61848500D01*
X88770022Y-61848500D01*
X88513272Y-61889165D01*
X88266040Y-61969496D01*
X88034423Y-62087510D01*
X87824120Y-62240305D01*
X87824118Y-62240307D01*
X87705828Y-62358598D01*
X87623749Y-62413442D01*
X87526930Y-62432700D01*
X80351580Y-62432700D01*
X80254761Y-62413442D01*
X80172682Y-62358598D01*
X80150861Y-62333716D01*
X80118292Y-62291271D01*
X79948728Y-62121707D01*
X79818671Y-62021911D01*
X79758485Y-61975729D01*
X79758475Y-61975723D01*
X79550820Y-61855832D01*
X79550815Y-61855830D01*
X79329271Y-61764064D01*
X79329260Y-61764060D01*
X79097646Y-61702000D01*
X78859912Y-61670700D01*
X78859899Y-61670700D01*
X78620101Y-61670700D01*
X78620087Y-61670700D01*
X78382355Y-61702000D01*
X78382351Y-61702000D01*
X78150739Y-61764060D01*
X78150728Y-61764064D01*
X77929187Y-61855829D01*
X77929179Y-61855832D01*
X77721524Y-61975723D01*
X77721513Y-61975730D01*
X77531271Y-62121707D01*
X77361707Y-62291271D01*
X77215730Y-62481513D01*
X77215723Y-62481524D01*
X77095832Y-62689179D01*
X77095829Y-62689187D01*
X77004064Y-62910728D01*
X77004060Y-62910739D01*
X76942000Y-63142351D01*
X76942000Y-63142355D01*
X76910700Y-63380087D01*
X76910700Y-63619912D01*
X76942000Y-63857644D01*
X76942000Y-63857648D01*
X77004060Y-64089260D01*
X77004064Y-64089271D01*
X77095829Y-64310812D01*
X77095832Y-64310820D01*
X77215723Y-64518475D01*
X77215729Y-64518485D01*
X77253186Y-64567300D01*
X77349876Y-64693310D01*
X77361708Y-64708729D01*
X77531271Y-64878292D01*
X77721515Y-65024271D01*
X77721524Y-65024276D01*
X77929179Y-65144167D01*
X77929181Y-65144167D01*
X77929185Y-65144170D01*
X78150729Y-65235936D01*
X78150735Y-65235937D01*
X78150739Y-65235939D01*
X78294420Y-65274437D01*
X78382356Y-65298000D01*
X78481675Y-65311075D01*
X78620087Y-65329299D01*
X78620099Y-65329299D01*
X78620101Y-65329300D01*
X78620102Y-65329300D01*
X78859898Y-65329300D01*
X78859899Y-65329300D01*
X78859900Y-65329299D01*
X78859912Y-65329299D01*
X78958741Y-65316287D01*
X79097644Y-65298000D01*
X79329271Y-65235936D01*
X79550815Y-65144170D01*
X79758485Y-65024271D01*
X79948729Y-64878292D01*
X80118292Y-64708729D01*
X80150861Y-64666283D01*
X80225079Y-64601196D01*
X80318556Y-64569465D01*
X80351580Y-64567300D01*
X87526930Y-64567300D01*
X87623749Y-64586558D01*
X87705828Y-64641402D01*
X87824120Y-64759694D01*
X88034423Y-64912489D01*
X88034425Y-64912490D01*
X88266044Y-65030505D01*
X88513273Y-65110835D01*
X88770024Y-65151500D01*
X88770026Y-65151500D01*
X89029974Y-65151500D01*
X89029976Y-65151500D01*
X89286727Y-65110835D01*
X89533956Y-65030505D01*
X89765575Y-64912490D01*
X89765581Y-64912485D01*
X89774255Y-64908066D01*
X89869265Y-64881271D01*
X89967296Y-64892874D01*
X90053425Y-64941108D01*
X90068013Y-64954593D01*
X90091508Y-64978088D01*
X90246692Y-65075595D01*
X90333184Y-65105860D01*
X90419679Y-65136126D01*
X90556126Y-65151499D01*
X90556127Y-65151500D01*
X90556128Y-65151500D01*
X92323873Y-65151500D01*
X92323873Y-65151499D01*
X92460321Y-65136126D01*
X92633310Y-65075594D01*
X92788493Y-64978087D01*
X92918087Y-64848493D01*
X93015594Y-64693310D01*
X93076126Y-64520321D01*
X93091500Y-64383872D01*
X93091500Y-62616128D01*
X93076126Y-62479679D01*
X93056685Y-62424120D01*
X93015595Y-62306692D01*
X93005905Y-62291271D01*
X92973882Y-62240305D01*
X92918088Y-62151508D01*
X92788491Y-62021911D01*
X92625697Y-61919622D01*
X92605039Y-61900092D01*
X92581402Y-61884298D01*
X92569513Y-61866505D01*
X92553964Y-61851805D01*
X92542352Y-61825857D01*
X92526558Y-61802219D01*
X92522383Y-61781231D01*
X92513643Y-61761699D01*
X92507300Y-61705400D01*
X92507300Y-61506885D01*
X92526558Y-61410066D01*
X92581400Y-61327989D01*
X96303787Y-57605601D01*
X96385866Y-57550758D01*
X96482685Y-57531500D01*
X96649974Y-57531500D01*
X96649976Y-57531500D01*
X96906727Y-57490835D01*
X97153956Y-57410505D01*
X97385575Y-57292490D01*
X97595880Y-57139694D01*
X97611102Y-57124472D01*
X97693181Y-57069628D01*
X97790000Y-57050370D01*
X97886819Y-57069628D01*
X97968898Y-57124472D01*
X97984120Y-57139694D01*
X98194423Y-57292489D01*
X98380279Y-57387187D01*
X98426044Y-57410505D01*
X98673273Y-57490835D01*
X98930024Y-57531500D01*
X98930026Y-57531500D01*
X99189974Y-57531500D01*
X99189976Y-57531500D01*
X99446727Y-57490835D01*
X99693956Y-57410505D01*
X99925575Y-57292490D01*
X99925575Y-57292489D01*
X99934432Y-57287977D01*
X99935827Y-57290716D01*
X100009926Y-57263359D01*
X100108566Y-57267210D01*
X100198224Y-57308516D01*
X100228463Y-57334336D01*
X100251820Y-57357693D01*
X100406905Y-57455139D01*
X100579791Y-57515634D01*
X100716155Y-57531000D01*
X101193600Y-57531000D01*
X102006400Y-57531000D01*
X102483845Y-57531000D01*
X102620208Y-57515634D01*
X102793094Y-57455139D01*
X102793095Y-57455139D01*
X102948179Y-57357693D01*
X103077693Y-57228179D01*
X103175139Y-57073095D01*
X103175139Y-57073094D01*
X103235634Y-56900208D01*
X103251000Y-56763845D01*
X103251000Y-56286400D01*
X102006400Y-56286400D01*
X102006400Y-57531000D01*
X101193600Y-57531000D01*
X101193600Y-55933504D01*
X101221295Y-56036865D01*
X101274799Y-56129536D01*
X101350464Y-56205201D01*
X101443135Y-56258705D01*
X101546496Y-56286400D01*
X101653504Y-56286400D01*
X101756865Y-56258705D01*
X101849536Y-56205201D01*
X101925201Y-56129536D01*
X101978705Y-56036865D01*
X102006400Y-55933504D01*
X102006400Y-55826496D01*
X101978705Y-55723135D01*
X101925201Y-55630464D01*
X101849536Y-55554799D01*
X101756865Y-55501295D01*
X101653504Y-55473600D01*
X102006400Y-55473600D01*
X103251000Y-55473600D01*
X112246774Y-55473600D01*
X115610532Y-55473600D01*
X115563621Y-55586852D01*
X115525000Y-55781016D01*
X115525000Y-55978984D01*
X115563621Y-56173148D01*
X115610532Y-56286400D01*
X112246774Y-56286400D01*
X112249429Y-56309960D01*
X112313483Y-56590601D01*
X112408549Y-56862283D01*
X112408551Y-56862287D01*
X112533441Y-57121624D01*
X112533448Y-57121637D01*
X112686580Y-57365345D01*
X112686584Y-57365351D01*
X112866052Y-57590398D01*
X112866054Y-57590401D01*
X113069598Y-57793945D01*
X113069601Y-57793947D01*
X113294648Y-57973415D01*
X113294654Y-57973419D01*
X113538362Y-58126551D01*
X113538375Y-58126558D01*
X113797712Y-58251448D01*
X113797716Y-58251450D01*
X114069398Y-58346516D01*
X114350042Y-58410571D01*
X114636074Y-58442799D01*
X114636076Y-58442800D01*
X116123600Y-58442800D01*
X116123600Y-56799468D01*
X116236852Y-56846379D01*
X116431016Y-56885000D01*
X116628984Y-56885000D01*
X116823148Y-56846379D01*
X116936400Y-56799468D01*
X116936400Y-58442800D01*
X118423924Y-58442800D01*
X118423925Y-58442799D01*
X118709957Y-58410571D01*
X118990601Y-58346516D01*
X119262283Y-58251450D01*
X119262287Y-58251448D01*
X119521624Y-58126558D01*
X119521637Y-58126551D01*
X119765345Y-57973419D01*
X119765351Y-57973415D01*
X119990398Y-57793947D01*
X119990401Y-57793945D01*
X120193945Y-57590401D01*
X120193947Y-57590398D01*
X120373415Y-57365351D01*
X120373419Y-57365345D01*
X120526551Y-57121637D01*
X120526558Y-57121624D01*
X120651448Y-56862287D01*
X120651450Y-56862283D01*
X120746516Y-56590601D01*
X120810570Y-56309960D01*
X120813226Y-56286400D01*
X117449468Y-56286400D01*
X117496379Y-56173148D01*
X117535000Y-55978984D01*
X117535000Y-55781016D01*
X117496379Y-55586852D01*
X117449468Y-55473600D01*
X120813225Y-55473600D01*
X120810570Y-55450039D01*
X120746516Y-55169398D01*
X120651450Y-54897716D01*
X120651448Y-54897712D01*
X120526558Y-54638375D01*
X120526551Y-54638362D01*
X120373419Y-54394654D01*
X120373415Y-54394648D01*
X120193947Y-54169601D01*
X120193945Y-54169598D01*
X119990401Y-53966054D01*
X119990398Y-53966052D01*
X119765351Y-53786584D01*
X119765345Y-53786580D01*
X119521637Y-53633448D01*
X119521624Y-53633441D01*
X119262287Y-53508551D01*
X119262283Y-53508549D01*
X118990601Y-53413483D01*
X118709957Y-53349428D01*
X118423925Y-53317200D01*
X116936400Y-53317200D01*
X116936400Y-54960531D01*
X116823148Y-54913621D01*
X116628984Y-54875000D01*
X116431016Y-54875000D01*
X116236852Y-54913621D01*
X116123600Y-54960531D01*
X116123600Y-53317200D01*
X114636074Y-53317200D01*
X114350042Y-53349428D01*
X114069398Y-53413483D01*
X113797716Y-53508549D01*
X113797712Y-53508551D01*
X113538375Y-53633441D01*
X113538362Y-53633448D01*
X113294654Y-53786580D01*
X113294648Y-53786584D01*
X113069601Y-53966052D01*
X113069598Y-53966054D01*
X112866054Y-54169598D01*
X112866052Y-54169601D01*
X112686584Y-54394648D01*
X112686580Y-54394654D01*
X112533448Y-54638362D01*
X112533441Y-54638375D01*
X112408551Y-54897712D01*
X112408549Y-54897716D01*
X112313483Y-55169398D01*
X112249429Y-55450039D01*
X112246774Y-55473600D01*
X103251000Y-55473600D01*
X103251000Y-54996154D01*
X103235634Y-54859791D01*
X103175139Y-54686905D01*
X103175139Y-54686904D01*
X103077693Y-54531820D01*
X102948179Y-54402306D01*
X102793094Y-54304860D01*
X102620208Y-54244365D01*
X102483845Y-54229000D01*
X102006400Y-54229000D01*
X102006400Y-55473600D01*
X101653504Y-55473600D01*
X101546496Y-55473600D01*
X101443135Y-55501295D01*
X101350464Y-55554799D01*
X101274799Y-55630464D01*
X101221295Y-55723135D01*
X101193600Y-55826496D01*
X101193600Y-54229000D01*
X100716155Y-54229000D01*
X100579791Y-54244365D01*
X100406906Y-54304859D01*
X100380409Y-54321509D01*
X100288183Y-54356713D01*
X100189506Y-54353943D01*
X100099401Y-54313623D01*
X100031584Y-54241890D01*
X100012066Y-54204110D01*
X100005829Y-54189051D01*
X99975767Y-54144060D01*
X99889027Y-54014244D01*
X95845755Y-49970972D01*
X95670947Y-49854169D01*
X95574068Y-49814041D01*
X95491989Y-49759198D01*
X95437145Y-49677119D01*
X95417887Y-49580300D01*
X95437146Y-49483481D01*
X95491989Y-49401402D01*
X95574068Y-49346558D01*
X95670887Y-49327300D01*
X97810509Y-49327300D01*
X97810513Y-49327300D01*
X98016713Y-49286284D01*
X98210949Y-49205829D01*
X98385757Y-49089026D01*
X99889026Y-47585757D01*
X100005829Y-47410949D01*
X100012064Y-47395895D01*
X100066903Y-47313819D01*
X100148981Y-47258973D01*
X100245799Y-47239712D01*
X100342619Y-47258968D01*
X100380413Y-47278492D01*
X100406909Y-47295141D01*
X100579791Y-47355634D01*
X100716155Y-47371000D01*
X101193600Y-47371000D01*
X102006400Y-47371000D01*
X102483845Y-47371000D01*
X102620208Y-47355634D01*
X102793094Y-47295139D01*
X102793095Y-47295139D01*
X102948179Y-47197693D01*
X103077693Y-47068179D01*
X103175139Y-46913095D01*
X103175139Y-46913094D01*
X103235634Y-46740208D01*
X103251000Y-46603845D01*
X103251000Y-46126400D01*
X102006400Y-46126400D01*
X102006400Y-47371000D01*
X101193600Y-47371000D01*
X101193600Y-45773504D01*
X101221295Y-45876865D01*
X101274799Y-45969536D01*
X101350464Y-46045201D01*
X101443135Y-46098705D01*
X101546496Y-46126400D01*
X101653504Y-46126400D01*
X101756865Y-46098705D01*
X101849536Y-46045201D01*
X101925201Y-45969536D01*
X101978705Y-45876865D01*
X102006400Y-45773504D01*
X102006400Y-45666496D01*
X101978705Y-45563135D01*
X101925201Y-45470464D01*
X101849536Y-45394799D01*
X101756865Y-45341295D01*
X101653504Y-45313600D01*
X101546496Y-45313600D01*
X101443135Y-45341295D01*
X101350464Y-45394799D01*
X101274799Y-45470464D01*
X101221295Y-45563135D01*
X101193600Y-45666496D01*
X101193600Y-44069000D01*
X100716155Y-44069000D01*
X100579791Y-44084365D01*
X100406905Y-44144860D01*
X100406904Y-44144860D01*
X100251820Y-44242306D01*
X100228460Y-44265666D01*
X100146380Y-44320508D01*
X100049561Y-44339765D01*
X99952743Y-44320505D01*
X99934763Y-44311371D01*
X99934432Y-44312023D01*
X99693959Y-44189496D01*
X99446727Y-44109165D01*
X99189977Y-44068500D01*
X99189976Y-44068500D01*
X98930024Y-44068500D01*
X98930022Y-44068500D01*
X98673272Y-44109165D01*
X98426040Y-44189496D01*
X98194423Y-44307510D01*
X97984120Y-44460305D01*
X97984118Y-44460307D01*
X97968898Y-44475528D01*
X97886819Y-44530372D01*
X97790000Y-44549630D01*
X97693181Y-44530372D01*
X97611102Y-44475528D01*
X97595879Y-44460305D01*
X97385576Y-44307510D01*
X97153959Y-44189496D01*
X96906727Y-44109165D01*
X96649977Y-44068500D01*
X96649976Y-44068500D01*
X96482686Y-44068500D01*
X96385867Y-44049242D01*
X96303788Y-43994398D01*
X92581402Y-40272012D01*
X92526558Y-40189933D01*
X92507300Y-40093114D01*
X92507300Y-39894599D01*
X92526558Y-39797780D01*
X92581402Y-39715701D01*
X92625698Y-39680377D01*
X92788487Y-39578091D01*
X92788491Y-39578088D01*
X92788490Y-39578088D01*
X92788493Y-39578087D01*
X92918087Y-39448493D01*
X93005906Y-39308729D01*
X93020378Y-39285697D01*
X93088195Y-39213964D01*
X93178301Y-39173643D01*
X93234600Y-39167300D01*
X97610562Y-39167300D01*
X97707381Y-39186558D01*
X97789460Y-39241402D01*
X102185160Y-43637102D01*
X102240004Y-43719181D01*
X102259262Y-43816000D01*
X102240004Y-43912819D01*
X102185160Y-43994898D01*
X102103081Y-44049742D01*
X102006434Y-44068965D01*
X102006400Y-44069000D01*
X102006400Y-45313600D01*
X103251000Y-45313600D01*
X103251034Y-45313565D01*
X103270258Y-45216919D01*
X103325102Y-45134840D01*
X103407181Y-45079996D01*
X103504000Y-45060738D01*
X103600819Y-45079996D01*
X103682898Y-45134840D01*
X109293024Y-50744966D01*
X109347868Y-50827045D01*
X109365095Y-50900934D01*
X109365619Y-50900866D01*
X109366318Y-50906181D01*
X109366584Y-50907319D01*
X109366698Y-50909065D01*
X109395175Y-51125367D01*
X109395175Y-51125370D01*
X109451633Y-51336076D01*
X109451639Y-51336095D01*
X109535118Y-51537628D01*
X109535123Y-51537639D01*
X109644195Y-51726558D01*
X109644199Y-51726564D01*
X109658981Y-51745829D01*
X109777003Y-51899638D01*
X109931262Y-52053897D01*
X110104336Y-52186701D01*
X110104339Y-52186703D01*
X110104341Y-52186704D01*
X110293260Y-52295776D01*
X110293271Y-52295781D01*
X110494804Y-52379260D01*
X110494823Y-52379266D01*
X110705530Y-52435724D01*
X110705534Y-52435725D01*
X110921823Y-52464200D01*
X110921824Y-52464200D01*
X111978176Y-52464200D01*
X111978177Y-52464200D01*
X112194466Y-52435725D01*
X112349546Y-52394172D01*
X112405176Y-52379266D01*
X112405177Y-52379265D01*
X112405187Y-52379263D01*
X112405191Y-52379261D01*
X112405195Y-52379260D01*
X112505961Y-52337520D01*
X112606736Y-52295778D01*
X112795664Y-52186701D01*
X112968738Y-52053897D01*
X113122997Y-51899638D01*
X113255801Y-51726564D01*
X113364878Y-51537636D01*
X113448363Y-51336087D01*
X113504825Y-51125366D01*
X113533300Y-50909077D01*
X113533300Y-50690923D01*
X113504825Y-50474634D01*
X113483112Y-50393600D01*
X113448366Y-50263923D01*
X113448360Y-50263904D01*
X113364881Y-50062371D01*
X113364876Y-50062360D01*
X113255804Y-49873441D01*
X113255800Y-49873435D01*
X113241017Y-49854169D01*
X113122997Y-49700362D01*
X113122986Y-49700351D01*
X113119555Y-49696438D01*
X113118244Y-49694168D01*
X113117955Y-49693791D01*
X113118004Y-49693752D01*
X113070196Y-49610949D01*
X113057308Y-49513078D01*
X113082856Y-49417725D01*
X113119564Y-49362790D01*
X113122628Y-49359296D01*
X113255380Y-49186289D01*
X113255389Y-49186276D01*
X113364425Y-48997422D01*
X113364428Y-48997415D01*
X113447885Y-48795930D01*
X113447888Y-48795924D01*
X113482595Y-48666400D01*
X111703000Y-48666400D01*
X111652495Y-48656354D01*
X111722930Y-48615689D01*
X111805689Y-48532930D01*
X111864208Y-48431571D01*
X111894500Y-48318520D01*
X111894500Y-48201480D01*
X111864208Y-48088429D01*
X111805689Y-47987070D01*
X111722930Y-47904311D01*
X111621571Y-47845792D01*
X111508520Y-47815500D01*
X111391480Y-47815500D01*
X111278429Y-47845792D01*
X111177070Y-47904311D01*
X111094311Y-47987070D01*
X111053645Y-48057504D01*
X111043600Y-48007000D01*
X111043600Y-46674293D01*
X111856400Y-46674293D01*
X111856400Y-47853600D01*
X113538800Y-47853600D01*
X113635619Y-47872858D01*
X113717698Y-47927702D01*
X113772542Y-48009781D01*
X113786560Y-48080260D01*
X113791799Y-48088599D01*
X113797720Y-48091451D01*
X114069398Y-48186516D01*
X114350042Y-48250571D01*
X114636074Y-48282799D01*
X114636076Y-48282800D01*
X116123600Y-48282800D01*
X116123600Y-46639468D01*
X116236852Y-46686379D01*
X116431016Y-46725000D01*
X116628984Y-46725000D01*
X116823148Y-46686379D01*
X116936400Y-46639468D01*
X116936400Y-48282800D01*
X118423924Y-48282800D01*
X118423925Y-48282799D01*
X118709957Y-48250571D01*
X118990601Y-48186516D01*
X119262283Y-48091450D01*
X119262287Y-48091448D01*
X119521624Y-47966558D01*
X119521637Y-47966551D01*
X119765345Y-47813419D01*
X119765351Y-47813415D01*
X119990398Y-47633947D01*
X119990401Y-47633945D01*
X120193945Y-47430401D01*
X120193947Y-47430398D01*
X120373415Y-47205351D01*
X120373419Y-47205345D01*
X120526551Y-46961637D01*
X120526558Y-46961624D01*
X120651448Y-46702287D01*
X120651450Y-46702283D01*
X120746516Y-46430601D01*
X120810570Y-46149960D01*
X120813226Y-46126400D01*
X117449468Y-46126400D01*
X117496379Y-46013148D01*
X117535000Y-45818984D01*
X117535000Y-45621016D01*
X117496379Y-45426852D01*
X117449468Y-45313600D01*
X120813225Y-45313600D01*
X120810570Y-45290039D01*
X120746516Y-45009398D01*
X120651450Y-44737716D01*
X120651448Y-44737712D01*
X120526558Y-44478375D01*
X120526551Y-44478362D01*
X120373419Y-44234654D01*
X120373415Y-44234648D01*
X120193947Y-44009601D01*
X120193945Y-44009598D01*
X119990401Y-43806054D01*
X119990398Y-43806052D01*
X119765351Y-43626584D01*
X119765345Y-43626580D01*
X119521637Y-43473448D01*
X119521624Y-43473441D01*
X119262287Y-43348551D01*
X119262283Y-43348549D01*
X118990601Y-43253483D01*
X118709957Y-43189428D01*
X118423925Y-43157200D01*
X116936400Y-43157200D01*
X116936400Y-44800531D01*
X116823148Y-44753621D01*
X116628984Y-44715000D01*
X116431016Y-44715000D01*
X116236852Y-44753621D01*
X116123600Y-44800531D01*
X116123600Y-43157200D01*
X114636074Y-43157200D01*
X114350042Y-43189428D01*
X114069398Y-43253483D01*
X113797716Y-43348549D01*
X113797712Y-43348551D01*
X113538375Y-43473441D01*
X113538362Y-43473448D01*
X113294654Y-43626580D01*
X113294648Y-43626584D01*
X113069601Y-43806052D01*
X113069598Y-43806054D01*
X112866054Y-44009598D01*
X112866052Y-44009601D01*
X112686584Y-44234648D01*
X112686580Y-44234654D01*
X112533448Y-44478362D01*
X112533441Y-44478375D01*
X112408551Y-44737712D01*
X112408549Y-44737716D01*
X112313483Y-45009398D01*
X112249429Y-45290039D01*
X112246774Y-45313600D01*
X115610532Y-45313600D01*
X115563621Y-45426852D01*
X115525000Y-45621016D01*
X115525000Y-45818984D01*
X115563621Y-46013148D01*
X115610532Y-46126400D01*
X112246774Y-46126400D01*
X112249429Y-46149962D01*
X112281926Y-46292340D01*
X112284694Y-46391017D01*
X112249490Y-46483242D01*
X112181672Y-46554974D01*
X112114729Y-46588835D01*
X111856400Y-46674293D01*
X111043600Y-46674293D01*
X111043600Y-46596300D01*
X110921854Y-46596300D01*
X110705630Y-46624766D01*
X110705627Y-46624766D01*
X110494980Y-46681209D01*
X110293484Y-46764671D01*
X110293477Y-46764674D01*
X110104623Y-46873710D01*
X110104610Y-46873719D01*
X109931593Y-47006479D01*
X109777379Y-47160693D01*
X109644619Y-47333710D01*
X109644610Y-47333722D01*
X109537125Y-47519890D01*
X109472037Y-47594108D01*
X109383501Y-47637768D01*
X109284997Y-47644223D01*
X109191520Y-47612491D01*
X109139124Y-47572286D01*
X98837810Y-37270972D01*
X98663006Y-37154172D01*
X98663004Y-37154171D01*
X98468768Y-37073716D01*
X98262568Y-37032700D01*
X98262564Y-37032700D01*
X93234600Y-37032700D01*
X93137781Y-37013442D01*
X93055702Y-36958598D01*
X93020378Y-36914303D01*
X92918088Y-36751508D01*
X92788491Y-36621911D01*
X92633307Y-36524404D01*
X92460322Y-36463874D01*
X92323874Y-36448500D01*
X92323872Y-36448500D01*
X90556128Y-36448500D01*
X90556125Y-36448500D01*
X90419678Y-36463874D01*
X90419676Y-36463874D01*
X90246692Y-36524404D01*
X90091508Y-36621911D01*
X90068010Y-36645409D01*
X89985930Y-36700251D01*
X89889111Y-36719508D01*
X89792293Y-36700248D01*
X89774256Y-36691933D01*
X89533959Y-36569496D01*
X89286727Y-36489165D01*
X89029977Y-36448500D01*
X89029976Y-36448500D01*
X88770024Y-36448500D01*
X88770022Y-36448500D01*
X88513272Y-36489165D01*
X88266040Y-36569496D01*
X88034423Y-36687510D01*
X87824120Y-36840305D01*
X87824118Y-36840307D01*
X87705828Y-36958598D01*
X87623749Y-37013442D01*
X87526930Y-37032700D01*
X80351580Y-37032700D01*
X80254761Y-37013442D01*
X80172682Y-36958598D01*
X80150861Y-36933716D01*
X80118292Y-36891271D01*
X79948728Y-36721707D01*
X79758486Y-36575730D01*
X79758485Y-36575729D01*
X79758475Y-36575723D01*
X79550820Y-36455832D01*
X79550815Y-36455830D01*
X79329271Y-36364064D01*
X79329260Y-36364060D01*
X79097646Y-36302000D01*
X78859912Y-36270700D01*
X78859899Y-36270700D01*
X78620101Y-36270700D01*
X78620087Y-36270700D01*
X78382355Y-36302000D01*
X78382351Y-36302000D01*
X78150739Y-36364060D01*
X78150728Y-36364064D01*
X77929187Y-36455829D01*
X77929179Y-36455832D01*
X77721524Y-36575723D01*
X77721513Y-36575730D01*
X77531271Y-36721707D01*
X77361707Y-36891271D01*
X77215730Y-37081513D01*
X77215723Y-37081524D01*
X77095832Y-37289179D01*
X77095829Y-37289187D01*
X77004064Y-37510728D01*
X77004060Y-37510739D01*
X76942000Y-37742351D01*
X76942000Y-37742355D01*
X76910700Y-37980087D01*
X70409299Y-37980087D01*
X70393879Y-37862970D01*
X70378000Y-37742356D01*
X70315936Y-37510729D01*
X70224170Y-37289185D01*
X70104271Y-37081515D01*
X69958292Y-36891271D01*
X69788729Y-36721708D01*
X69749925Y-36691933D01*
X69598486Y-36575730D01*
X69598485Y-36575729D01*
X69598475Y-36575723D01*
X69390820Y-36455832D01*
X69390815Y-36455830D01*
X69169271Y-36364064D01*
X69169260Y-36364060D01*
X68937646Y-36302000D01*
X68699912Y-36270700D01*
X68699899Y-36270700D01*
X68460101Y-36270700D01*
X68460087Y-36270700D01*
X68222355Y-36302000D01*
X68222351Y-36302000D01*
X67990739Y-36364060D01*
X67990728Y-36364064D01*
X67769187Y-36455829D01*
X67769179Y-36455832D01*
X67561524Y-36575723D01*
X67561513Y-36575730D01*
X67371271Y-36721707D01*
X67201707Y-36891271D01*
X67055730Y-37081513D01*
X67055723Y-37081524D01*
X66935832Y-37289179D01*
X66935829Y-37289187D01*
X66844064Y-37510728D01*
X66844060Y-37510739D01*
X66782000Y-37742351D01*
X66782000Y-37742355D01*
X66750700Y-37980087D01*
X66750700Y-38219912D01*
X66782000Y-38457644D01*
X66782000Y-38457648D01*
X66844060Y-38689260D01*
X66844064Y-38689271D01*
X66935829Y-38910812D01*
X66935832Y-38910820D01*
X67055723Y-39118475D01*
X67055730Y-39118486D01*
X67201707Y-39308728D01*
X67371271Y-39478292D01*
X67413716Y-39510861D01*
X67478804Y-39585079D01*
X67510535Y-39678556D01*
X67512700Y-39711580D01*
X67512700Y-44108419D01*
X67493442Y-44205238D01*
X67438598Y-44287317D01*
X67413719Y-44309136D01*
X67371269Y-44341709D01*
X67201707Y-44511271D01*
X67055730Y-44701513D01*
X67055723Y-44701524D01*
X66935832Y-44909179D01*
X66935829Y-44909187D01*
X66844064Y-45130728D01*
X66844060Y-45130739D01*
X66782000Y-45362351D01*
X66782000Y-45362355D01*
X66750700Y-45600087D01*
X66750700Y-45839901D01*
X66757683Y-45892943D01*
X66751226Y-45991448D01*
X66707564Y-46079983D01*
X66685745Y-46104863D01*
X63132012Y-49658598D01*
X63049933Y-49713441D01*
X62953114Y-49732700D01*
X60502300Y-49732700D01*
X60405481Y-49713442D01*
X60323402Y-49658598D01*
X60268558Y-49576519D01*
X60249300Y-49479700D01*
X60249300Y-48722327D01*
X60249299Y-48722326D01*
X60233926Y-48585879D01*
X60179931Y-48431571D01*
X60173395Y-48412892D01*
X60075888Y-48257708D01*
X59946291Y-48128111D01*
X59791107Y-48030604D01*
X59618122Y-47970074D01*
X59481674Y-47954700D01*
X59481672Y-47954700D01*
X57358328Y-47954700D01*
X57358325Y-47954700D01*
X57221878Y-47970074D01*
X57221876Y-47970074D01*
X57048892Y-48030604D01*
X56893708Y-48128111D01*
X56764111Y-48257708D01*
X56666604Y-48412892D01*
X56606074Y-48585876D01*
X56606074Y-48585878D01*
X56590700Y-48722325D01*
X56590700Y-52877674D01*
X56606074Y-53014121D01*
X56606074Y-53014123D01*
X56666604Y-53187107D01*
X56764111Y-53342291D01*
X56772969Y-53353398D01*
X56771384Y-53354661D01*
X56815966Y-53421381D01*
X56835224Y-53518200D01*
X56815966Y-53615019D01*
X56761122Y-53697098D01*
X56679043Y-53751942D01*
X56582224Y-53771200D01*
X55926400Y-53771200D01*
X55926400Y-55092000D01*
X55113600Y-55092000D01*
X55113600Y-53771200D01*
X54384133Y-53771200D01*
X54146451Y-53802491D01*
X54146448Y-53802491D01*
X53914900Y-53864534D01*
X53914881Y-53864540D01*
X53693414Y-53956276D01*
X53693399Y-53956283D01*
X53485800Y-54076141D01*
X53485780Y-54076154D01*
X53295602Y-54222083D01*
X53126083Y-54391602D01*
X52980154Y-54581780D01*
X52980141Y-54581800D01*
X52860283Y-54789399D01*
X52860278Y-54789409D01*
X52768539Y-55010886D01*
X52768534Y-55010899D01*
X52719580Y-55193599D01*
X50343300Y-55193599D01*
X50343300Y-53236410D01*
X50362558Y-53139591D01*
X50417402Y-53057512D01*
X50499481Y-53002668D01*
X50596300Y-52983410D01*
X50693119Y-53002668D01*
X50775198Y-53057512D01*
X50911602Y-53193916D01*
X51101780Y-53339845D01*
X51101800Y-53339858D01*
X51309399Y-53459716D01*
X51309414Y-53459723D01*
X51530881Y-53551459D01*
X51530890Y-53551461D01*
X51713599Y-53600417D01*
X51713600Y-53600417D01*
X51713600Y-52128022D01*
X51808080Y-52222502D01*
X51923919Y-52289381D01*
X52053120Y-52324000D01*
X52186880Y-52324000D01*
X52316081Y-52289381D01*
X52431920Y-52222502D01*
X52526400Y-52128022D01*
X52526400Y-53600417D01*
X52709109Y-53551461D01*
X52709118Y-53551459D01*
X52930585Y-53459723D01*
X52930600Y-53459716D01*
X53138199Y-53339858D01*
X53138219Y-53339845D01*
X53328397Y-53193916D01*
X53497916Y-53024397D01*
X53643845Y-52834219D01*
X53643858Y-52834199D01*
X53763716Y-52626600D01*
X53763723Y-52626585D01*
X53855459Y-52405118D01*
X53855465Y-52405099D01*
X53917508Y-52173551D01*
X53917508Y-52173548D01*
X53948799Y-51935866D01*
X53948800Y-51935863D01*
X53948800Y-51206400D01*
X52628000Y-51206400D01*
X52628000Y-50393600D01*
X53948800Y-50393600D01*
X53948800Y-49664136D01*
X53948799Y-49664133D01*
X53917508Y-49426451D01*
X53917508Y-49426448D01*
X53855465Y-49194900D01*
X53855459Y-49194881D01*
X53763723Y-48973414D01*
X53763716Y-48973399D01*
X53643858Y-48765800D01*
X53643845Y-48765780D01*
X53497916Y-48575602D01*
X53328397Y-48406083D01*
X53328398Y-48406083D01*
X53138219Y-48260154D01*
X53138199Y-48260141D01*
X52930600Y-48140283D01*
X52930590Y-48140278D01*
X52709113Y-48048539D01*
X52709100Y-48048534D01*
X52526400Y-47999580D01*
X52526400Y-49471978D01*
X52431920Y-49377498D01*
X52316081Y-49310619D01*
X52186880Y-49276000D01*
X52053120Y-49276000D01*
X51923919Y-49310619D01*
X51808080Y-49377498D01*
X51713600Y-49471978D01*
X51713600Y-47999581D01*
X51713599Y-47999580D01*
X51530899Y-48048534D01*
X51530886Y-48048539D01*
X51309409Y-48140278D01*
X51309399Y-48140283D01*
X51101800Y-48260141D01*
X51101780Y-48260154D01*
X50911602Y-48406083D01*
X50775198Y-48542488D01*
X50693119Y-48597332D01*
X50596300Y-48616590D01*
X50499481Y-48597332D01*
X50417402Y-48542488D01*
X50362558Y-48460409D01*
X50343300Y-48363590D01*
X50343300Y-33024729D01*
X50343477Y-33015269D01*
X50361979Y-32520793D01*
X50363393Y-32501926D01*
X50418265Y-32014920D01*
X50421085Y-31996211D01*
X50512198Y-31514667D01*
X50516408Y-31496222D01*
X50643255Y-31022822D01*
X50648817Y-31004788D01*
X50810707Y-30542134D01*
X50817601Y-30524571D01*
X51013601Y-30075333D01*
X51021785Y-30058338D01*
X51250806Y-29625010D01*
X51260262Y-29608633D01*
X51304862Y-29537653D01*
X51521017Y-29193643D01*
X51531642Y-29178059D01*
X51822693Y-28783698D01*
X51834471Y-28768929D01*
X52154175Y-28397426D01*
X52167020Y-28383583D01*
X52513583Y-28037020D01*
X52527426Y-28024175D01*
X52898929Y-27704471D01*
X52913698Y-27692693D01*
X53308059Y-27401642D01*
X53323643Y-27391017D01*
X53738641Y-27130257D01*
X53755010Y-27120806D01*
X54188338Y-26891785D01*
X54205333Y-26883601D01*
X54654571Y-26687601D01*
X54672134Y-26680707D01*
X55134788Y-26518817D01*
X55152822Y-26513255D01*
X55626232Y-26386405D01*
X55644658Y-26382200D01*
X56126216Y-26291084D01*
X56144914Y-26288265D01*
X56631929Y-26233392D01*
X56650790Y-26231979D01*
X57145270Y-26213477D01*
X57154730Y-26213300D01*
X57235481Y-26213300D01*
X116754519Y-26213300D01*
X116835270Y-26213300D01*
X116844730Y-26213477D01*
G37*
%TD.AperFunction*%
%TD*%
%TA.AperFunction,NonConductor*%
G36*
X91556818Y-42293443D02*
G01*
X91638897Y-42348287D01*
X94794398Y-45503788D01*
X94849242Y-45585867D01*
X94868500Y-45682686D01*
X94868500Y-45849977D01*
X94909165Y-46106727D01*
X94989496Y-46353959D01*
X95107510Y-46585576D01*
X95256753Y-46790990D01*
X95298082Y-46880638D01*
X95301957Y-46979278D01*
X95267790Y-47071892D01*
X95200782Y-47144381D01*
X95111134Y-47185710D01*
X95052072Y-47192700D01*
X93256886Y-47192700D01*
X93160067Y-47173442D01*
X93077988Y-47118598D01*
X92892472Y-46933082D01*
X92837628Y-46851003D01*
X92818370Y-46754184D01*
X92837628Y-46657365D01*
X92852266Y-46627684D01*
X92947187Y-46463276D01*
X92947189Y-46463272D01*
X92947189Y-46463271D01*
X92947193Y-46463265D01*
X93031314Y-46260178D01*
X93088208Y-46047849D01*
X93108992Y-45889976D01*
X93116899Y-45829922D01*
X93116900Y-45829907D01*
X93116900Y-45610092D01*
X93116899Y-45610077D01*
X93092776Y-45426852D01*
X93088208Y-45392151D01*
X93031314Y-45179822D01*
X92947193Y-44976735D01*
X92947190Y-44976730D01*
X92947189Y-44976727D01*
X92947187Y-44976723D01*
X92837288Y-44786374D01*
X92837283Y-44786365D01*
X92703465Y-44611971D01*
X92548029Y-44456535D01*
X92373635Y-44322717D01*
X92369804Y-44320505D01*
X92183276Y-44212812D01*
X92183272Y-44212810D01*
X92126984Y-44189495D01*
X91980178Y-44128686D01*
X91911035Y-44110159D01*
X91767853Y-44071793D01*
X91767845Y-44071791D01*
X91549922Y-44043100D01*
X91549910Y-44043100D01*
X91330090Y-44043100D01*
X91330077Y-44043100D01*
X91112154Y-44071791D01*
X91112146Y-44071793D01*
X90899821Y-44128686D01*
X90696727Y-44212810D01*
X90696723Y-44212812D01*
X90506374Y-44322711D01*
X90506361Y-44322720D01*
X90331971Y-44456534D01*
X90176534Y-44611971D01*
X90042720Y-44786361D01*
X90042711Y-44786374D01*
X89932812Y-44976723D01*
X89932810Y-44976727D01*
X89848686Y-45179821D01*
X89791793Y-45392146D01*
X89791791Y-45392154D01*
X89763100Y-45610077D01*
X89763100Y-45829922D01*
X89791791Y-46047845D01*
X89791793Y-46047853D01*
X89848686Y-46260178D01*
X89932810Y-46463272D01*
X89932812Y-46463276D01*
X90026517Y-46625576D01*
X90042717Y-46653635D01*
X90127921Y-46764674D01*
X90176534Y-46828028D01*
X90300940Y-46952434D01*
X90355784Y-47034513D01*
X90368045Y-47083373D01*
X90370276Y-47082930D01*
X90372700Y-47095116D01*
X90372700Y-47095120D01*
X90413716Y-47301320D01*
X90477760Y-47455936D01*
X90494172Y-47495558D01*
X90610972Y-47670362D01*
X92029637Y-49089027D01*
X92204445Y-49205830D01*
X92301325Y-49245959D01*
X92383404Y-49300802D01*
X92438248Y-49382881D01*
X92457506Y-49479700D01*
X92438247Y-49576519D01*
X92383404Y-49658598D01*
X92301325Y-49713442D01*
X92204506Y-49732700D01*
X88176886Y-49732700D01*
X88080067Y-49713442D01*
X87997988Y-49658598D01*
X86182788Y-47843398D01*
X86127944Y-47761319D01*
X86108686Y-47664500D01*
X86127944Y-47567681D01*
X86182788Y-47485602D01*
X86264867Y-47430758D01*
X86361686Y-47411500D01*
X86489974Y-47411500D01*
X86489976Y-47411500D01*
X86746727Y-47370835D01*
X86993956Y-47290505D01*
X87225575Y-47172490D01*
X87435880Y-47019694D01*
X87619694Y-46835880D01*
X87772490Y-46625575D01*
X87890505Y-46393956D01*
X87970835Y-46146727D01*
X88011500Y-45889976D01*
X88011500Y-45722685D01*
X88030758Y-45625866D01*
X88085602Y-45543787D01*
X89645329Y-43984060D01*
X91281106Y-42348283D01*
X91363180Y-42293443D01*
X91459999Y-42274185D01*
X91556818Y-42293443D01*
G37*
%TD.AperFunction*%
%TA.AperFunction,NonConductor*%
G36*
X94715326Y-51886558D02*
G01*
X94797405Y-51941402D01*
X96652605Y-53796602D01*
X96707449Y-53878681D01*
X96726707Y-53975500D01*
X96707449Y-54072319D01*
X96652605Y-54154398D01*
X96570526Y-54209242D01*
X96473707Y-54228500D01*
X96390022Y-54228500D01*
X96133272Y-54269165D01*
X95886040Y-54349496D01*
X95654423Y-54467510D01*
X95444120Y-54620305D01*
X95260305Y-54804120D01*
X95107510Y-55014423D01*
X94989496Y-55246040D01*
X94909165Y-55493272D01*
X94868500Y-55750022D01*
X94868500Y-55917313D01*
X94849242Y-56014132D01*
X94794398Y-56096211D01*
X91618897Y-59271711D01*
X91536818Y-59326555D01*
X91439999Y-59345813D01*
X91343180Y-59326555D01*
X91261101Y-59271711D01*
X88085602Y-56096212D01*
X88030758Y-56014133D01*
X88011500Y-55917314D01*
X88011500Y-55750026D01*
X88011500Y-55750024D01*
X87970835Y-55493273D01*
X87890505Y-55246044D01*
X87772490Y-55014425D01*
X87769928Y-55010899D01*
X87623247Y-54809010D01*
X87581918Y-54719362D01*
X87578043Y-54620722D01*
X87612210Y-54528108D01*
X87679218Y-54455619D01*
X87768866Y-54414290D01*
X87827928Y-54407300D01*
X89623114Y-54407300D01*
X89719933Y-54426558D01*
X89802012Y-54481402D01*
X89987527Y-54666917D01*
X90042371Y-54748996D01*
X90061629Y-54845815D01*
X90042371Y-54942634D01*
X90027734Y-54972314D01*
X89932810Y-55136727D01*
X89848686Y-55339821D01*
X89791793Y-55552146D01*
X89791791Y-55552154D01*
X89763100Y-55770077D01*
X89763100Y-55989922D01*
X89791791Y-56207845D01*
X89791793Y-56207853D01*
X89848686Y-56420178D01*
X89932810Y-56623272D01*
X89932812Y-56623276D01*
X90017882Y-56770620D01*
X90042717Y-56813635D01*
X90107825Y-56898485D01*
X90159304Y-56965574D01*
X90176535Y-56988029D01*
X90331971Y-57143465D01*
X90506365Y-57277283D01*
X90506374Y-57277288D01*
X90696723Y-57387187D01*
X90696727Y-57387189D01*
X90696730Y-57387190D01*
X90696735Y-57387193D01*
X90899822Y-57471314D01*
X91112151Y-57528208D01*
X91189944Y-57538449D01*
X91330077Y-57556899D01*
X91330087Y-57556899D01*
X91330090Y-57556900D01*
X91330092Y-57556900D01*
X91549908Y-57556900D01*
X91549910Y-57556900D01*
X91549912Y-57556899D01*
X91549922Y-57556899D01*
X91664123Y-57541863D01*
X91767849Y-57528208D01*
X91980178Y-57471314D01*
X92183265Y-57387193D01*
X92183272Y-57387189D01*
X92183276Y-57387187D01*
X92242673Y-57352893D01*
X92373635Y-57277283D01*
X92548029Y-57143465D01*
X92703465Y-56988029D01*
X92837283Y-56813635D01*
X92912893Y-56682673D01*
X92947187Y-56623276D01*
X92947189Y-56623272D01*
X92947189Y-56623271D01*
X92947193Y-56623265D01*
X93031314Y-56420178D01*
X93088208Y-56207849D01*
X93105911Y-56073381D01*
X93116899Y-55989922D01*
X93116900Y-55989907D01*
X93116900Y-55770092D01*
X93116899Y-55770077D01*
X93092316Y-55583358D01*
X93088208Y-55552151D01*
X93031314Y-55339822D01*
X92947193Y-55136735D01*
X92947190Y-55136730D01*
X92947189Y-55136727D01*
X92947187Y-55136723D01*
X92837288Y-54946374D01*
X92837283Y-54946365D01*
X92703465Y-54771971D01*
X92579059Y-54647565D01*
X92524215Y-54565486D01*
X92511977Y-54516621D01*
X92509724Y-54517070D01*
X92507300Y-54504883D01*
X92507300Y-54504880D01*
X92466284Y-54298680D01*
X92385829Y-54104444D01*
X92350270Y-54051226D01*
X92269027Y-53929637D01*
X90850362Y-52510972D01*
X90675554Y-52394169D01*
X90578675Y-52354041D01*
X90496596Y-52299198D01*
X90441752Y-52217119D01*
X90422494Y-52120300D01*
X90441753Y-52023481D01*
X90496596Y-51941402D01*
X90578675Y-51886558D01*
X90675494Y-51867300D01*
X94618507Y-51867300D01*
X94715326Y-51886558D01*
G37*
%TD.AperFunction*%
M02*
