%TF.GenerationSoftware,KiCad,Pcbnew,9.0.6*%
%TF.CreationDate,2026-02-11T14:43:15-08:00*%
%TF.ProjectId,7L_LED_Flasher,374c5f4c-4544-45f4-966c-61736865722e,rev?*%
%TF.SameCoordinates,Original*%
%TF.FileFunction,Legend,Top*%
%TF.FilePolarity,Positive*%
%FSLAX46Y46*%
G04 Gerber Fmt 4.6, Leading zero omitted, Abs format (unit mm)*
G04 Created by KiCad (PCBNEW 9.0.6) date 2026-02-11 14:43:15*
%MOMM*%
%LPD*%
G01*
G04 APERTURE LIST*
%ADD10C,0.150000*%
%ADD11C,0.120000*%
G04 APERTURE END LIST*
D10*
X98964761Y-59990057D02*
X98869523Y-59942438D01*
X98869523Y-59942438D02*
X98774285Y-59847200D01*
X98774285Y-59847200D02*
X98631428Y-59704342D01*
X98631428Y-59704342D02*
X98536190Y-59656723D01*
X98536190Y-59656723D02*
X98440952Y-59656723D01*
X98488571Y-59894819D02*
X98393333Y-59847200D01*
X98393333Y-59847200D02*
X98298095Y-59751961D01*
X98298095Y-59751961D02*
X98250476Y-59561485D01*
X98250476Y-59561485D02*
X98250476Y-59228152D01*
X98250476Y-59228152D02*
X98298095Y-59037676D01*
X98298095Y-59037676D02*
X98393333Y-58942438D01*
X98393333Y-58942438D02*
X98488571Y-58894819D01*
X98488571Y-58894819D02*
X98679047Y-58894819D01*
X98679047Y-58894819D02*
X98774285Y-58942438D01*
X98774285Y-58942438D02*
X98869523Y-59037676D01*
X98869523Y-59037676D02*
X98917142Y-59228152D01*
X98917142Y-59228152D02*
X98917142Y-59561485D01*
X98917142Y-59561485D02*
X98869523Y-59751961D01*
X98869523Y-59751961D02*
X98774285Y-59847200D01*
X98774285Y-59847200D02*
X98679047Y-59894819D01*
X98679047Y-59894819D02*
X98488571Y-59894819D01*
X99298095Y-58990057D02*
X99345714Y-58942438D01*
X99345714Y-58942438D02*
X99440952Y-58894819D01*
X99440952Y-58894819D02*
X99679047Y-58894819D01*
X99679047Y-58894819D02*
X99774285Y-58942438D01*
X99774285Y-58942438D02*
X99821904Y-58990057D01*
X99821904Y-58990057D02*
X99869523Y-59085295D01*
X99869523Y-59085295D02*
X99869523Y-59180533D01*
X99869523Y-59180533D02*
X99821904Y-59323390D01*
X99821904Y-59323390D02*
X99250476Y-59894819D01*
X99250476Y-59894819D02*
X99869523Y-59894819D01*
X84943333Y-41719580D02*
X84895714Y-41767200D01*
X84895714Y-41767200D02*
X84752857Y-41814819D01*
X84752857Y-41814819D02*
X84657619Y-41814819D01*
X84657619Y-41814819D02*
X84514762Y-41767200D01*
X84514762Y-41767200D02*
X84419524Y-41671961D01*
X84419524Y-41671961D02*
X84371905Y-41576723D01*
X84371905Y-41576723D02*
X84324286Y-41386247D01*
X84324286Y-41386247D02*
X84324286Y-41243390D01*
X84324286Y-41243390D02*
X84371905Y-41052914D01*
X84371905Y-41052914D02*
X84419524Y-40957676D01*
X84419524Y-40957676D02*
X84514762Y-40862438D01*
X84514762Y-40862438D02*
X84657619Y-40814819D01*
X84657619Y-40814819D02*
X84752857Y-40814819D01*
X84752857Y-40814819D02*
X84895714Y-40862438D01*
X84895714Y-40862438D02*
X84943333Y-40910057D01*
X85895714Y-41814819D02*
X85324286Y-41814819D01*
X85610000Y-41814819D02*
X85610000Y-40814819D01*
X85610000Y-40814819D02*
X85514762Y-40957676D01*
X85514762Y-40957676D02*
X85419524Y-41052914D01*
X85419524Y-41052914D02*
X85324286Y-41100533D01*
X98964761Y-49830057D02*
X98869523Y-49782438D01*
X98869523Y-49782438D02*
X98774285Y-49687200D01*
X98774285Y-49687200D02*
X98631428Y-49544342D01*
X98631428Y-49544342D02*
X98536190Y-49496723D01*
X98536190Y-49496723D02*
X98440952Y-49496723D01*
X98488571Y-49734819D02*
X98393333Y-49687200D01*
X98393333Y-49687200D02*
X98298095Y-49591961D01*
X98298095Y-49591961D02*
X98250476Y-49401485D01*
X98250476Y-49401485D02*
X98250476Y-49068152D01*
X98250476Y-49068152D02*
X98298095Y-48877676D01*
X98298095Y-48877676D02*
X98393333Y-48782438D01*
X98393333Y-48782438D02*
X98488571Y-48734819D01*
X98488571Y-48734819D02*
X98679047Y-48734819D01*
X98679047Y-48734819D02*
X98774285Y-48782438D01*
X98774285Y-48782438D02*
X98869523Y-48877676D01*
X98869523Y-48877676D02*
X98917142Y-49068152D01*
X98917142Y-49068152D02*
X98917142Y-49401485D01*
X98917142Y-49401485D02*
X98869523Y-49591961D01*
X98869523Y-49591961D02*
X98774285Y-49687200D01*
X98774285Y-49687200D02*
X98679047Y-49734819D01*
X98679047Y-49734819D02*
X98488571Y-49734819D01*
X99869523Y-49734819D02*
X99298095Y-49734819D01*
X99583809Y-49734819D02*
X99583809Y-48734819D01*
X99583809Y-48734819D02*
X99488571Y-48877676D01*
X99488571Y-48877676D02*
X99393333Y-48972914D01*
X99393333Y-48972914D02*
X99298095Y-49020533D01*
X73493333Y-61584819D02*
X73160000Y-61108628D01*
X72921905Y-61584819D02*
X72921905Y-60584819D01*
X72921905Y-60584819D02*
X73302857Y-60584819D01*
X73302857Y-60584819D02*
X73398095Y-60632438D01*
X73398095Y-60632438D02*
X73445714Y-60680057D01*
X73445714Y-60680057D02*
X73493333Y-60775295D01*
X73493333Y-60775295D02*
X73493333Y-60918152D01*
X73493333Y-60918152D02*
X73445714Y-61013390D01*
X73445714Y-61013390D02*
X73398095Y-61061009D01*
X73398095Y-61061009D02*
X73302857Y-61108628D01*
X73302857Y-61108628D02*
X72921905Y-61108628D01*
X74350476Y-60918152D02*
X74350476Y-61584819D01*
X74112381Y-60537200D02*
X73874286Y-61251485D01*
X73874286Y-61251485D02*
X74493333Y-61251485D01*
X89431905Y-42514819D02*
X89431905Y-41514819D01*
X89431905Y-41514819D02*
X89670000Y-41514819D01*
X89670000Y-41514819D02*
X89812857Y-41562438D01*
X89812857Y-41562438D02*
X89908095Y-41657676D01*
X89908095Y-41657676D02*
X89955714Y-41752914D01*
X89955714Y-41752914D02*
X90003333Y-41943390D01*
X90003333Y-41943390D02*
X90003333Y-42086247D01*
X90003333Y-42086247D02*
X89955714Y-42276723D01*
X89955714Y-42276723D02*
X89908095Y-42371961D01*
X89908095Y-42371961D02*
X89812857Y-42467200D01*
X89812857Y-42467200D02*
X89670000Y-42514819D01*
X89670000Y-42514819D02*
X89431905Y-42514819D01*
X90955714Y-42514819D02*
X90384286Y-42514819D01*
X90670000Y-42514819D02*
X90670000Y-41514819D01*
X90670000Y-41514819D02*
X90574762Y-41657676D01*
X90574762Y-41657676D02*
X90479524Y-41752914D01*
X90479524Y-41752914D02*
X90384286Y-41800533D01*
X73493333Y-43804819D02*
X73160000Y-43328628D01*
X72921905Y-43804819D02*
X72921905Y-42804819D01*
X72921905Y-42804819D02*
X73302857Y-42804819D01*
X73302857Y-42804819D02*
X73398095Y-42852438D01*
X73398095Y-42852438D02*
X73445714Y-42900057D01*
X73445714Y-42900057D02*
X73493333Y-42995295D01*
X73493333Y-42995295D02*
X73493333Y-43138152D01*
X73493333Y-43138152D02*
X73445714Y-43233390D01*
X73445714Y-43233390D02*
X73398095Y-43281009D01*
X73398095Y-43281009D02*
X73302857Y-43328628D01*
X73302857Y-43328628D02*
X72921905Y-43328628D01*
X74445714Y-43804819D02*
X73874286Y-43804819D01*
X74160000Y-43804819D02*
X74160000Y-42804819D01*
X74160000Y-42804819D02*
X74064762Y-42947676D01*
X74064762Y-42947676D02*
X73969524Y-43042914D01*
X73969524Y-43042914D02*
X73874286Y-43090533D01*
X73493333Y-36184819D02*
X73160000Y-35708628D01*
X72921905Y-36184819D02*
X72921905Y-35184819D01*
X72921905Y-35184819D02*
X73302857Y-35184819D01*
X73302857Y-35184819D02*
X73398095Y-35232438D01*
X73398095Y-35232438D02*
X73445714Y-35280057D01*
X73445714Y-35280057D02*
X73493333Y-35375295D01*
X73493333Y-35375295D02*
X73493333Y-35518152D01*
X73493333Y-35518152D02*
X73445714Y-35613390D01*
X73445714Y-35613390D02*
X73398095Y-35661009D01*
X73398095Y-35661009D02*
X73302857Y-35708628D01*
X73302857Y-35708628D02*
X72921905Y-35708628D01*
X73826667Y-35184819D02*
X74445714Y-35184819D01*
X74445714Y-35184819D02*
X74112381Y-35565771D01*
X74112381Y-35565771D02*
X74255238Y-35565771D01*
X74255238Y-35565771D02*
X74350476Y-35613390D01*
X74350476Y-35613390D02*
X74398095Y-35661009D01*
X74398095Y-35661009D02*
X74445714Y-35756247D01*
X74445714Y-35756247D02*
X74445714Y-35994342D01*
X74445714Y-35994342D02*
X74398095Y-36089580D01*
X74398095Y-36089580D02*
X74350476Y-36137200D01*
X74350476Y-36137200D02*
X74255238Y-36184819D01*
X74255238Y-36184819D02*
X73969524Y-36184819D01*
X73969524Y-36184819D02*
X73874286Y-36137200D01*
X73874286Y-36137200D02*
X73826667Y-36089580D01*
X84943333Y-60639580D02*
X84895714Y-60687200D01*
X84895714Y-60687200D02*
X84752857Y-60734819D01*
X84752857Y-60734819D02*
X84657619Y-60734819D01*
X84657619Y-60734819D02*
X84514762Y-60687200D01*
X84514762Y-60687200D02*
X84419524Y-60591961D01*
X84419524Y-60591961D02*
X84371905Y-60496723D01*
X84371905Y-60496723D02*
X84324286Y-60306247D01*
X84324286Y-60306247D02*
X84324286Y-60163390D01*
X84324286Y-60163390D02*
X84371905Y-59972914D01*
X84371905Y-59972914D02*
X84419524Y-59877676D01*
X84419524Y-59877676D02*
X84514762Y-59782438D01*
X84514762Y-59782438D02*
X84657619Y-59734819D01*
X84657619Y-59734819D02*
X84752857Y-59734819D01*
X84752857Y-59734819D02*
X84895714Y-59782438D01*
X84895714Y-59782438D02*
X84943333Y-59830057D01*
X85324286Y-59830057D02*
X85371905Y-59782438D01*
X85371905Y-59782438D02*
X85467143Y-59734819D01*
X85467143Y-59734819D02*
X85705238Y-59734819D01*
X85705238Y-59734819D02*
X85800476Y-59782438D01*
X85800476Y-59782438D02*
X85848095Y-59830057D01*
X85848095Y-59830057D02*
X85895714Y-59925295D01*
X85895714Y-59925295D02*
X85895714Y-60020533D01*
X85895714Y-60020533D02*
X85848095Y-60163390D01*
X85848095Y-60163390D02*
X85276667Y-60734819D01*
X85276667Y-60734819D02*
X85895714Y-60734819D01*
X73493333Y-53964819D02*
X73160000Y-53488628D01*
X72921905Y-53964819D02*
X72921905Y-52964819D01*
X72921905Y-52964819D02*
X73302857Y-52964819D01*
X73302857Y-52964819D02*
X73398095Y-53012438D01*
X73398095Y-53012438D02*
X73445714Y-53060057D01*
X73445714Y-53060057D02*
X73493333Y-53155295D01*
X73493333Y-53155295D02*
X73493333Y-53298152D01*
X73493333Y-53298152D02*
X73445714Y-53393390D01*
X73445714Y-53393390D02*
X73398095Y-53441009D01*
X73398095Y-53441009D02*
X73302857Y-53488628D01*
X73302857Y-53488628D02*
X72921905Y-53488628D01*
X73874286Y-53060057D02*
X73921905Y-53012438D01*
X73921905Y-53012438D02*
X74017143Y-52964819D01*
X74017143Y-52964819D02*
X74255238Y-52964819D01*
X74255238Y-52964819D02*
X74350476Y-53012438D01*
X74350476Y-53012438D02*
X74398095Y-53060057D01*
X74398095Y-53060057D02*
X74445714Y-53155295D01*
X74445714Y-53155295D02*
X74445714Y-53250533D01*
X74445714Y-53250533D02*
X74398095Y-53393390D01*
X74398095Y-53393390D02*
X73826667Y-53964819D01*
X73826667Y-53964819D02*
X74445714Y-53964819D01*
X60374819Y-51133333D02*
X61089104Y-51133333D01*
X61089104Y-51133333D02*
X61231961Y-51180952D01*
X61231961Y-51180952D02*
X61327200Y-51276190D01*
X61327200Y-51276190D02*
X61374819Y-51419047D01*
X61374819Y-51419047D02*
X61374819Y-51514285D01*
X60374819Y-50752380D02*
X60374819Y-50133333D01*
X60374819Y-50133333D02*
X60755771Y-50466666D01*
X60755771Y-50466666D02*
X60755771Y-50323809D01*
X60755771Y-50323809D02*
X60803390Y-50228571D01*
X60803390Y-50228571D02*
X60851009Y-50180952D01*
X60851009Y-50180952D02*
X60946247Y-50133333D01*
X60946247Y-50133333D02*
X61184342Y-50133333D01*
X61184342Y-50133333D02*
X61279580Y-50180952D01*
X61279580Y-50180952D02*
X61327200Y-50228571D01*
X61327200Y-50228571D02*
X61374819Y-50323809D01*
X61374819Y-50323809D02*
X61374819Y-50609523D01*
X61374819Y-50609523D02*
X61327200Y-50704761D01*
X61327200Y-50704761D02*
X61279580Y-50752380D01*
X89431905Y-67914819D02*
X89431905Y-66914819D01*
X89431905Y-66914819D02*
X89670000Y-66914819D01*
X89670000Y-66914819D02*
X89812857Y-66962438D01*
X89812857Y-66962438D02*
X89908095Y-67057676D01*
X89908095Y-67057676D02*
X89955714Y-67152914D01*
X89955714Y-67152914D02*
X90003333Y-67343390D01*
X90003333Y-67343390D02*
X90003333Y-67486247D01*
X90003333Y-67486247D02*
X89955714Y-67676723D01*
X89955714Y-67676723D02*
X89908095Y-67771961D01*
X89908095Y-67771961D02*
X89812857Y-67867200D01*
X89812857Y-67867200D02*
X89670000Y-67914819D01*
X89670000Y-67914819D02*
X89431905Y-67914819D01*
X90384286Y-67010057D02*
X90431905Y-66962438D01*
X90431905Y-66962438D02*
X90527143Y-66914819D01*
X90527143Y-66914819D02*
X90765238Y-66914819D01*
X90765238Y-66914819D02*
X90860476Y-66962438D01*
X90860476Y-66962438D02*
X90908095Y-67010057D01*
X90908095Y-67010057D02*
X90955714Y-67105295D01*
X90955714Y-67105295D02*
X90955714Y-67200533D01*
X90955714Y-67200533D02*
X90908095Y-67343390D01*
X90908095Y-67343390D02*
X90336667Y-67914819D01*
X90336667Y-67914819D02*
X90955714Y-67914819D01*
D11*
%TO.C,Q2*%
X100860000Y-54030000D02*
X97260000Y-54030000D01*
X96735816Y-54757205D02*
G75*
G02*
X97260000Y-54030000I2324184J-1122795D01*
G01*
X99060000Y-58480000D02*
G75*
G02*
X96703600Y-56978807I0J2600000D01*
G01*
X100860000Y-54030000D02*
G75*
G02*
X101384184Y-54757205I-1800000J-1850000D01*
G01*
X101416400Y-56978807D02*
G75*
G02*
X99060000Y-58480000I-2356400J1098807D01*
G01*
%TO.C,C1*%
X88380000Y-45760000D02*
G75*
G02*
X81840000Y-45760000I-3270000J0D01*
G01*
X81840000Y-45760000D02*
G75*
G02*
X88380000Y-45760000I3270000J0D01*
G01*
%TO.C,Q1*%
X100860000Y-43870000D02*
X97260000Y-43870000D01*
X96735816Y-44597205D02*
G75*
G02*
X97260000Y-43870000I2324184J-1122795D01*
G01*
X99060000Y-48320000D02*
G75*
G02*
X96703600Y-46818807I0J2600000D01*
G01*
X100860000Y-43870000D02*
G75*
G02*
X101384184Y-44597205I-1800000J-1850000D01*
G01*
X101416400Y-46818807D02*
G75*
G02*
X99060000Y-48320000I-2356400J1098807D01*
G01*
%TO.C,R4*%
X69620000Y-63500000D02*
X70390000Y-63500000D01*
X77700000Y-63500000D02*
X76930000Y-63500000D01*
X70390000Y-62130000D02*
X76930000Y-62130000D01*
X76930000Y-64870000D01*
X70390000Y-64870000D01*
X70390000Y-62130000D01*
%TO.C,D1*%
X92730000Y-39645000D02*
X92730000Y-36555000D01*
X87180000Y-38100000D02*
G75*
G02*
X92730000Y-36555170I2990000J0D01*
G01*
X92730000Y-39644830D02*
G75*
G02*
X87180000Y-38100000I-2560000J1544830D01*
G01*
X92670000Y-38100000D02*
G75*
G02*
X87670000Y-38100000I-2500000J0D01*
G01*
X87670000Y-38100000D02*
G75*
G02*
X92670000Y-38100000I2500000J0D01*
G01*
%TO.C,R1*%
X69620000Y-45720000D02*
X70390000Y-45720000D01*
X77700000Y-45720000D02*
X76930000Y-45720000D01*
X70390000Y-44350000D02*
X76930000Y-44350000D01*
X76930000Y-47090000D01*
X70390000Y-47090000D01*
X70390000Y-44350000D01*
%TO.C,R3*%
X69620000Y-38100000D02*
X70390000Y-38100000D01*
X77700000Y-38100000D02*
X76930000Y-38100000D01*
X70390000Y-36730000D02*
X76930000Y-36730000D01*
X76930000Y-39470000D01*
X70390000Y-39470000D01*
X70390000Y-36730000D01*
%TO.C,C2*%
X88380000Y-55880000D02*
G75*
G02*
X81840000Y-55880000I-3270000J0D01*
G01*
X81840000Y-55880000D02*
G75*
G02*
X88380000Y-55880000I3270000J0D01*
G01*
%TO.C,R2*%
X69620000Y-55880000D02*
X70390000Y-55880000D01*
X77700000Y-55880000D02*
X76930000Y-55880000D01*
X70390000Y-54510000D02*
X76930000Y-54510000D01*
X76930000Y-57250000D01*
X70390000Y-57250000D01*
X70390000Y-54510000D01*
%TO.C,J3*%
X44620000Y-46200000D02*
X59120000Y-46200000D01*
X44620000Y-55400000D02*
X44620000Y-46200000D01*
X53220000Y-55400000D02*
X44620000Y-55400000D01*
X59120000Y-46200000D02*
X59120000Y-48200000D01*
X59120000Y-53400000D02*
X59120000Y-55400000D01*
X59120000Y-55400000D02*
X57820000Y-55400000D01*
X59420000Y-45900000D02*
X58120000Y-45900000D01*
X59420000Y-47600000D02*
X59420000Y-45900000D01*
%TO.C,D2*%
X92730000Y-65045000D02*
X92730000Y-61955000D01*
X87180000Y-63500000D02*
G75*
G02*
X92730000Y-61955170I2990000J0D01*
G01*
X92730000Y-65044830D02*
G75*
G02*
X87180000Y-63500000I-2560000J1544830D01*
G01*
X92670000Y-63500000D02*
G75*
G02*
X87670000Y-63500000I-2500000J0D01*
G01*
X87670000Y-63500000D02*
G75*
G02*
X92670000Y-63500000I2500000J0D01*
G01*
%TO.C,J1*%
X109150000Y-43300000D02*
X124150000Y-43300000D01*
X109150000Y-58300000D02*
X109150000Y-43300000D01*
X123950000Y-50800000D02*
X122950000Y-49800000D01*
X123950000Y-50800000D02*
X122950000Y-51800000D01*
X124150000Y-43300000D02*
X124150000Y-58300000D01*
X124150000Y-58300000D02*
X109150000Y-58300000D01*
%TD*%
M02*
